<svg xmlns="http://www.w3.org/2000/svg" width="165" height="165" viewBox="0 0 165 165">
    <g fill="none" fill-rule="evenodd">
        <g>
            <text fill="#000000" font-family="Roboto-Bold, Roboto" font-size="12" font-weight="bold">
                <tspan x="53.361" y="104">19</tspan> <tspan x="67.131" y="104" font-family="AppleSDGothicNeo-Bold, Apple SD Gothic Neo">세</tspan> <tspan x="77.511" y="104"> </tspan> <tspan x="80.499" y="104" font-family="AppleSDGothicNeo-Bold, Apple SD Gothic Neo">이상만</tspan>  <tspan x="51.36" y="119" font-family="AppleSDGothicNeo-Bold, Apple SD Gothic Neo">구매가능해요</tspan>
            </text>
            <g transform="translate(58.000000, 41.000000)">
                <path d="M0 0H50V50H0z"/>
                <path fill="#000000" fill-rule="nonzero" d="M18.381 20.994L15.925 21.619 15.3 19.081 19.344 17.875 21.438 17.875 21.438 32.063 18.381 32.063zM31.5 26.25c-.803.659-1.818 1.003-2.856.969-3.063 0-5-1.694-5-4.55v-.044c0-2.837 2.194-4.931 5.369-4.931 1.874 0 3 .462 4.068 1.531 1.069 1.069 1.669 2.537 1.669 5.313v.043c0 4.569-2.156 7.688-6.156 7.688-1.706.056-3.37-.53-4.663-1.644l1.631-2.35c.84.773 1.94 1.204 3.082 1.206 2.131-.012 2.731-1.981 2.856-3.231zm.063-3.706V22.5c0-1.25-.925-2.156-2.5-2.156s-2.375.906-2.375 2.156v.038c0 1.25.925 2.112 2.456 2.112s2.419-.9 2.419-2.087v-.02z"/>
                <path fill="#000000" fill-rule="nonzero" d="M25 4.688C13.782 4.688 4.687 13.781 4.687 25c0 11.218 9.095 20.313 20.313 20.313 11.218 0 20.313-9.095 20.313-20.313 0-11.218-9.095-20.313-20.313-20.313zm0 3.125c9.492 0 17.188 7.695 17.188 17.187S34.492 42.188 25 42.188c-9.492 0-17.188-7.696-17.188-17.188 0-9.492 7.696-17.188 17.188-17.188z"/>
            </g>
        </g>
    </g>
</svg>
