<?xml version="1.0" encoding="UTF-8"?>
<svg width="24px" height="24px" viewBox="0 0 24 24" version="1.1" xmlns="http://www.w3.org/2000/svg" xmlns:xlink="http://www.w3.org/1999/xlink">
    <title>03. tokens/Icon/m/type : age_all</title>
    <g id="03.-tokens/Icon/m/type-:-age_all" stroke="none" stroke-width="1" fill="none" fill-rule="evenodd">
        <rect id="background" x="0" y="0" width="24" height="24"></rect>
        <path d="M12,2.25 C17.3847763,2.25 21.75,6.61522369 21.75,12 C21.75,17.3847763 17.3847763,21.75 12,21.75 C6.61522369,21.75 2.25,17.3847763 2.25,12 C2.25,6.61522369 6.61522369,2.25 12,2.25 Z M12,3.75 C7.44365081,3.75 3.75,7.44365081 3.75,12 C3.75,16.5563492 7.44365081,20.25 12,20.25 C16.5563492,20.25 20.25,16.5563492 20.25,12 C20.25,7.44365081 16.5563492,3.75 12,3.75 Z M8.7,9.732 L10.629,14.271 L9.486,14.271 L9.471,14.232 L9.084,13.287 L7.314,13.287 L6.915,14.271 L5.796,14.271 L5.832,14.184 L7.728,9.732 L8.7,9.732 Z M12.174,9.762 L12.174,13.269 L14.361,13.269 L14.361,14.271 L11.085,14.271 L11.085,9.762 L12.174,9.762 Z M15.987,9.762 L15.987,13.269 L18.174,13.269 L18.174,14.271 L14.898,14.271 L14.898,9.762 L15.987,9.762 Z M8.199,11.1 L7.71,12.3 L8.7,12.3 L8.199,11.1 Z" id="Combined-Shape" fill="#000000" fill-rule="nonzero"></path>
    </g>
</svg>