<svg width="24px" height="24px" viewBox="0 0 24 24" version="1.1" xmlns="http://www.w3.org/2000/svg" xmlns:xlink="http://www.w3.org/1999/xlink">
    <g stroke="none" stroke-width="1" fill="none" fill-rule="evenodd">
        <rect id="background" x="0" y="0" width="24" height="24"></rect>
        <polygon id="Path" fill="#000000" fill-rule="nonzero" points="8.823 10.077 7.644 10.377 7.344 9.159 9.285 8.58 10.29 8.58 10.29 15.39 8.823 15.39"></polygon>
        <path d="M15.12,12.6 C14.7345344,12.9161719 14.2472753,13.0814349 13.749,13.065 C12.279,13.065 11.349,12.252 11.349,10.881 L11.349,10.86 C11.349,9.498 12.402,8.493 13.926,8.493 C14.826,8.493 15.366,8.715 15.879,9.228 C16.392,9.741 16.68,10.446 16.68,11.778 L16.68,11.799 C16.68,13.992 15.645,15.489 13.725,15.489 C12.9064312,15.516099 12.1075895,15.2344698 11.487,14.7 L12.27,13.572 C12.6731787,13.9432727 13.2009168,14.149872 13.749,14.151 C14.772,14.145 15.06,13.2 15.12,12.6 Z M15.15,10.821 L15.15,10.8 C15.15,10.2 14.706,9.765 13.95,9.765 C13.194,9.765 12.81,10.2 12.81,10.8 L12.81,10.818 C12.81,11.418 13.254,11.832 13.989,11.832 C14.724,11.832 15.15,11.4 15.15,10.83 L15.15,10.821 Z" id="Shape" fill="#000000" fill-rule="nonzero"></path>
        <path d="M12,2.25 C6.61522369,2.25 2.25,6.61522369 2.25,12 C2.25,17.3847763 6.61522369,21.75 12,21.75 C17.3847763,21.75 21.75,17.3847763 21.75,12 C21.75,6.61522369 17.3847763,2.25 12,2.25 Z M12,3.75 C16.5563492,3.75 20.25,7.44365081 20.25,12 C20.25,16.5563492 16.5563492,20.25 12,20.25 C7.44365081,20.25 3.75,16.5563492 3.75,12 C3.75,7.44365081 7.44365081,3.75 12,3.75 Z" id="Oval" fill="#000000" fill-rule="nonzero"></path>
    </g>
</svg>
