<?xml version="1.0" encoding="UTF-8"?>
<svg width="24px" height="24px" viewBox="0 0 24 24" version="1.1" xmlns="http://www.w3.org/2000/svg" xmlns:xlink="http://www.w3.org/1999/xlink">
    <title>03. tokens/Icon/m/type : airplane</title>
    <g id="03.-tokens/Icon/m/type-:-airplane" stroke="none" stroke-width="1" fill="none" fill-rule="evenodd">
        <rect id="background" x="0" y="0" width="24" height="24"></rect>
        <path d="M16.5788678,3.63347209 L12.9696,7.2426 L5.70957006,5.63728914 L3.04097053,8.65702019 L8.85,11.3523 L7.5045,12.696 L4.51508659,12.696 L2.3539794,14.8992751 L6.8088,17.2062 L9.09463884,21.6018827 L11.292,19.6409125 L11.292,16.4775 L12.6261,15.1449 L15.3498063,20.9517824 L18.3408688,18.265452 L16.7421,11.0406 L20.3653112,7.43134702 C20.8718445,6.93252881 21.1587895,6.24721468 21.1587895,5.532 C21.1587895,4.81678532 20.8718445,4.13147119 20.3622541,3.629625 C19.3200795,2.58819966 17.6249205,2.58819966 16.5788678,3.63347209 Z M19.3058678,4.69452791 C19.5330496,4.91828513 19.6587895,5.21859132 19.6587895,5.532 C19.6587895,5.84540868 19.5330496,6.14571487 19.3097459,6.365625 L15.0996647,10.5595582 L16.6872,17.7345 L15.8502,18.4863 L13.0775808,12.5747405 L9.792,15.8560543 L9.792,18.9687 L9.5352,19.1979 L7.92083424,16.0932578 L4.8456,14.5005 L5.1444,14.196 L8.12537658,14.196 L11.4299371,10.8957034 L5.4969,8.1429 L6.2481,7.2927 L13.4485562,8.88510393 L17.6393301,4.69433009 C18.0994891,4.23451439 18.8455109,4.23451439 19.3058678,4.69452791 Z" id="Path" fill="#000000" fill-rule="nonzero"></path>
    </g>
</svg>