<?xml version="1.0" encoding="UTF-8"?>
<svg width="24px" height="24px" viewBox="0 0 24 24" version="1.1" xmlns="http://www.w3.org/2000/svg" xmlns:xlink="http://www.w3.org/1999/xlink">
    <title>03. tokens/Icon/m/type : arrow_clockwise</title>
    <g id="03.-tokens/Icon/m/type-:-arrow_clockwise" stroke="none" stroke-width="1" fill="none" fill-rule="evenodd">
        <polygon id="background" transform="translate(12.000000, 12.000000) rotate(-90.000000) translate(-12.000000, -12.000000) " points="-3.99680289e-15 2.93915232e-15 24 2.93915232e-15 24 24 -3.99680289e-15 24"></polygon>
        <path d="M18.7500276,5.38417413 L18.75,3.3 L20.25,3.3 L20.25,8.25 L15.3,8.25 L15.3,6.75 L17.9707139,6.74924346 C15.7331081,4.20113722 12.0572629,3.31523522 8.84800576,4.7012219 C5.19930847,6.27699023 3.27490177,10.3052149 4.34179069,14.1337637 C5.40867962,17.9623124 9.13902945,20.4147449 13.076825,19.8764106 C16.9753042,19.3434512 19.8911934,16.041331 19.9491213,12.1190448 L19.95,12 L21.45,12 C21.45,16.724268 17.9608421,20.722671 13.2799995,21.3625869 C8.59922368,22.0024938 4.16503427,19.0873382 2.89684554,14.5364217 C1.62865682,9.98550523 3.91615912,5.1972382 8.25328986,3.32415509 C11.9063832,1.74648823 16.0680824,2.64530157 18.7500276,5.38417413 Z" id="Combined-Shape" fill="#000000" fill-rule="nonzero"></path>
    </g>
</svg>