<?xml version="1.0" encoding="UTF-8"?>
<svg width="24px" height="24px" viewBox="0 0 24 24" version="1.1" xmlns="http://www.w3.org/2000/svg" xmlns:xlink="http://www.w3.org/1999/xlink">
    <title>03. tokens/Icon/m/type : arrow_clockwise_double_won</title>
    <g id="03.-tokens/Icon/m/type-:-arrow_clockwise_double_won" stroke="none" stroke-width="1" fill="none" fill-rule="evenodd">
        <polygon id="background" transform="translate(12.000000, 12.000000) rotate(-90.000000) translate(-12.000000, -12.000000) " points="-1.0658141e-14 1.46957616e-15 24 1.46957616e-15 24 24 -1.0658141e-14 24"></polygon>
        <path d="M19.9500076,11.9966276 L21.4499924,12.0033724 C21.4309029,16.2486887 18.5934376,19.9644045 14.502958,21.1006488 C11.1508036,22.0318028 7.62612828,21.0447998 5.24888869,18.6618483 L5.25,20.7 L3.75,20.7 L3.75,15.75 L8.7,15.75 L8.7,17.25 L5.9805287,17.2504933 C7.97584101,19.5091592 11.1197369,20.4836373 14.1014922,19.655372 C17.5064606,18.7095474 19.8801229,15.640663 19.9485691,12.1169286 L19.9500076,11.9966276 Z M8.682,8.613 L8.7,8.679 L9.32200758,11.2764713 L10.7380076,11.2764713 L11.415,8.613 L12.564,8.613 L12.579,8.679 L13.2400076,11.2764713 L14.6620076,11.2764713 L15.306,8.613 L16.362,8.613 L16.335,8.721 L15.6990076,11.2764713 L16.596,11.277 L16.596,12.309 L15.4420076,12.3084713 L14.529,15.987 L13.455,15.987 L12.5040076,12.3084713 L11.4940076,12.3084713 L11.481,12.363 L10.533,15.987 L9.459,15.987 L8.55000758,12.3084713 L7.401,12.309 L7.401,11.277 L8.29500758,11.2764713 L7.638,8.613 L8.682,8.613 Z M10.4760076,12.3084713 L9.57000758,12.3084713 L10.011,14.145 L10.4760076,12.3084713 Z M14.4130076,12.3084713 L13.5020076,12.3084713 L13.971,14.145 L14.4130076,12.3084713 Z M18.7501125,5.33715067 L18.75,3.3 L20.25,3.3 L20.25,8.25 L15.3,8.25 L15.3,6.75 L18.0194713,6.7495067 C16.024159,4.49084085 12.8802631,3.51636266 9.89850779,4.34462803 C6.49353942,5.29045257 4.11987709,8.35933703 4.05143091,11.8830714 L4.04999242,12.0033724 L2.55000758,11.9966276 C2.56909715,7.75131132 5.4065624,4.0355955 9.49704199,2.89935117 C12.848727,1.96832756 16.3728846,2.95492379 18.7501125,5.33715067 Z M11.994,10.332 L11.7540076,11.2764713 L12.2370076,11.2764713 L11.994,10.332 Z" id="Combined-Shape" fill="#000000" fill-rule="nonzero"></path>
    </g>
</svg>