<?xml version="1.0" encoding="UTF-8"?>
<svg width="24px" height="24px" viewBox="0 0 24 24" version="1.1" xmlns="http://www.w3.org/2000/svg" xmlns:xlink="http://www.w3.org/1999/xlink">
    <title>03. tokens/Icon/m/type : bag_unlimitedmark</title>
    <g id="03.-tokens/Icon/m/type-:-bag_unlimitedmark" stroke="none" stroke-width="1" fill="none" fill-rule="evenodd">
        <rect id="background" x="0" y="0" width="24" height="24"></rect>
        <path d="M15.9673172,6.48032897 L20.2331722,6.48 L20.8374821,15.8526771 C21.0451802,15.896071 21.2507707,15.9590746 21.451642,16.042205 C22.7413458,16.5759478 23.5823759,17.8342145 23.5823759,19.23 C23.5823759,20.6257855 22.7413458,21.8840522 21.451642,22.417795 C20.1912497,22.9394072 18.7450602,22.6686072 17.7653846,21.7402264 L16.2287638,20.2685318 L14.801983,21.6350031 L14.76866,21.668 C13.7823049,22.6555833 12.2980617,22.9515377 11.008358,22.417795 C9.95526155,21.9819719 9.20131366,21.0630799 8.96012129,19.9806967 L2.82164358,19.98 L3.83414358,6.48 L8.10025963,6.47979022 C8.55978679,4.72414411 10.1625856,3.45810433 12.0107478,3.48024714 C13.8977909,3.43179164 15.5218307,4.70925841 15.9673172,6.48032897 Z M11.581952,17.4282028 C10.852989,17.7298835 10.3776241,18.4410778 10.3776241,19.23 C10.3776241,20.0189222 10.852989,20.7301165 11.581952,21.0317972 C12.2857783,21.3230751 13.0921092,21.1771781 13.6503381,20.662692 L14.4827569,19.8603353 L15.1419,19.2318 L13.8620454,18.0038735 L13.70734,17.852 C13.149835,17.2938008 12.3109149,17.1265222 11.581952,17.4282028 Z M18.8113207,17.7956529 L18.75266,17.852 L18.3568516,18.2385666 L17.3166,19.233 L18.75266,20.608 C19.310165,21.1661992 20.1490851,21.3334778 20.878048,21.0317972 C21.607011,20.7301165 22.0823759,20.0189222 22.0823759,19.23 C22.0823759,18.4410778 21.607011,17.7298835 20.878048,17.4282028 C20.1742217,17.1369249 19.3678908,17.2828219 18.8113207,17.7956529 Z M18.8268,7.9797 L5.2257,7.9797 L4.4382,18.4797 L8.95993302,18.4801486 C9.20092112,17.3973985 9.95498739,16.4781415 11.008358,16.042205 C12.2687503,15.5205928 13.7149398,15.7913928 14.7006451,16.7257381 L15.1424047,17.155532 L16.2297073,18.1965543 L17.4201885,17.0578325 L17.6295874,16.8535092 L17.6901525,16.7931917 C18.1532847,16.3294816 18.7256596,16.0181483 19.3359796,15.87331 L18.8268,7.9797 Z M12.0989565,4.97913382 L12.0212038,4.97994842 C10.987174,4.96782025 10.0831217,5.58161343 9.68474796,6.47978147 L14.388515,6.48017109 C14.0088324,5.59514819 13.12759,4.98363009 12.0989565,4.97913382 Z" id="Combined-Shape" fill="#000000" fill-rule="nonzero"></path>
    </g>
</svg>