<?xml version="1.0" encoding="UTF-8"?>
<svg width="24px" height="24px" viewBox="0 0 24 24" version="1.1" xmlns="http://www.w3.org/2000/svg" xmlns:xlink="http://www.w3.org/1999/xlink">
    <title>03. tokens/Icon/m/type : bag_checkmark</title>
    <g id="03.-tokens/Icon/m/type-:-bag_checkmark" stroke="none" stroke-width="1" fill="none" fill-rule="evenodd">
        <rect id="background" x="0" y="0" width="24" height="24"></rect>
        <path d="M16.0700758,6.47735003 L20.3303276,6.477 L21.3374959,20.574 L2.92650407,20.574 L3.93367245,6.477 L8.20147804,6.47678101 C8.65996689,4.71958212 10.2635363,3.45209176 12.1127478,3.47424714 C14.0008637,3.4257641 15.6256772,4.70471133 16.0700758,6.47735003 Z M18.9336,7.977 L5.3301,7.977 L4.5372,19.0737 L19.7265,19.0737 L18.9336,7.977 Z M16.2696699,9.66966991 L17.3303301,10.7303301 L10.8460249,17.2146353 L6.7198617,13.776166 L7.6801383,12.623834 L10.7538,15.1854 L16.2696699,9.66966991 Z M12.2009565,4.97313382 L12.1232038,4.97394842 C11.088023,4.96180675 10.1831091,5.57698072 9.78541947,6.47678198 L14.4918153,6.47720768 C14.1128472,5.59054727 13.230766,4.97763523 12.2009565,4.97313382 Z" id="Combined-Shape" fill="#000000" fill-rule="nonzero"></path>
    </g>
</svg>