<?xml version="1.0" encoding="UTF-8"?>
<svg width="24px" height="24px" viewBox="0 0 24 24" version="1.1" xmlns="http://www.w3.org/2000/svg" xmlns:xlink="http://www.w3.org/1999/xlink">
    <title>03. tokens/Icon/m/type : barcode</title>
    <g id="03.-tokens/Icon/m/type-:-barcode" stroke="none" stroke-width="1" fill="none" fill-rule="evenodd">
        <rect id="background" x="0" y="0" width="24" height="24"></rect>
        <path d="M4.5,4.8 L4.5,19.2 L2.4,19.2 L2.4,4.8 L4.5,4.8 Z M6.9,4.8 L6.9,19.2 L5.55,19.2 L5.55,4.8 L6.9,4.8 Z M8.7,4.8 L8.7,19.2 L7.8,19.2 L7.8,4.8 L8.7,4.8 Z M13.5,4.8 L13.5,19.2 L10.2,19.2 L10.2,4.8 L13.5,4.8 Z M21.6,4.8 L21.6,19.2 L19.5,19.2 L19.5,4.8 L21.6,4.8 Z M16.8,4.8 L16.8,19.2 L15,19.2 L15,4.8 L16.8,4.8 Z M18.6,4.8 L18.6,19.2 L18,19.2 L18,4.8 L18.6,4.8 Z" id="Combined-Shape" fill="#000000" fill-rule="nonzero"></path>
    </g>
</svg>