<?xml version="1.0" encoding="UTF-8"?>
<svg width="24px" height="24px" viewBox="0 0 24 24" version="1.1" xmlns="http://www.w3.org/2000/svg" xmlns:xlink="http://www.w3.org/1999/xlink">
    <title>03. tokens/Icon/m/type : barcode_rectangle_vertex</title>
    <g id="03.-tokens/Icon/m/type-:-barcode_rectangle_vertex" stroke="none" stroke-width="1" fill="none" fill-rule="evenodd">
        <rect id="background" x="0" y="0" width="24" height="24"></rect>
        <path d="M3.75,14.7 L3.75,17.85 L6.9,17.85 L6.9,19.35 L2.25,19.35 L2.25,14.7 L3.75,14.7 Z M21.75,14.7 L21.75,19.35 L17.1,19.35 L17.1,17.85 L20.25,17.85 L20.25,14.7 L21.75,14.7 Z M18,7.5 L18,16.5 L16.8,16.5 L16.8,7.5 L18,7.5 Z M15.9,7.5 L15.9,16.5 L15,16.5 L15,7.5 L15.9,7.5 Z M14.1,7.5 L14.1,16.5 L12.6,16.5 L12.6,7.5 L14.1,7.5 Z M11.1,7.5 L11.1,16.5 L10.2,16.5 L10.2,7.5 L11.1,7.5 Z M9.627,7.5 L9.627,16.5 L8.85,16.5 L8.85,7.5 L9.627,7.5 Z M7.5,7.5 L7.5,16.5 L6,16.5 L6,7.5 L7.5,7.5 Z M6.9,4.65 L6.9,6.15 L3.75,6.15 L3.75,9.3 L2.25,9.3 L2.25,4.65 L6.9,4.65 Z M21.75,4.65 L21.75,9.3 L20.25,9.3 L20.25,6.15 L17.1,6.15 L17.1,4.65 L21.75,4.65 Z" id="Combined-Shape" fill="#000000" fill-rule="nonzero"></path>
    </g>
</svg>