<?xml version="1.0" encoding="UTF-8"?>
<svg width="24px" height="24px" viewBox="0 0 24 24" version="1.1" xmlns="http://www.w3.org/2000/svg" xmlns:xlink="http://www.w3.org/1999/xlink">
    <title>03. tokens/Icon/m/type : bed</title>
    <g id="03.-tokens/Icon/m/type-:-bed" stroke="none" stroke-width="1" fill="none" fill-rule="evenodd">
        <rect id="background" x="0" y="0" width="24" height="24"></rect>
        <path d="M5.382,3.6 L5.382,4.845 L18.617,4.845 L18.618,3.6 L20.118,3.6 L20.1181059,11.5800154 C20.4201276,11.724719 20.6973845,11.9224445 20.9355096,12.167033 C21.4687609,12.7147582 21.7618333,13.4523581 21.75,14.205 L21.75,14.205 L21.75,18.75 L20.117,18.749 L20.118,20.4 L18.618,20.4 L18.617,18.749 L5.382,18.749 L5.382,20.4 L3.882,20.4 L3.882,18.749 L2.25,18.75 L2.25026021,14.1171678 C2.26410528,13.3885779 2.55442395,12.6909441 3.06449036,12.167033 C3.30261554,11.9224445 3.57987239,11.724719 3.88189411,11.5800154 L3.882,3.6 L5.382,3.6 Z M6.09,12.798 L6.09,12.797 L5.1,12.798 L5.03554115,12.8006993 C4.69686243,12.8224713 4.37719676,12.9689984 4.13925612,13.2133975 C3.88431972,13.4752536 3.74420786,13.8278848 3.75,14.205 L3.75,14.205 L3.7497,17.25 L20.25,17.25 L20.2500913,14.1933006 C20.2554121,13.8522459 20.1337138,13.5223279 19.910191,13.2669559 L19.910191,13.2669559 L19.8607439,13.2133975 C19.6058075,12.9515414 19.2570541,12.8020382 18.9,12.798 L18.9,12.798 L17.909,12.797 L17.91,12.798 L6.09,12.798 Z M16.4068163,8.25005623 C16.8038039,8.24519479 17.1862077,8.39950093 17.4686445,8.67852111 C17.7322404,8.93892842 17.8882603,9.28772501 17.9078914,9.65584626 L17.91,9.735 L17.909,11.298 L18.617,11.298 L18.617,6.345 L5.382,6.345 L5.382,11.298 L6.09,11.298 L6.09,9.735 C6.09,9.38762856 6.21168176,9.05290586 6.43130438,8.78773941 L6.53135553,8.67852111 C6.81379228,8.39950093 7.19619609,8.24519479 7.584,8.25 L7.584,8.25 L16.4068163,8.25005623 Z M12.75,11.298 L16.41,11.298 L16.41,9.75 L12.75,9.75 L12.75,11.298 Z M7.5897,9.7497 L7.5897,11.298 L11.25,11.298 L11.25,9.75 L7.5897,9.7497 Z" id="Combined-Shape" fill="#000000" fill-rule="nonzero"></path>
    </g>
</svg>