<?xml version="1.0" encoding="UTF-8"?>
<svg width="24px" height="24px" viewBox="0 0 24 24" version="1.1" xmlns="http://www.w3.org/2000/svg" xmlns:xlink="http://www.w3.org/1999/xlink">
    <title>03. tokens/Icon/m/type : bell_slash</title>
    <g id="03.-tokens/Icon/m/type-:-bell_slash" stroke="none" stroke-width="1" fill="none" fill-rule="evenodd">
        <rect id="background" x="0" y="0" width="24" height="24"></rect>
        <path d="M12,2.55 C15.5486074,2.55 18.3926171,5.52035693 18.4491425,9.18862896 L18.45,9.3 L18.4492253,15.288 L22.1303301,18.9696699 L21.0696699,20.0303301 L19.7882253,18.749 L15.3684272,18.7491937 C15.0262883,20.294354 13.6481019,21.45 12,21.45 C10.3521686,21.45 8.97416413,20.2947333 8.63174131,18.7499545 L3.09222528,18.75 L5.25,13.3548 L5.25010307,9.2875662 C5.27372423,7.86294647 5.73127255,6.54451235 6.49710958,5.45860879 L4.86966991,3.83033009 L5.93033009,2.76966991 L7.49343136,4.33142064 C8.66041919,3.27123032 10.1960203,2.60751672 11.8889876,2.55271486 L12,2.55 Z M13.8007578,18.7495038 L10.1994779,18.7500693 C10.4933625,19.454718 11.1888416,19.95 12,19.95 C12.8113754,19.95 13.5070095,19.454453 13.8007578,18.7495038 Z M18.2882253,17.249 L7.57698852,6.53733716 C7.08434035,7.31330557 6.78667474,8.22424818 6.75254801,9.20111788 L6.75,9.3 L6.75,13.6444368 L5.3076,17.25 L18.2882253,17.249 Z M12.0124338,4.04989693 C10.6856355,4.07189614 9.47675493,4.57576542 8.55310297,5.39299605 L16.9492253,13.788 L16.95,9.3 C16.95,6.3908864 14.7366515,4.05 12.0124338,4.04989693 Z" id="Combined-Shape" fill="#000000" fill-rule="nonzero"></path>
    </g>
</svg>