<?xml version="1.0" encoding="UTF-8"?>
<svg width="24px" height="24px" viewBox="0 0 24 24" version="1.1" xmlns="http://www.w3.org/2000/svg" xmlns:xlink="http://www.w3.org/1999/xlink">
    <title>03. tokens/Icon/m/type : bell_ringing</title>
    <g id="03.-tokens/Icon/m/type-:-bell_ringing" stroke="none" stroke-width="1" fill="none" fill-rule="evenodd">
        <rect id="background" x="0" y="0" width="24" height="24"></rect>
        <path d="M12.1073157,2.55090686 C15.6414763,2.61068221 18.45,5.61786054 18.45,9.3 L18.45,9.3 L18.45,13.3338 L20.9776473,18.75 L15.3684272,18.7491937 C15.0262883,20.294354 13.6481019,21.45 12,21.45 C10.3521686,21.45 8.97416413,20.2947333 8.63174131,18.7499545 L3.09222528,18.75 L5.25,13.3548 L5.25010307,9.2875662 C5.3107613,5.62919806 8.23291939,2.67106287 11.8769231,2.55281488 L11.8769231,2.55281488 L11.9875662,2.55010307 Z M13.8004162,18.7503231 L10.199658,18.7505009 C10.4936465,19.4549202 11.1890072,19.95 12,19.95 C12.811061,19.95 13.5064705,19.4548369 13.8004162,18.7503231 Z M12.0009,4.05 L11.9131278,4.05244843 C9.07284751,4.15135137 6.79720588,6.45910438 6.75,9.3 L6.75,9.3 L6.75,13.6444368 L5.3076,17.25 L18.6222,17.25 L16.95,13.666387 L16.95,9.3 C16.95,6.3908864 14.7366515,4.05 12.0009,4.05 L12.0009,4.05 Z M19.1564336,3.09712666 C20.806895,4.92337622 21.7284952,7.29036412 21.7498436,9.74818966 L21.749982,9.90519118 L20.250018,9.89480882 C20.2644847,7.80475817 19.5129352,5.78357646 18.140335,4.21179834 L18.0435664,4.10287334 L19.1564336,3.09712666 Z M4.84356635,3.09712666 L5.95643365,4.10287334 C4.55502574,5.65354316 3.77129725,7.66246622 3.75021376,9.74910786 L3.74998203,9.89480882 L2.25001797,9.90519118 C2.23298021,7.44370387 3.11984089,5.06348185 4.73920926,3.21442581 L4.84356635,3.09712666 Z" id="Combined-Shape" fill="#000000" fill-rule="nonzero"></path>
    </g>
</svg>