<?xml version="1.0" encoding="utf-8"?>
<!-- Generator: Adobe Illustrator 25.2.1, SVG Export Plug-In . SVG Version: 6.00 Build 0)  -->
<svg version="1.1" id="레이어_1" xmlns="http://www.w3.org/2000/svg" xmlns:xlink="http://www.w3.org/1999/xlink" x="0px"
	 y="0px" viewBox="0 0 24 24" style="enable-background:new 0 0 24 24;" xml:space="preserve">
<style type="text/css">
	.st0{fill:none;}
	.st1{fill:none;stroke:#000000;stroke-width:1.2;stroke-miterlimit:10;}
</style>
<rect id="background_240_" class="st0" width="24" height="24"/>
<line class="st1" x1="7.69" y1="6.06" x2="7.69" y2="10.51"/>
<line class="st1" x1="12" y1="6.06" x2="12" y2="10.51"/>
<line class="st1" x1="16.31" y1="6.06" x2="16.31" y2="10.51"/>
<line class="st1" x1="7.69" y1="3.6" x2="7.69" y2="5.01"/>
<line class="st1" x1="12" y1="3.6" x2="12" y2="5.01"/>
<line class="st1" x1="16.31" y1="3.6" x2="16.31" y2="5.01"/>
<path class="st1" d="M4.21,13.22c1.56,0,1.56,1.56,3.11,1.56c1.56,0,1.56-1.56,3.11-1.56c1.56,0,1.56,1.56,3.11,1.56
	c1.56,0,1.56-1.56,3.12-1.56c1.56,0,1.56,1.56,3.12,1.56"/>
<path class="st1" d="M19.8,19.8H4.2v-6.75c0-1.4,1.13-2.53,2.53-2.53h10.54c1.4,0,2.53,1.13,2.53,2.53V19.8z"/>
</svg>
