<?xml version="1.0" encoding="utf-8"?>
<!-- Generator: Adobe Illustrator 25.2.1, SVG Export Plug-In . SVG Version: 6.00 Build 0)  -->
<!DOCTYPE svg PUBLIC "-//W3C//DTD SVG 1.1//EN" "http://www.w3.org/Graphics/SVG/1.1/DTD/svg11.dtd" [
	<!ENTITY st0 "fill:none;">
]>
<svg version="1.1" id="레이어_1" xmlns="http://www.w3.org/2000/svg" xmlns:xlink="http://www.w3.org/1999/xlink" x="0px"
	 y="0px" viewBox="0 0 24 24" style="enable-background:new 0 0 24 24;" xml:space="preserve">
<rect id="background_240_" style="&st0;" width="24" height="24"/>
<rect x="7.09" y="3.6" width="1.2" height="1.41"/>
<rect x="11.4" y="3.6" width="1.2" height="1.41"/>
<rect x="15.71" y="3.6" width="1.2" height="1.41"/>
<path d="M17.27,9.91h-0.36V6.06h-1.2v3.85H12.6V6.06h-1.2v3.85H8.29V6.06h-1.2v3.85H6.73C5,9.91,3.6,11.32,3.6,13.05v7.35h16.8
	v-7.35C20.4,11.32,19,9.91,17.27,9.91z M6.73,11.11h10.54c1.06,0,1.93,0.87,1.93,1.93v0.99c-0.19-0.11-0.36-0.26-0.56-0.46
	c-0.42-0.43-0.95-0.96-1.98-0.96s-1.56,0.53-1.98,0.96c-0.36,0.36-0.6,0.6-1.14,0.6c-0.53,0-0.77-0.24-1.13-0.6
	c-0.42-0.43-0.95-0.96-1.98-0.96c-1.03,0-1.56,0.53-1.98,0.96c-0.36,0.36-0.6,0.6-1.13,0.6c-0.53,0-0.77-0.24-1.13-0.6
	c-0.33-0.33-0.72-0.71-1.35-0.87C5,11.8,5.78,11.11,6.73,11.11z M4.8,19.2v-5.23c0.19,0.11,0.35,0.26,0.54,0.45
	c0.42,0.43,0.95,0.96,1.98,0.96c1.03,0,1.56-0.53,1.98-0.96c0.36-0.36,0.6-0.6,1.13-0.6c0.53,0,0.77,0.24,1.13,0.6
	c0.42,0.43,0.95,0.96,1.98,0.96c1.03,0,1.56-0.53,1.98-0.96c0.36-0.36,0.6-0.6,1.13-0.6s0.77,0.24,1.13,0.6
	c0.34,0.34,0.75,0.73,1.41,0.88v3.9H4.8z"/>
</svg>
