<?xml version="1.0" encoding="UTF-8"?>
<svg width="24px" height="24px" viewBox="0 0 24 24" version="1.1" xmlns="http://www.w3.org/2000/svg" xmlns:xlink="http://www.w3.org/1999/xlink">
    <title>03. tokens/Icon/m/type : board_clock</title>
    <g id="03.-tokens/Icon/m/type-:-board_clock" stroke="none" stroke-width="1" fill="none" fill-rule="evenodd">
        <rect id="background" x="0" y="0" width="24" height="24"></rect>
        <path d="M3.45,20.55 L3.45,4.35 L7.05,4.35 L7.05,3.45 L13.35,3.45 L13.349,4.35 L16.95,4.35 L16.950547,12.5194109 C18.8287016,12.8713505 20.25,14.5196943 20.25,16.5 C20.25,18.7367532 18.4367532,20.55 16.2,20.55 L16.2,20.55 L3.45,20.55 Z M7.05,7.05 L7.05,5.85 L4.95,5.85 L4.95,19.05 L13.0544654,19.0513089 C12.4889236,18.3549028 12.15,17.4670313 12.15,16.5 C12.15,14.5193449 13.5717999,12.8707689 15.4504471,12.5192248 L15.45,5.85 L13.349,5.85 L13.35,7.05 L7.05,7.05 Z M16.2,13.95 C14.7916739,13.95 13.65,15.0916739 13.65,16.5 C13.65,17.9083261 14.7916739,19.05 16.2,19.05 C17.6083261,19.05 18.75,17.9083261 18.75,16.5 C18.75,15.0916739 17.6083261,13.95 16.2,13.95 Z M16.95,14.4 L16.95,16.1895 L18.2303301,17.4696699 L17.1696699,18.5303301 L15.45,16.8106602 L15.45,14.4 L16.95,14.4 Z M11.85,4.95 L8.55,4.95 L8.55,5.55 L11.85,5.55 L11.85,4.95 Z" id="Combined-Shape" fill="#000000" fill-rule="nonzero"></path>
    </g>
</svg>