<?xml version="1.0" encoding="UTF-8"?>
<svg width="24px" height="24px" viewBox="0 0 24 24" version="1.1" xmlns="http://www.w3.org/2000/svg" xmlns:xlink="http://www.w3.org/1999/xlink">
    <title>03. tokens/Icon/m/type : board Copy</title>
    <g id="03.-tokens/Icon/m/type-:-board-Copy" stroke="none" stroke-width="1" fill="none" fill-rule="evenodd">
        <rect id="background" x="0" y="0" width="24" height="24"></rect>
        <path d="M16.5158946,2.25021169 C18.7331393,2.28225769 20.530054,4.07961352 20.55,6.315 L20.55,6.315 L20.55,14.1967069 C20.5297701,16.4554601 18.6843736,18.2712777 16.431,18.255 L16.431,18.255 L14.001,18.2547 L8.751,22.5925654 L8.7507,18.2547 L7.48415072,18.2546812 C5.2981278,18.2232168 3.52064805,16.4756946 3.45189654,14.2841898 L3.45189654,14.2841898 L3.45,14.19 L3.45,6.30829822 C3.47022696,4.04812921 5.31783053,2.23171484 7.5780381,2.24991192 L7.5780381,2.24991192 Z M16.428,3.74977741 L7.5659619,3.74977741 C6.1336237,3.73833146 4.96276901,4.88942108 4.94997006,6.315 L4.94997006,6.315 L4.94997006,14.1832982 C4.96276907,15.6155849 6.13361949,16.7666434 7.572,16.755 L7.572,16.755 L10.251,16.755 L10.251,19.407 L13.4612427,16.755 L16.4364112,16.7550195 C17.8678022,16.7653471 19.0372293,15.6146641 19.0500299,14.19 L19.0500299,14.19 L19.0500299,6.32170178 C19.037231,4.88942108 17.8663763,3.73833146 16.428,3.74977741 L16.428,3.74977741 Z M15.6686231,10.3472264 C15.711816,11.709172 15.0098845,12.9865605 13.8370778,13.6803082 C12.6642711,14.3740559 11.2067289,14.3740559 10.0339222,13.6803082 C8.88972051,13.0034812 8.1937047,11.7711364 8.20049232,10.4467228 L8.20237688,10.3472264 L9.70162312,10.3947736 C9.67577679,11.2097531 10.0958081,11.9741342 10.7976081,12.3892684 C11.4994081,12.8044025 12.3715919,12.8044025 13.0733919,12.3892684 C13.7509919,11.9884492 14.1659205,11.2620538 14.1704668,10.4788891 L14.1693769,10.3947736 L15.6686231,10.3472264 Z M10.356,7.269 C10.7221648,7.269 11.019,7.57120779 11.019,7.944 C11.019,8.31679221 10.7221648,8.619 10.356,8.619 C9.98983521,8.619 9.693,8.31679221 9.693,7.944 C9.693,7.57120779 9.98983521,7.269 10.356,7.269 Z M13.515,7.269 C13.8811648,7.269 14.178,7.57120779 14.178,7.944 C14.178,8.31679221 13.8811648,8.619 13.515,8.619 C13.1488352,8.619 12.852,8.31679221 12.852,7.944 C12.852,7.57120779 13.1488352,7.269 13.515,7.269 Z" id="Combined-Shape" fill="#000000" fill-rule="nonzero"></path>
    </g>
</svg>