<?xml version="1.0" encoding="UTF-8"?>
<svg width="24px" height="24px" viewBox="0 0 24 24" version="1.1" xmlns="http://www.w3.org/2000/svg" xmlns:xlink="http://www.w3.org/1999/xlink">
    <title>03. tokens/Icon/m/type : bubble_chat_fill</title>
    <g id="03.-tokens/Icon/m/type-:-bubble_chat_fill" stroke="none" stroke-width="1" fill="none" fill-rule="evenodd">
        <rect id="background" x="0" y="0" width="24" height="24"></rect>
        <path d="M19.5,3.3 L4.5,3.3 C3.34719525,3.3 2.40988118,4.2292376 2.4,5.382 L2.4,20.586 L6.474,18.021 L19.5,18.021 C20.0569546,18.021 20.5910978,17.7997506 20.9849242,17.4059242 C21.3787506,17.0120978 21.6,16.4779546 21.6,15.921 L21.6,5.382 C21.5901188,4.2292376 20.6528047,3.3 19.5,3.3 Z M8.505,11.5530185 C8.10889898,11.5554301 7.75044736,11.318695 7.59717924,10.9534406 C7.44391112,10.5881861 7.52609715,10.1665506 7.805325,9.88559908 C8.08455285,9.60464761 8.50567466,9.51986848 8.87186537,9.67088599 C9.23805608,9.82190351 9.47700464,10.1788915 9.47700464,10.575 C9.47779687,10.8335864 9.37583741,11.0818983 9.19355179,11.2653091 C9.01126616,11.44872 8.76358646,11.5522056 8.505,11.5530185 L8.505,11.5530185 Z M12,11.5530185 C11.603899,11.5554301 11.2454474,11.318695 11.0921792,10.9534406 C10.9389111,10.5881861 11.0210972,10.1665506 11.300325,9.88559908 C11.5795529,9.60464761 12.0006747,9.51986848 12.3668654,9.67088599 C12.7330561,9.82190351 12.9720046,10.1788915 12.9720046,10.575 C12.9727969,10.8335864 12.8708374,11.0818983 12.6885518,11.2653091 C12.5062662,11.44872 12.2585865,11.5522056 12,11.5530185 L12,11.5530185 Z M15.495,11.5530185 C15.098899,11.5554301 14.7404474,11.318695 14.5871792,10.9534406 C14.4339111,10.5881861 14.5160972,10.1665506 14.795325,9.88559908 C15.0745529,9.60464761 15.4956747,9.51986848 15.8618654,9.67088599 C16.2280561,9.82190351 16.467,10.1788915 16.467,10.575 C16.467,11.1128 16.0327899,11.5497006 15.495,11.5530185 L15.495,11.5530185 Z" id="Shape" fill="#000000" fill-rule="nonzero"></path>
    </g>
</svg>