<?xml version="1.0" encoding="UTF-8"?>
<svg width="24px" height="24px" viewBox="0 0 24 24" version="1.1" xmlns="http://www.w3.org/2000/svg" xmlns:xlink="http://www.w3.org/1999/xlink">
    <title>03. tokens/Icon/m/type : bubble_questionmark</title>
    <g id="03.-tokens/Icon/m/type-:-bubble_questionmark" stroke="none" stroke-width="1" fill="none" fill-rule="evenodd">
        <rect id="background" x="0" y="0" width="24" height="24"></rect>
        <path d="M16.5158946,2.25021169 C18.7331393,2.28225769 20.530054,4.07961352 20.55,6.315 L20.55,6.315 L20.55,14.1967018 C20.5297728,16.4568999 18.6821302,18.27331 16.428,18.255 L16.428,18.255 L14.0712,18.2547 L8.85,22.599817 L8.8497,18.2547 L7.48415072,18.2546812 C5.2981278,18.2232168 3.52064805,16.4756946 3.45189654,14.2841898 L3.45189654,14.2841898 L3.45,14.19 L3.45,6.30829822 C3.47022696,4.04812921 5.31783053,2.23171484 7.5780381,2.24991192 L7.5780381,2.24991192 Z M16.428,3.74977741 L7.5659619,3.74977741 C6.1336237,3.73833146 4.96276901,4.88942108 4.94997006,6.315 L4.94997006,6.315 L4.94997006,14.1832982 C4.96276907,15.6155849 6.13361949,16.7666434 7.572,16.755 L7.572,16.755 L10.35,16.755 L10.35,19.3998 L13.5287607,16.755 L16.4340838,16.7550247 C17.8663805,16.7666434 19.0372309,15.6155849 19.0500299,14.19 L19.0500299,14.19 L19.0500299,6.32170178 C19.037231,4.88942108 17.8663763,3.73833146 16.428,3.74977741 L16.428,3.74977741 Z M11.844,13.092 C12.0338834,13.0895997 12.2169007,13.1629408 12.3525793,13.2958046 C12.488258,13.4286683 12.5654194,13.610108 12.567,13.8 C12.573095,14.0937145 12.4008586,14.3619151 12.1312319,14.4785632 C11.8616052,14.5952114 11.5482022,14.5371121 11.3383041,14.3315687 C11.1284059,14.1260253 11.0637499,13.813909 11.1747204,13.5418964 C11.285691,13.2698838 11.5502223,13.0920632 11.844,13.092 Z M14.420681,8.03260995 L14.4258943,8.10728455 L14.4270009,8.14754334 C14.4272926,8.62794468 14.2700756,9.09426209 13.9948065,9.45823914 L13.9381903,9.52964386 L12.6501233,11.2020259 L12.54,11.3442 L12.54,12.066 L11.04,12.066 L11.04,11.1585 L11.0377712,11.1015 C11.0377712,11.0369898 11.0456515,10.9724796 11.0614122,10.9094331 L11.0797996,10.8469286 L11.1201139,10.728162 L11.4628097,10.2853561 L12.766718,8.59320414 C12.8574389,8.48382236 12.9121902,8.34969353 12.9243942,8.20906887 L12.9261,8.1672 L12.9238393,8.13734914 C12.8743964,7.69605025 12.503817,7.35840749 12.036733,7.34954999 L11.9824232,7.34999988 C11.554259,7.35024149 11.1797894,7.63183483 11.0578948,8.03775036 L11.0434442,8.09138799 L9.58455581,7.74261201 C9.84358337,6.65913059 10.7953251,5.88722451 11.8772975,5.85176798 L11.9547951,5.85049357 C13.2309854,5.80417163 14.3128568,6.76891244 14.420681,8.03260995 Z" id="Combined-Shape" fill="#000000" fill-rule="nonzero"></path>
    </g>
</svg>