<?xml version="1.0" encoding="UTF-8"?>
<svg width="24px" height="24px" viewBox="0 0 24 24" version="1.1" xmlns="http://www.w3.org/2000/svg" xmlns:xlink="http://www.w3.org/1999/xlink">
    <title>03. tokens/Icon/m/type : bubble</title>
    <g id="03.-tokens/Icon/m/type-:-bubble" stroke="none" stroke-width="1" fill="none" fill-rule="evenodd">
        <rect id="background" x="0" y="0" width="24" height="24"></rect>
        <path d="M14.415,3.45 L9.58787276,3.45 C6.26330976,3.5038621 3.37590086,5.75193219 2.50863227,8.96183171 L2.47825487,9.07793009 C1.71361944,12.0984292 2.91014503,15.2637371 5.44793837,17.0285115 L5.4867,17.055 L5.487,21.1916946 L9.8244,18.336 L14.415,18.336 C18.5256554,18.336 21.858,15.0036554 21.858,10.893 C21.858,6.78234461 18.5256554,3.45 14.415,3.45 Z M9.4985202,4.95281307 L9.6006,4.95 L14.415,4.95 C17.6972283,4.95 20.358,7.61077173 20.358,10.893 C20.358,14.1752283 17.6972283,16.836 14.415,16.836 L9.37528497,16.836 L6.9867,18.4083 L6.987,16.2240989 L6.6251335,16.0052427 C4.35224044,14.6306016 3.26387018,11.9173853 3.95670824,9.35308097 C4.63964861,6.8254096 6.89064566,5.04432155 9.4985202,4.95281307 Z" id="Path" fill="#000000" fill-rule="nonzero"></path>
    </g>
</svg>