<?xml version="1.0" encoding="UTF-8"?>
<svg width="24px" height="24px" viewBox="0 0 24 24" version="1.1" xmlns="http://www.w3.org/2000/svg" xmlns:xlink="http://www.w3.org/1999/xlink">
    <title>03. tokens/Icon/m/type : cake</title>
    <g id="03.-tokens/Icon/m/type-:-cake" stroke="none" stroke-width="1" fill="none" fill-rule="evenodd">
        <rect id="background" x="0" y="0" width="24" height="24"></rect>
        <path d="M8.88,6.03 L8.88,9.78 L11.28,9.78 L11.28,6.03 L12.78,6.03 L12.78,9.78 L15.18,9.78 L15.18,6.03 L16.68,6.03 L16.68,9.78 L16.83,9.78 C18.6718696,9.78 20.1766246,11.2233593 20.2748951,13.0407082 L20.28,13.23 L20.28,20.58 L3.78,20.58 L3.78,13.23 C3.78,11.3246176 5.32461761,9.78 7.23,9.78 L7.23,9.78 L7.379,9.78 L7.38,6.03 L8.88,6.03 Z M16.53,13.98 C16.2228668,13.98 16.0599926,14.0442191 15.7729953,14.3054949 L15.6723643,14.4000674 L15.5603301,14.5103301 C14.8697279,15.2009323 14.404615,15.48 13.53,15.48 C12.6866212,15.48 12.2240168,15.2205098 11.5728291,14.5827545 L11.4420893,14.4531692 L11.3360328,14.3508883 C11.0176593,14.0515528 10.8541961,13.98 10.53,13.98 C10.2228668,13.98 10.0599926,14.0442191 9.77299534,14.3054949 L9.67236431,14.4000674 L9.56033009,14.5103301 C8.86972787,15.2009323 8.40461504,15.48 7.53,15.48 C6.68662121,15.48 6.2240168,15.2205098 5.57282909,14.5827545 L5.44208935,14.4531692 L5.33603283,14.3508883 L5.28,14.3 L5.2797,19.0797 L18.7797,19.0797 L18.7794282,15.3853405 C18.35025,15.2598192 18.002613,15.003673 17.5728291,14.5827545 L17.4420893,14.4531692 L17.3360328,14.3508883 C17.0176593,14.0515528 16.8541961,13.98 16.53,13.98 Z M16.83,11.28 L7.23,11.28 C6.3709021,11.28 5.64156085,11.8355543 5.38163924,12.6069998 C5.76628668,12.7425146 6.09200572,12.9902316 6.48717091,13.3772455 L6.61791065,13.5068308 L6.72396717,13.6091117 C7.04234065,13.9084472 7.2058039,13.98 7.53,13.98 C7.83713315,13.98 8.00000745,13.9157809 8.28700466,13.6545051 L8.38763569,13.5599326 L8.49966991,13.4496699 C9.19027213,12.7590677 9.65538496,12.48 10.53,12.48 C11.3733788,12.48 11.8359832,12.7394902 12.4871709,13.3772455 L12.6179107,13.5068308 L12.7239672,13.6091117 C13.0423407,13.9084472 13.2058039,13.98 13.53,13.98 C13.8371332,13.98 14.0000074,13.9157809 14.2870047,13.6545051 L14.3876357,13.5599326 L14.4996699,13.4496699 C15.1902721,12.7590677 15.655385,12.48 16.53,12.48 C17.3733788,12.48 17.8359832,12.7394902 18.4871709,13.3772455 L18.6179107,13.5068308 L18.7239672,13.6091117 L18.78,13.66 L18.78,13.23 C18.78,12.2266255 18.0221779,11.4002499 17.0476734,11.2920128 L16.8999402,11.2812309 L16.83,11.28 Z M12.78,3.63 L12.78,5.13 L11.28,5.13 L11.28,3.63 L12.78,3.63 Z M16.68,3.63 L16.68,5.13 L15.18,5.13 L15.18,3.63 L16.68,3.63 Z M8.88,3.63 L8.88,5.13 L7.38,5.13 L7.38,3.63 L8.88,3.63 Z" id="Combined-Shape" fill="#000000" fill-rule="nonzero"></path>
    </g>
</svg>