<?xml version="1.0" encoding="UTF-8"?>
<svg width="24px" height="24px" viewBox="0 0 24 24" version="1.1" xmlns="http://www.w3.org/2000/svg" xmlns:xlink="http://www.w3.org/1999/xlink">
    <title>03. tokens/Icon/m/type : calendar_dots</title>
    <g id="03.-tokens/Icon/m/type-:-calendar_dots" stroke="none" stroke-width="1" fill="none" fill-rule="evenodd">
        <rect id="background" x="0" y="0" width="24" height="24"></rect>
        <path d="M21.15,3.75 L21.15,20.25 L2.85,20.25 L2.85,3.75 L21.15,3.75 Z M19.65,8.55 L4.35,8.55 L4.35,18.75 L19.65,18.75 L19.65,8.55 Z M8.4,14.4 L8.4,16.2 L6.6,16.2 L6.6,14.4 L8.4,14.4 Z M12.9,14.4 L12.9,16.2 L11.1,16.2 L11.1,14.4 L12.9,14.4 Z M17.4,14.4 L17.4,16.2 L15.6,16.2 L15.6,14.4 L17.4,14.4 Z M8.4,10.5 L8.4,12.3 L6.6,12.3 L6.6,10.5 L8.4,10.5 Z M12.9,10.5 L12.9,12.3 L11.1,12.3 L11.1,10.5 L12.9,10.5 Z M17.4,10.5 L17.4,12.3 L15.6,12.3 L15.6,10.5 L17.4,10.5 Z M19.65,5.25 L17.85,5.25 L17.85,7.05 L19.65,7.05 L19.65,5.25 Z M6.15,5.25 L4.35,5.25 L4.35,7.05 L6.15,7.05 L6.15,5.25 Z M16.35,5.25 L7.65,5.25 L7.65,7.05 L16.35,7.05 L16.35,5.25 Z" id="Combined-Shape" fill="#000000" fill-rule="nonzero"></path>
    </g>
</svg>