<?xml version="1.0" encoding="UTF-8"?>
<svg width="24px" height="24px" viewBox="0 0 24 24" version="1.1" xmlns="http://www.w3.org/2000/svg" xmlns:xlink="http://www.w3.org/1999/xlink">
    <title>03. tokens/Icon/m/type : calendar_arrow_right</title>
    <g id="03.-tokens/Icon/m/type-:-calendar_arrow_right" stroke="none" stroke-width="1" fill="none" fill-rule="evenodd">
        <rect id="background" x="0" y="0" width="24" height="24"></rect>
        <path d="M21.15,3.75 L21.15,20.25 L2.85,20.25 L2.85,3.75 L21.15,3.75 Z M19.65,8.55 L4.35,8.55 L4.35,18.75 L19.65,18.75 L19.65,8.55 Z M13.1574706,9.99827645 L16.3090218,13.5 L13.1574706,17.0017235 L12.0425294,15.9982765 L13.615,14.25 L8.1,14.25 L8.1,12.75 L13.615,12.75 L12.0425294,11.0017235 L13.1574706,9.99827645 Z M19.65,5.25 L17.85,5.25 L17.85,7.05 L19.65,7.05 L19.65,5.25 Z M6.15,5.25 L4.35,5.25 L4.35,7.05 L6.15,7.05 L6.15,5.25 Z M16.35,5.25 L7.65,5.25 L7.65,7.05 L16.35,7.05 L16.35,5.25 Z" id="Combined-Shape" fill="#000000" fill-rule="nonzero"></path>
    </g>
</svg>