<?xml version="1.0" encoding="UTF-8"?>
<svg width="24px" height="24px" viewBox="0 0 24 24" version="1.1" xmlns="http://www.w3.org/2000/svg" xmlns:xlink="http://www.w3.org/1999/xlink">
    <title>03. tokens/Icon/m/type : calendar_time</title>
    <g id="03.-tokens/Icon/m/type-:-calendar_time" stroke="none" stroke-width="1" fill="none" fill-rule="evenodd">
        <rect id="background" x="0" y="0" width="24" height="24"></rect>
        <path d="M19.35,3.75 L19.35126,11.0103733 C21.5621568,11.3695056 23.25,13.2876444 23.25,15.6 C23.25,18.1681241 21.1681241,20.25 18.6,20.25 L18.6,20.25 L1.05,20.25 L1.05,3.75 L19.35,3.75 Z M17.85,8.55 L2.55,8.55 L2.55,18.75 L15.1803096,18.750943 C14.416524,17.9224327 13.95,16.8156976 13.95,15.6 C13.95,13.2872964 15.6383512,11.3689283 17.8497382,11.0102113 L17.85,8.55 Z M18.6,12.45 C16.860303,12.45 15.45,13.860303 15.45,15.6 C15.45,17.339697 16.860303,18.75 18.6,18.75 C20.339697,18.75 21.75,17.339697 21.75,15.6 C21.75,13.860303 20.339697,12.45 18.6,12.45 Z M19.35,13.2 L19.35,15.3285 L20.676166,16.9198617 L19.523834,17.8801383 L17.85,15.8715375 L17.85,13.2 L19.35,13.2 Z M17.85,5.25 L16.05,5.25 L16.05,7.05 L17.85,7.05 L17.85,5.25 Z M4.35,5.25 L2.55,5.25 L2.55,7.05 L4.35,7.05 L4.35,5.25 Z M14.55,5.25 L5.85,5.25 L5.85,7.05 L14.55,7.05 L14.55,5.25 Z" id="Combined-Shape" fill="#000000" fill-rule="nonzero"></path>
    </g>
</svg>