<?xml version="1.0" encoding="UTF-8"?>
<svg width="24px" height="24px" viewBox="0 0 24 24" version="1.1" xmlns="http://www.w3.org/2000/svg" xmlns:xlink="http://www.w3.org/1999/xlink">
    <title>03. tokens/Icon/m/type : camera</title>
    <g id="03.-tokens/Icon/m/type-:-camera" stroke="none" stroke-width="1" fill="none" fill-rule="evenodd">
        <rect id="background" x="0" y="0" width="24" height="24"></rect>
        <path d="M16.2,3.45 C18.6024387,3.45 20.55,5.39756134 20.55,7.8 L20.55,7.8 L20.55,16.2 C20.55,18.6024387 18.6024387,20.55 16.2,20.55 L16.2,20.55 L7.8,20.55 C5.39756134,20.55 3.45,18.6024387 3.45,16.2 L3.45,16.2 L3.45,7.8 C3.45,5.39756134 5.39756134,3.45 7.8,3.45 L7.8,3.45 Z M16.2,4.95 L7.8,4.95 C6.22598846,4.95 4.95,6.22598846 4.95,7.8 L4.95,7.8 L4.95,16.2 C4.95,17.7740115 6.22598846,19.05 7.8,19.05 L7.8,19.05 L16.2,19.05 C17.7740115,19.05 19.05,17.7740115 19.05,16.2 L19.05,16.2 L19.05,7.8 C19.05,6.22598846 17.7740115,4.95 16.2,4.95 L16.2,4.95 Z M12,7.05 C14.7338095,7.05 16.95,9.26619049 16.95,12 C16.95,14.7338095 14.7338095,16.95 12,16.95 C9.26619049,16.95 7.05,14.7338095 7.05,12 C7.05,9.26619049 9.26619049,7.05 12,7.05 Z M12,8.55 C10.0946176,8.55 8.55,10.0946176 8.55,12 C8.55,13.9053824 10.0946176,15.45 12,15.45 C13.9053824,15.45 15.45,13.9053824 15.45,12 C15.45,10.0946176 13.9053824,8.55 12,8.55 Z M12,9.45 L12,10.95 C11.439431,10.95 10.9814621,11.3892833 10.9515537,11.9423894 L10.95,12 L9.45,12 C9.45,10.6172798 10.5505359,9.49160356 11.9234519,9.45112698 L12,9.45 Z" id="Combined-Shape" fill="#000000" fill-rule="nonzero"></path>
    </g>
</svg>