<svg xmlns="http://www.w3.org/2000/svg" width="23" height="68" viewBox="0 0 23 68">
    <g fill="none" fill-rule="evenodd" opacity=".101">
        <g fill="#222" fill-rule="nonzero">
            <g>
                <g>
                    <path d="M88.703 48.137c1.135 0 2.044-.298 2.728-.892.683-.595 1.075-1.423 1.175-2.485h-1.722c-.091.71-.308 1.219-.65 1.524-.341.306-.852.458-1.53.458-.744 0-1.308-.282-1.693-.847-.385-.566-.577-1.386-.577-2.461v-.882c.009-1.062.215-1.868.618-2.417.404-.549.981-.823 1.733-.823.647 0 1.138.158 1.473.475.335.316.544.832.626 1.548h1.722c-.109-1.09-.499-1.932-1.168-2.53-.67-.596-1.555-.895-2.653-.895-.816 0-1.535.194-2.157.581-.622.388-1.099.939-1.432 1.655-.332.715-.499 1.542-.499 2.481v.93c.014.916.185 1.72.513 2.413.328.692.794 1.227 1.398 1.603.604.376 1.302.564 2.095.564zm7.974 0c.766 0 1.413-.276 1.942-.827.054.319.118.549.191.69h1.695v-.116c-.186-.397-.28-.928-.28-1.593v-3.336c-.013-.788-.278-1.4-.793-1.835-.515-.436-1.205-.653-2.071-.653-.57 0-1.086.1-1.548.3-.463.201-.829.478-1.098.831-.268.353-.403.733-.403 1.138h1.661c0-.291.121-.532.363-.72.241-.19.551-.285.93-.285.437 0 .763.116.977.346.214.23.321.536.321.92v.484h-1.018c-1.09 0-1.927.211-2.513.633-.585.421-.878 1.026-.878 1.815 0 .624.235 1.148.704 1.572.47.424 1.076.636 1.818.636zm.308-1.333c-.356 0-.64-.095-.851-.284-.212-.19-.318-.443-.318-.762 0-.392.155-.695.465-.91.31-.214.772-.32 1.388-.32h.895v1.394c-.146.269-.363.483-.653.642-.29.16-.598.24-.926.24zM104.023 48v-5.059c.264-.583.777-.875 1.538-.875.232 0 .458.019.676.055l.007-1.559c-.155-.063-.35-.095-.588-.095-.71 0-1.266.321-1.668.964l-.04-.827h-1.586V48h1.66zm6.128.137c.83 0 1.493-.301 1.99-.903l.081.766h1.504V37.5h-1.66v3.787c-.484-.547-1.117-.82-1.901-.82-.889 0-1.597.345-2.126 1.035-.529.69-.793 1.606-.793 2.745 0 1.199.268 2.147.803 2.844.536.697 1.236 1.046 2.102 1.046zm.424-1.354c-.533 0-.944-.21-1.234-.632-.29-.422-.434-1.008-.434-1.76 0-.857.146-1.499.438-1.925.291-.426.706-.639 1.244-.639.679 0 1.17.296 1.476.889v3.158c-.314.606-.811.91-1.49.91zM86.741 60v-3.698H88.8c1.153 0 2.05-.271 2.69-.814.64-.542.96-1.3.96-2.276 0-.953-.327-1.718-.98-2.297-.655-.579-1.538-.868-2.65-.868h-3.807V60h1.73zm2.078-5.086h-2.078v-3.473h2.126c.574.01 1.026.175 1.354.496.328.321.492.75.492 1.289 0 .546-.162.965-.485 1.254-.324.29-.793.434-1.409.434zM95.857 60v-5.059c.264-.583.777-.875 1.538-.875.233 0 .458.019.677.055l.007-1.559c-.155-.063-.351-.095-.588-.095-.711 0-1.267.321-1.668.964l-.041-.827h-1.586V60h1.661zm6.552.137c.684 0 1.287-.158 1.808-.472.522-.314.923-.759 1.204-1.333.28-.574.42-1.226.42-1.955l-.007-.39c-.05-1.062-.386-1.914-1.008-2.556-.622-.643-1.432-.964-2.43-.964-.675 0-1.272.156-1.791.468-.52.312-.923.759-1.21 1.34-.287.581-.43 1.234-.43 1.958v.082c0 1.158.312 2.084.939 2.78.627.694 1.462 1.042 2.505 1.042zm0-1.326c-.56 0-.998-.216-1.312-.646-.315-.431-.472-1.027-.472-1.788 0-.857.16-1.5.479-1.931.319-.43.75-.646 1.292-.646.551 0 .987.219 1.309.656.321.438.482 1.03.482 1.777 0 .843-.156 1.484-.469 1.921-.312.438-.748.657-1.309.657zM109.304 60v-5.36c.278-.542.75-.813 1.415-.813.865 0 1.31.435 1.333 1.306V60h1.66l-.006-5.072c.096-.328.263-.594.502-.797.24-.202.548-.304.927-.304.474 0 .813.11 1.018.328.205.219.308.563.308 1.032V60h1.66v-4.86c-.008-.88-.212-1.545-.61-1.996-.4-.452-1.007-.677-1.823-.677-.975 0-1.731.378-2.27 1.135-.364-.757-1.04-1.135-2.03-1.135-.902 0-1.613.303-2.132.909l-.048-.772h-1.566V60h1.662zm14.058.137c.683 0 1.286-.158 1.808-.472.522-.314.923-.759 1.203-1.333s.42-1.226.42-1.955l-.006-.39c-.05-1.062-.387-1.914-1.009-2.556-.622-.643-1.432-.964-2.43-.964-.674 0-1.271.156-1.791.468-.52.312-.923.759-1.21 1.34-.287.581-.43 1.234-.43 1.958v.082c0 1.158.313 2.084.94 2.78.626.694 1.461 1.042 2.505 1.042zm0-1.326c-.56 0-.998-.216-1.313-.646-.314-.431-.471-1.027-.471-1.788 0-.857.159-1.5.478-1.931.32-.43.75-.646 1.292-.646.551 0 .988.219 1.31.656.32.438.481 1.03.481 1.777 0 .843-.156 1.484-.468 1.921-.312.438-.749.657-1.31.657zm7.57 1.326c.352 0 .716-.053 1.094-.158v-1.285c-.196.046-.39.069-.58.069-.288 0-.487-.063-.599-.188-.111-.126-.167-.33-.167-.612v-4.129h1.305v-1.23h-1.305v-1.798h-1.661v1.798h-1.217v1.23h1.217v4.19c0 1.409.638 2.113 1.914 2.113zm3.661-8.58c.301 0 .534-.083.698-.249.164-.166.246-.375.246-.625 0-.256-.082-.468-.246-.636-.164-.169-.397-.253-.698-.253-.3 0-.532.084-.693.253-.162.168-.243.38-.243.636 0 .25.08.459.243.625.161.166.393.25.693.25zm.828 8.443v-7.396h-1.662V60h1.662zm5.342.137c.683 0 1.286-.158 1.808-.472.522-.314.923-.759 1.203-1.333s.42-1.226.42-1.955l-.006-.39c-.05-1.062-.387-1.914-1.009-2.556-.622-.643-1.432-.964-2.43-.964-.674 0-1.271.156-1.79.468-.52.312-.924.759-1.21 1.34-.288.581-.431 1.234-.431 1.958v.082c0 1.158.313 2.084.94 2.78.626.694 1.461 1.042 2.505 1.042zm0-1.326c-.56 0-.998-.216-1.313-.646-.314-.431-.471-1.027-.471-1.788 0-.857.16-1.5.478-1.931.32-.43.75-.646 1.292-.646.552 0 .988.219 1.31.656.32.438.481 1.03.481 1.777 0 .843-.156 1.484-.468 1.921-.312.438-.749.657-1.31.657zM147.637 60v-5.264c.328-.606.827-.909 1.497-.909.46 0 .791.113.994.339.203.225.304.573.304 1.042V60h1.662v-4.888c-.028-1.763-.812-2.645-2.352-2.645-.889 0-1.606.33-2.153.991l-.048-.854h-1.566V60h1.662z" transform="translate(-320 -87) translate(15 35) translate(198 37) rotate(90 118.395 48.818)"/>
                </g>
            </g>
        </g>
    </g>
</svg>
