<?xml version="1.0" encoding="UTF-8"?>
<svg width="24px" height="24px" viewBox="0 0 24 24" version="1.1" xmlns="http://www.w3.org/2000/svg" xmlns:xlink="http://www.w3.org/1999/xlink">
    <title>03. tokens/Icon/m/type : card_lock</title>
    <g id="03.-tokens/Icon/m/type-:-card_lock" stroke="none" stroke-width="1" fill="none" fill-rule="evenodd">
        <rect id="background" x="0" y="0" width="24" height="24"></rect>
        <path d="M16.5,4.95 C17.7182752,4.95 18.7104053,5.91824232 18.7488439,7.12718068 L18.75,7.2 L18.7510281,9.87839295 C19.6026553,10.179868 20.2187147,10.9795847 20.2488439,11.9271807 L20.25,12 L20.25,12.449 L21.75,12.45 L21.75,18.75 L14.25,18.75 L14.25,16.65 L4.5,16.65 C3.28172482,16.65 2.28959474,15.6817577 2.25115607,14.4728193 L2.25,14.4 L2.25,7.2 C2.25,5.98172482 3.21824232,4.98959474 4.42718068,4.95115607 L4.5,4.95 L16.5,4.95 Z M20.25,13.95 L15.75,13.95 L15.75,17.25 L20.25,17.25 L20.25,13.95 Z M18.75,14.7 L18.75,16.5 L17.25,16.5 L17.25,14.7 L18.75,14.7 Z M17.25,9.449 L3.75,9.449 L3.75,14.4 C3.75,14.797645 4.05946078,15.1230116 4.45068729,15.1484047 L4.5,15.15 L14.25,15.15 L14.25,12.45 L15.75,12.449 L15.75,12 C15.75,11.0200499 16.3764713,10.18642 17.2507654,9.87775892 L17.25,9.449 Z M18,11.25 C17.602355,11.25 17.2769884,11.5594608 17.2515953,11.9506873 L17.25,12 L17.25,12.449 L18.75,12.449 L18.75,12 C18.75,11.5857864 18.4142136,11.25 18,11.25 Z M16.5,6.45 L4.5,6.45 C4.10235498,6.45 3.7769884,6.75946078 3.7515953,7.15068729 L3.75,7.2 L3.75,7.949 L17.25,7.949 L17.25,7.2 C17.25,6.80235498 16.9405392,6.4769884 16.5493127,6.4515953 L16.5,6.45 Z" id="Combined-Shape" fill="#000000" fill-rule="nonzero"></path>
    </g>
</svg>