<?xml version="1.0" encoding="UTF-8"?>
<svg width="24px" height="24px" viewBox="0 0 24 24" version="1.1" xmlns="http://www.w3.org/2000/svg" xmlns:xlink="http://www.w3.org/1999/xlink">
    <title>03. tokens/Icon/m/type : card</title>
    <g id="03.-tokens/Icon/m/type-:-card" stroke="none" stroke-width="1" fill="none" fill-rule="evenodd">
        <rect id="background" x="0" y="0" width="24" height="24"></rect>
        <path d="M19.2,4.95 C20.6083261,4.95 21.75,6.09167389 21.75,7.5 L21.75,7.5 L21.75,16.2 C21.75,17.6083261 20.6083261,18.75 19.2,18.75 L19.2,18.75 L4.8,18.75 C3.39167389,18.75 2.25,17.6083261 2.25,16.2 L2.25,16.2 L2.25,7.5 C2.25,6.09167389 3.39167389,4.95 4.8,4.95 L4.8,4.95 Z M20.25,10.05 L3.75,10.05 L3.75,16.2 C3.75,16.7412391 4.15951022,17.1868319 4.68559093,17.2438387 L4.8,17.25 L19.2,17.25 C19.779899,17.25 20.25,16.779899 20.25,16.2 L20.25,16.2 L20.25,10.05 Z M19.2,6.45 L4.8,6.45 C4.22010101,6.45 3.75,6.92010101 3.75,7.5 L3.75,7.5 L3.75,8.55 L20.25,8.55 L20.25,7.5 C20.25,6.95876095 19.8404898,6.51316813 19.3144091,6.45616126 L19.2,6.45 Z" id="Combined-Shape" fill="#000000" fill-rule="nonzero"></path>
    </g>
</svg>