<?xml version="1.0" encoding="utf-8"?>
<!-- Generator: Adobe Illustrator 24.1.2, SVG Export Plug-In . SVG Version: 6.00 Build 0)  -->
<svg version="1.1" id="Layer_1" xmlns="http://www.w3.org/2000/svg" xmlns:xlink="http://www.w3.org/1999/xlink" x="0px" y="0px"
	 viewBox="0 0 20 20" style="enable-background:new 0 0 20 20;" xml:space="preserve">
<style type="text/css">
	.st0{fill:none;}
</style>
<rect id="background" class="st0" width="20" height="20"/>
<path d="M15.9,13L18,6.1l-1-0.3L16.7,7H5.4L4.2,3H1v1h2.4l2.7,9H15.9z M16.4,8l-1.2,4H6.9L5.7,8H16.4z"/>
<path d="M7,14c-1.1,0-2,0.9-2,2s0.9,2,2,2s2-0.9,2-2S8.1,14,7,14z M7,17c-0.6,0-1-0.4-1-1s0.4-1,1-1s1,0.4,1,1S7.6,17,7,17z"/>
<path d="M15,14c-1.1,0-2,0.9-2,2s0.9,2,2,2s2-0.9,2-2S16.1,14,15,14z M15,17c-0.6,0-1-0.4-1-1s0.4-1,1-1s1,0.4,1,1S15.6,17,15,17z"
	/>
</svg>
