<?xml version="1.0" encoding="UTF-8"?>
<svg width="24px" height="24px" viewBox="0 0 24 24" version="1.1" xmlns="http://www.w3.org/2000/svg" xmlns:xlink="http://www.w3.org/1999/xlink">
    <title>03. tokens/Icon/m/type : chat_individual</title>
    <g id="03.-tokens/Icon/m/type-:-chat_individual" stroke="none" stroke-width="1" fill="none" fill-rule="evenodd">
        <rect id="background" x="0" y="0" width="24" height="24"></rect>
        <path d="M21.75,3.45 L21.75,18.45 L6.8268,18.45 L2.25,21.5013878 L2.25,3.45 L21.75,3.45 Z M20.25,4.95 L3.75,4.95 L3.75,18.6984 L6.37291827,16.95 L20.25,16.95 L20.25,4.95 Z M9.033,7.68 L9.033,14.022 L7.683,14.022 L7.683,9.084 L6.6,9.354 L6.3,8.22 L8.1,7.68 L9.033,7.68 Z M17.31,7.68 L17.31,14.022 L15.96,14.022 L15.96,9.084 L14.877,9.354 L14.577,8.22 L16.377,7.68 L17.31,7.68 Z M12.327,12.006 C12.6600277,12.006 12.93,12.2800017 12.93,12.618 C12.93,12.9559983 12.6600277,13.23 12.327,13.23 C11.9939723,13.23 11.724,12.9559983 11.724,12.618 C11.724,12.2800017 11.9939723,12.006 12.327,12.006 Z M12.327,8.946 C12.6600277,8.946 12.93,9.22000173 12.93,9.558 C12.93,9.89599827 12.6600277,10.17 12.327,10.17 C11.9939723,10.17 11.724,9.89599827 11.724,9.558 C11.724,9.22000173 11.9939723,8.946 12.327,8.946 Z" id="Combined-Shape" fill="#000000" fill-rule="nonzero"></path>
    </g>
</svg>