<?xml version="1.0" encoding="UTF-8"?>
<svg width="24px" height="24px" viewBox="0 0 24 24" version="1.1" xmlns="http://www.w3.org/2000/svg" xmlns:xlink="http://www.w3.org/1999/xlink">
    <title>03. tokens/Icon/m/type : chat_24h</title>
    <g id="03.-tokens/Icon/m/type-:-chat_24h" stroke="none" stroke-width="1" fill="none" fill-rule="evenodd">
        <rect id="background" x="0" y="0" width="24" height="24"></rect>
        <path d="M21.75,3.45 L21.75,18.45 L6.8268,18.45 L2.25,21.5013878 L2.25,3.45 L21.75,3.45 Z M20.25,4.95 L3.75,4.95 L3.75,18.6984 L6.37291827,16.95 L20.25,16.95 L20.25,4.95 Z M15.525,8.37 L15.525,10.2 C15.7572314,9.84129884 16.153712,9.62278396 16.581,9.618 C17.355,9.618 17.805,10.134 17.805,10.968 L17.805,13.326 L16.782,13.326 L16.782,11.298 C16.782,10.809 16.554,10.557 16.164,10.557 C15.774,10.557 15.525,10.809 15.525,11.298 L15.525,13.329 L14.499,13.329 L14.499,8.37 L15.525,8.37 Z M13.359,8.541 L13.359,11.454 L13.98,11.454 L13.98,12.3 L13.347,12.3 L13.347,13.326 L12.36,13.326 L12.36,12.3 L10.056,12.3 L9.9,11.562 L12.486,8.541 L13.359,8.541 Z M7.971,8.496 C8.89183333,8.496 9.51831481,9.0124537 9.58508179,9.81790741 L9.591,9.963 C9.591,10.758 9.189,11.163 8.355,11.805 L7.587,12.405 L9.639,12.405 L9.639,13.305 L6.153,13.305 L6.153,12.501 L7.722,11.202 C8.322,10.713 8.535,10.455 8.535,10.062 C8.54726886,9.8919521 8.48396915,9.7251402 8.36197785,9.60603968 C8.23998654,9.48693916 8.07170483,9.42765736 7.902,9.444 C7.539,9.444 7.302,9.648 6.939,10.083 L6.213,9.483 C6.678,8.844 7.128,8.496 7.971,8.496 Z M12.36,9.972 L11.1,11.454 L12.36,11.451 L12.36,9.972 Z" id="Combined-Shape" fill="#000000" fill-rule="nonzero"></path>
    </g>
</svg>