<?xml version="1.0" encoding="UTF-8"?>
<svg width="24px" height="24px" viewBox="0 0 24 24" version="1.1" xmlns="http://www.w3.org/2000/svg" xmlns:xlink="http://www.w3.org/1999/xlink">
    <title>03. tokens/Icon/m/type : chat_qanda</title>
    <g id="03.-tokens/Icon/m/type-:-chat_qanda" stroke="none" stroke-width="1" fill="none" fill-rule="evenodd">
        <rect id="background" x="0" y="0" width="24" height="24"></rect>
        <path d="M21.75,3.45 L21.75,18.45 L6.8268,18.45 L2.25,21.5013878 L2.25,3.45 L21.75,3.45 Z M20.25,4.95 L3.75,4.95 L3.75,18.6984 L6.37291827,16.95 L20.25,16.95 L20.25,4.95 Z M9.21952898,9.28456986 C9.58591655,9.63686561 9.81052171,10.1084273 9.85558924,10.610476 L9.864,10.8 C9.86800802,11.2276303 9.74136288,11.6462919 9.501,12 L9.924,12.36 L9.345,13.008 L8.892,12.6 C8.52609763,12.8319473 8.10121625,12.9537883 7.668,12.951 C7.09612988,12.9747123 6.53935846,12.7639759 6.12650939,12.3675502 C5.75953244,12.0151718 5.53453858,11.5432181 5.48941565,11.0407022 L5.481,10.851 C5.47410984,10.2700324 5.70517782,9.71153329 6.12052089,9.30525636 C6.53586397,8.89897944 7.09932591,8.68029172 7.68,8.7 C8.25136132,8.67712706 8.80734296,8.88823715 9.21952898,9.28456986 Z M12,8.7 C12.6524,8.7 13.0983467,9.09722667 13.1549067,9.61849956 L13.161,9.732 C13.161,10.284 12.807,10.605 12.294,10.806 L12.843,11.349 C12.978,11.139 13.113,10.899 13.242,10.647 L13.908,11.01 C13.7478477,11.3115449 13.5663871,11.6012803 13.365,11.877 L13.965,12.477 L13.299,12.939 L12.831,12.486 C12.497654,12.775364 12.0723907,12.9369641 11.631,12.942 C10.8913125,12.942 10.320375,12.5412188 10.2518972,11.878084 L10.245,11.742 C10.246576,11.2344387 10.5673141,10.7827625 11.046,10.614 C10.8907252,10.4187423 10.791741,10.1858916 10.758199,9.94052281 L10.746,9.792 C10.749,9.225 11.205,8.7 12,8.7 Z M16.737,8.748 L18.51,12.9 L17.562,12.9 L17.184,11.979 L15.441,11.979 L15.063,12.9 L14.136,12.9 L15.9,8.748 L16.737,8.748 Z M11.535,11.172 C11.3456295,11.244739 11.2080749,11.4070701 11.1646641,11.6007924 L11.151,11.7 C11.1581561,11.8422331 11.224457,11.9749954 11.3338617,12.066166 C11.4432664,12.1573365 11.5858082,12.1986098 11.727,12.18 C11.9437347,12.1778736 12.1536633,12.1040294 12.324,11.97 L11.535,11.172 Z M7.668,9.54898046 C7.33145907,9.54710698 7.00876937,9.68286115 6.77479396,9.92476793 C6.57424361,10.1321166 6.45381161,10.402008 6.43174923,10.6866632 L6.429,10.83 C6.41761218,11.1690015 6.54436899,11.4980962 6.7802226,11.7418682 C7.01607622,11.9856401 7.34080734,12.1231912 7.68,12.1230178 C7.86705699,12.1240104 8.05183328,12.0819225 8.22,12 L7.548,11.433 L8.127,10.8 L8.805,11.4 C8.86019593,11.2666035 8.89521383,11.1260128 8.90913926,10.9828495 L8.916,10.839 C8.92654199,10.5010296 8.79982271,10.1731856 8.56471423,9.93016484 C8.32960575,9.68714406 8.00613411,9.5496465 7.668,9.54898046 Z M16.305,9.834 L15.759,11.166 L16.854,11.166 L16.305,9.834 Z M11.982,9.42 C11.8713653,9.41536729 11.7640456,9.45834802 11.6871935,9.53806779 C11.6295543,9.59785762 11.5931946,9.67401722 11.5822794,9.7549313 L11.58,9.837 C11.5888231,10.0328353 11.6764671,10.2167794 11.823,10.347 C12.143,10.2296667 12.3255185,10.0957407 12.3621276,9.88622634 L12.369,9.804 C12.3752785,9.69982747 12.3364179,9.59799209 12.2623366,9.52448501 C12.1882552,9.45097794 12.0861205,9.41291103 11.982,9.42 Z" id="Combined-Shape" fill="#000000" fill-rule="nonzero"></path>
    </g>
</svg>