<?xml version="1.0" encoding="UTF-8"?>
<svg width="24px" height="24px" viewBox="0 0 24 24" version="1.1" xmlns="http://www.w3.org/2000/svg" xmlns:xlink="http://www.w3.org/1999/xlink">
    <title>03. tokens/Icon/m/type : chat_domestic</title>
    <g id="03.-tokens/Icon/m/type-:-chat_domestic" stroke="none" stroke-width="1" fill="none" fill-rule="evenodd">
        <rect id="background" x="0" y="0" width="24" height="24"></rect>
        <path d="M21.45,3.45 L21.45,18.45 L6.8268,18.45 L2.25,21.5013878 L2.25,3.45 L21.45,3.45 Z M19.95,4.95 L3.75,4.95 L3.75,18.6984 L6.37291827,16.95 L19.95,16.95 L19.95,4.95 Z M11.7,8.718 C12.2992513,8.69759898 12.8809699,8.92211663 13.3111304,9.33982508 C13.6982748,9.71576268 13.9326072,10.2190048 13.9735913,10.7529964 L13.980036,10.932 C13.9834223,11.5339269 13.7429276,12.1115808 13.313356,12.5332393 C12.8837843,12.9548978 12.3017592,13.184612 11.7,13.17 C11.0992179,13.1929105 10.5151322,12.9695082 10.0829855,12.551521 C9.69405357,12.1753326 9.45854944,11.6708929 9.41741795,11.1354834 L9.41096261,10.956 C9.40750436,10.3524698 9.64922627,9.77338892 10.0807742,9.35145607 C10.5123222,8.92952321 11.0967017,8.70090855 11.7,8.718 Z M6.522,8.793 L6.522,10.674 L8.271,8.793 L9.414,8.793 L7.662,10.617 L9.495,13.098 L8.355,13.098 L7.023,11.265 L6.522,11.781 L6.522,13.098 L5.577,13.098 L5.577,8.793 L6.522,8.793 Z M17.922,9.228 C18.1369944,9.45125963 18.2677181,9.74032306 18.2950428,10.046003 L18.3,10.2 C18.3284247,10.8015597 17.9514559,11.3479804 17.379,11.535 L18.429,13.074 L17.316,13.074 L16.395,11.694 L15.651,11.694 L15.651,13.074 L14.7,13.074 L14.7,8.793 L16.668,8.793 C17.1274733,8.76358511 17.5794444,8.92036938 17.922,9.228 Z M11.7,9.59999376 C11.348328,9.59890715 11.0114538,9.74143688 10.767355,9.99459733 C10.5581275,10.211592 10.4326091,10.4937416 10.4097732,10.7912162 L10.407,10.941 C10.393203,11.2940637 10.5228314,11.6376908 10.7663824,11.8936737 C11.0099334,12.1496565 11.3466871,12.2962175 11.7,12.3 C12.0530024,12.3028155 12.3916649,12.1605083 12.6367043,11.9063934 C12.8817436,11.6522785 13.0116459,11.3086668 12.996,10.956 L13.011,10.956 C13.0240623,10.6003358 12.8916294,10.2547056 12.6442487,9.99883364 C12.3968681,9.74296167 12.0559024,9.59894392 11.7,9.59999376 Z M16.587,9.678 L15.651,9.678 L15.651,10.914 L16.608,10.893 C17.0252727,10.893 17.2813884,10.6872149 17.3245064,10.3860879 L17.331,10.293 C17.331,9.885 17.049,9.678 16.587,9.678 Z" id="Combined-Shape" fill="#000000" fill-rule="nonzero"></path>
    </g>
</svg>