<?xml version="1.0" encoding="utf-8"?>
<!-- Generator: Adobe Illustrator 25.2.1, SVG Export Plug-In . SVG Version: 6.00 Build 0)  -->
<svg version="1.1" id="레이어_1" xmlns="http://www.w3.org/2000/svg" xmlns:xlink="http://www.w3.org/1999/xlink" x="0px"
	 y="0px" viewBox="0 0 24 24" style="enable-background:new 0 0 24 24;" xml:space="preserve">
<rect id="background_200_" style="fill:none;" width="24" height="24"/>
<path d="M20.5,13.88c-0.12-0.13-0.27-0.22-0.42-0.3l0.1-0.1c0.66-0.67,0.67-1.76,0.01-2.42c-0.12-0.13-0.27-0.22-0.42-0.3l0.21-0.21
	c0.67-0.67,0.67-1.76,0.01-2.42c-0.32-0.32-0.75-0.5-1.2-0.5c0,0,0,0,0,0c-0.46,0-0.89,0.18-1.21,0.51l-0.21,0.21
	c-0.09-0.2-0.21-0.38-0.37-0.54c-0.34-0.35-0.8-0.54-1.29-0.54c0,0-0.01,0-0.01,0c-0.36,0-0.69,0.11-0.99,0.3
	c-0.09-0.22-0.22-0.42-0.39-0.59c-0.35-0.35-0.83-0.54-1.3-0.53c-0.49,0-0.95,0.2-1.3,0.55l-3.19,3.21C8.25,10.08,7.96,10,7.66,10
	c-0.35,0-0.69,0.1-0.99,0.28c-0.09-0.19-0.2-0.38-0.35-0.53C5.96,9.38,5.47,9.18,4.96,9.18h0c-0.52,0-1.01,0.21-1.38,0.58
	C3.21,10.12,3,10.61,3,11.14l0,5.29h1.2l0-5.29c0-0.2,0.08-0.39,0.22-0.54s0.33-0.22,0.53-0.22c0.2,0,0.38,0.08,0.52,0.21
	c0.13,0.13,0.23,0.42,0.23,0.64v0.81h0l0,5.21h1.2l0-5.29c0-0.2,0.08-0.39,0.22-0.54c0.28-0.28,0.77-0.29,1.05-0.01
	c0.12,0.12,0.22,0.41,0.22,0.66l0.02,0.79L8.4,15.54l6.83-6.88l0,0c0.12-0.12,0.29-0.19,0.46-0.19c0.16-0.01,0.33,0.06,0.45,0.18
	c0.12,0.12,0.19,0.28,0.19,0.46c0,0.17-0.07,0.34-0.19,0.46l-3.69,3.72l0.85,0.85l3.34-3.36l0,0l1.79-1.81
	c0.19-0.2,0.53-0.2,0.71-0.01c0.2,0.2,0.19,0.53-0.01,0.73l-1.57,1.58l0,0L14,14.87l0.85,0.85l3.77-3.8c0.19-0.2,0.53-0.2,0.71-0.01
	c0.2,0.2,0.2,0.53-0.01,0.73l-3.78,3.8l0.85,0.85l2.53-2.55l0,0c0.1-0.1,0.23-0.15,0.36-0.15c0.13,0,0.26,0.05,0.35,0.15
	c0.2,0.2,0.2,0.53-0.01,0.73l-5.67,5.72l0.85,0.84l5.66-5.71C21.16,15.64,21.17,14.55,20.5,13.88z M13.45,8.75l-3.69,3.72l0,0
	l-0.15,0.15l-0.02-0.56c0-0.28-0.07-0.65-0.24-1l3.2-3.22c0.12-0.12,0.28-0.19,0.46-0.19c0,0,0,0,0,0c0.17,0,0.33,0.06,0.44,0.18
	c0.12,0.12,0.19,0.28,0.19,0.46C13.64,8.46,13.57,8.63,13.45,8.75z"/>
<g>
	<rect x="12.45" y="2.4" width="1.2" height="2.37"/>
</g>
<g>
	<rect x="9.39" y="3.84" transform="matrix(0.7128 -0.7014 0.7014 0.7128 -0.6517 8.447)" width="1.2" height="2.35"/>
</g>
<g>
	<rect x="15.01" y="4.42" transform="matrix(0.7014 -0.7128 0.7128 0.7014 1.2557 13.0359)" width="2.35" height="1.2"/>
</g>
</svg>
