<?xml version="1.0" encoding="UTF-8"?>
<svg width="24px" height="24px" viewBox="0 0 24 24" version="1.1" xmlns="http://www.w3.org/2000/svg" xmlns:xlink="http://www.w3.org/1999/xlink">
    <title>03. tokens/Icon/m/type : clock</title>
    <g id="03.-tokens/Icon/m/type-:-clock" stroke="none" stroke-width="1" fill="none" fill-rule="evenodd">
        <rect id="background" x="0" y="0" width="24" height="24"></rect>
        <path d="M12,2.25 C17.3847763,2.25 21.75,6.61522369 21.75,12 C21.75,17.3847763 17.3847763,21.75 12,21.75 C6.61522369,21.75 2.25,17.3847763 2.25,12 C2.25,6.61522369 6.61522369,2.25 12,2.25 Z M12,3.75 C7.44365081,3.75 3.75,7.44365081 3.75,12 C3.75,16.5563492 7.44365081,20.25 12,20.25 C16.5563492,20.25 20.25,16.5563492 20.25,12 C20.25,7.44365081 16.5563492,3.75 12,3.75 Z M12.75,6.6 L12.75,12.0066 L16.1511026,15.6912899 L15.0488974,16.7087101 L11.25,12.5932379 L11.25,6.6 L12.75,6.6 Z" id="Combined-Shape" fill="#000000" fill-rule="nonzero"></path>
    </g>
</svg>