<?xml version="1.0" encoding="UTF-8"?>
<svg width="24px" height="24px" viewBox="0 0 24 24" version="1.1" xmlns="http://www.w3.org/2000/svg" xmlns:xlink="http://www.w3.org/1999/xlink">
    <title>03. tokens/Icon/m/type : clock_lines</title>
    <g id="03.-tokens/Icon/m/type-:-clock_lines" stroke="none" stroke-width="1" fill="none" fill-rule="evenodd">
        <rect id="background" x="0" y="0" width="24" height="24"></rect>
        <path d="M14.4,3.45 C19.1220346,3.45 22.95,7.27796543 22.95,12 C22.95,16.7220346 19.1220346,20.5499923 14.3965909,20.5499923 C11.2829974,20.5358392 8.45145071,18.7910762 7.02987128,16.0513034 L3.9,16.05 L3.9,14.55 L11.4,14.55 L11.4,16.05 L8.77273089,16.0508192 C10.0252901,17.8965419 12.1215681,19.0396367 14.4,19.05 C18.2936074,19.05 21.45,15.8936074 21.45,12 C21.45,8.10639256 18.2936074,4.95 14.4060701,4.94997544 C12.1273062,4.96841908 10.0343334,6.10973056 8.77714545,7.95000075 L11.4,7.95 L11.4,9.45 L3.9,9.45 L3.9,7.95 L7.03103329,7.94976237 C8.45892553,5.21717712 11.2846921,3.47519106 14.4,3.45 Z M15.15,7.2 L15.15,11.9895 L18.2303301,15.0696699 L17.1696699,16.1303301 L13.65,12.6106602 L13.65,7.2 L15.15,7.2 Z M9.3,11.25 L9.3,12.75 L1.8,12.75 L1.8,11.25 L9.3,11.25 Z" id="Combined-Shape" fill="#000000" fill-rule="nonzero"></path>
    </g>
</svg>