<?xml version="1.0" encoding="UTF-8"?>
<svg width="24px" height="24px" viewBox="0 0 24 24" version="1.1" xmlns="http://www.w3.org/2000/svg" xmlns:xlink="http://www.w3.org/1999/xlink">
    <title>03. tokens/Icon/m/type : xmark_circle</title>
    <g id="03.-tokens/Icon/m/type-:-xmark_circle" stroke="none" stroke-width="1" fill="none" fill-rule="evenodd">
        <rect id="background" transform="translate(12.000000, 12.000000) rotate(180.000000) translate(-12.000000, -12.000000) " x="-1.77635684e-15" y="1.77635684e-15" width="24" height="24"></rect>
        <path d="M12,2.55 C17.2190909,2.55 21.45,6.78090911 21.45,12 C21.45,17.2190909 17.2190909,21.45 12,21.45 C6.78090911,21.45 2.55,17.2190909 2.55,12 C2.55,6.78090911 6.78090911,2.55 12,2.55 Z M12,4.05 C7.60933624,4.05 4.05,7.60933624 4.05,12 C4.05,16.3906638 7.60933624,19.95 12,19.95 C16.3906638,19.95 19.95,16.3906638 19.95,12 C19.95,7.60933624 16.3906638,4.05 12,4.05 Z M15.3696699,7.56966991 L16.4303301,8.63033009 L13.061,12 L16.4303301,15.3696699 L15.3696699,16.4303301 L12,13.0605 L8.63033009,16.4303301 L7.56966991,15.3696699 L10.939,12 L7.56966991,8.63033009 L8.63033009,7.56966991 L12,10.9395 L15.3696699,7.56966991 Z" id="Combined-Shape" fill="#000000" fill-rule="nonzero"></path>
    </g>
</svg>