<?xml version="1.0" encoding="UTF-8"?>
<svg width="24px" height="24px" viewBox="0 0 24 24" version="1.1" xmlns="http://www.w3.org/2000/svg" xmlns:xlink="http://www.w3.org/1999/xlink">
    <title>03. tokens/Icon/m/type : conicalhat</title>
    <g id="03.-tokens/Icon/m/type-:-conicalhat" stroke="none" stroke-width="1" fill="none" fill-rule="evenodd">
        <rect id="background" x="0" y="0" width="24" height="24"></rect>
        <path d="M12,2.85 C13.4911688,2.85 14.7,4.05883118 14.7,5.55 C14.7,6.4093495 14.2985313,7.17493096 13.6729195,7.66941879 L20.4135255,21.15 L3.58647451,21.15 L10.3270805,7.66941879 C9.70146869,7.17493096 9.3,6.4093495 9.3,5.55 C9.3,4.05883118 10.5088312,2.85 12,2.85 Z M15.5244745,14.728 L6.95347451,17.769 L6.0135,19.65 L8.87147451,19.65 L16.6454745,16.969 L15.5244745,14.728 Z M17.3224745,18.324 L13.4754745,19.65 L17.9862,19.65 L17.3224745,18.324 Z M13.8904745,11.46 L9.35147451,12.973 L7.92047451,15.835 L14.8494745,13.377 L13.8904745,11.46 Z M12.278054,8.23585689 C12.1866425,8.24520856 12.0938808,8.25 12,8.25 C11.9061192,8.25 11.8133575,8.24520856 11.721946,8.23585689 L10.3004745,11.075 L13.2134745,10.104 Z M12,4.35 C11.3372583,4.35 10.8,4.8872583 10.8,5.55 C10.8,6.2127417 11.3372583,6.75 12,6.75 C12.6627417,6.75 13.2,6.2127417 13.2,5.55 C13.2,4.8872583 12.6627417,4.35 12,4.35 Z" id="Combined-Shape" fill="#000000" fill-rule="nonzero"></path>
    </g>
</svg>