<?xml version="1.0" encoding="UTF-8"?>
<svg width="24px" height="24px" viewBox="0 0 24 24" version="1.1" xmlns="http://www.w3.org/2000/svg" xmlns:xlink="http://www.w3.org/1999/xlink">
    <title>03. tokens/Icon/m/type : coupon</title>
    <g id="03.-tokens/Icon/m/type-:-coupon" stroke="none" stroke-width="1" fill="none" fill-rule="evenodd">
        <rect id="background" x="0" y="0" width="24" height="24"></rect>
        <path d="M8.502,10.329 L8.502,10.311 C8.47725693,9.88533043 8.62884557,9.46824829 8.92113002,9.15780248 C9.21341446,8.84735667 9.62061293,8.67093095 10.047,8.67 C10.468619,8.6709229 10.8712464,8.84545173 11.1601567,9.15252539 C11.449067,9.45959904 11.5987537,9.8721073 11.574,10.293 L11.574,10.311 C11.5969589,10.7364966 11.4448641,11.1528659 11.1530494,11.4633794 C10.8612346,11.773893 10.4551014,11.9515217 10.029,11.955 C9.60710846,11.953253 9.20450901,11.7780488 8.91569342,11.4705084 C8.62687783,11.162968 8.47727596,10.7501701 8.502,10.329 Z M13.752,8.742 L14.829,8.742 L12.3,12.201 L10.2,15.165 L9.132,15.165 L11.664,11.7 L13.752,8.742 Z M9.45,10.293 L9.45,10.311 C9.45,10.743 9.684,11.118 10.05,11.118 C10.416,11.118 10.629,10.743 10.629,10.329 L10.629,10.311 C10.629,9.882 10.395,9.504 10.029,9.504 C9.663,9.504 9.45,9.87 9.45,10.293 Z M12.387,13.614 L12.387,13.596 C12.3622569,13.1703304 12.5138456,12.7532483 12.80613,12.4428025 C13.0984145,12.1323567 13.5056129,11.955931 13.932,11.955 C14.3538614,11.9559706 14.7567544,12.1304069 15.0461318,12.4373739 C15.3355092,12.7443409 15.4858957,13.1568148 15.462,13.578 L15.462,13.596 C15.4849808,14.0220133 15.3324831,14.4388505 15.0400134,14.7494579 C14.7475437,15.0600652 14.3406243,15.2373376 13.914,15.24 C13.4921085,15.238253 13.089509,15.0630488 12.8006934,14.7555084 C12.5118778,14.447968 12.362276,14.0351701 12.387,13.614 Z M14.511,13.614 L14.511,13.596 C14.511,13.167 14.277,12.789 13.911,12.789 C13.545,12.789 13.335,13.155 13.335,13.578 L13.335,13.596 C13.335,14.028 13.569,14.403 13.935,14.403 C14.301,14.403 14.511,14.028 14.511,13.614 Z" id="Shape" fill="#000000" fill-rule="nonzero"></path>
        <path d="M21.75,5.25 L2.25,5.25 L2.25,10.65 L3,10.65 C3.74558439,10.65 4.35,11.2544156 4.35,12 C4.35,12.7455844 3.74558439,13.35 3,13.35 L2.25,13.35 L2.25,18.75 L21.75,18.75 L21.75,13.35 L21,13.35 C20.2544156,13.35 19.65,12.7455844 19.65,12 C19.65,11.2544156 20.2544156,10.65 21,10.65 L21.75,10.65 L21.75,5.25 Z M20.25,6.75 L20.25,9.2499 L20.217446,9.25877975 C19.0239231,9.59885521 18.15,10.6973698 18.15,12 L18.1511329,12.0811436 C18.1865522,13.3480725 19.0487882,14.4082297 20.217446,14.7412203 L20.25,14.7498 L20.25,17.25 L3.75,17.25 L3.75,14.7498 L3.782554,14.7412203 C4.97607685,14.4011448 5.85,13.3026302 5.85,12 L5.84886709,11.9188564 C5.81344782,10.6519275 4.95121179,9.59177031 3.782554,9.25877975 L3.75,9.2499 L3.75,6.75 L20.25,6.75 Z" id="Path" fill="#000000" fill-rule="nonzero"></path>
    </g>
</svg>