<?xml version="1.0" encoding="UTF-8"?>
<svg width="24px" height="24px" viewBox="0 0 24 24" version="1.1" xmlns="http://www.w3.org/2000/svg" xmlns:xlink="http://www.w3.org/1999/xlink">
    <title>03. tokens/Icon/m/type : earth</title>
    <g id="03.-tokens/Icon/m/type-:-earth" stroke="none" stroke-width="1" fill="none" fill-rule="evenodd">
        <rect id="background" x="0" y="0" width="24" height="24"></rect>
        <path d="M12,2.25 C17.3847763,2.25 21.75,6.61522369 21.75,12 C21.75,17.3847763 17.3847763,21.75 12,21.75 C6.61522369,21.75 2.25,17.3847763 2.25,12 C2.25,6.61522369 6.61522369,2.25 12,2.25 Z M15.3278172,15.7509552 L8.37443133,15.7511923 C9.07905945,17.5100574 10.2740304,19.0581658 11.8505513,20.1914806 C13.4278556,19.0575599 14.62305,17.5096884 15.3278172,15.7509552 Z M19.3503104,15.750245 L16.9275181,15.7503784 C16.4044611,17.2788303 15.5657557,18.6859997 14.4623075,19.8764624 C16.5906335,19.212101 18.3497904,17.7073012 19.3503104,15.750245 Z M4.64968964,15.750245 C5.58107707,17.5720752 7.16988496,19.0019887 9.10323197,19.727104 C8.06709015,18.5691347 7.27602866,17.2156111 6.77482209,15.7507452 Z M20.25,12 C20.25,11.2201535 20.1417968,10.4655792 19.9395845,9.75047121 L17.3309054,9.75049952 C17.4761158,10.4842462 17.551193,11.2371689 17.551193,12 C17.551193,12.7633783 17.476008,13.516834 17.3305928,14.2510795 L19.9393003,14.2505336 C20.1416954,13.5351277 20.25,12.7802118 20.25,12 Z M4.06041547,9.75047121 C3.8582032,10.4655792 3.75,11.2201535 3.75,12 C3.75,12.7802118 3.85830459,13.5351277 4.06069967,14.2505336 L6.37168773,14.2508436 C6.22634021,13.5166627 6.15119213,12.7632879 6.15119213,12 C6.15119213,11.2371055 6.22626278,10.4841138 6.37146307,9.75029151 Z M15.797236,9.75020913 L7.90509681,9.7501006 C7.73802285,10.4803766 7.65119213,11.2344613 7.65119213,12 C7.65119213,12.7657543 7.73807175,13.520048 7.90523795,14.2505163 L15.7971477,14.2501765 C15.9643124,13.5198273 16.051193,12.7656467 16.051193,12 C16.051193,11.2344881 15.964343,10.4804382 15.797236,9.75020913 Z M19.3508262,8.25076414 C18.3507089,6.29383018 16.5921032,4.78895755 14.462696,4.12383305 C15.5660921,5.31449853 16.4046996,6.72165752 16.9276754,8.25008107 Z M9.10129352,4.27482091 L8.89879784,4.35271027 C7.05763816,5.10009614 5.54745926,6.49308499 4.64917381,8.25076414 L6.77450401,8.2501846 C7.2753806,6.7858777 8.06588178,5.43280326 9.10129352,4.27482091 Z M11.8492714,3.80821646 L11.5916953,4.00094507 C10.142469,5.11462782 9.03924197,6.58849285 8.37377575,8.25044458 L15.3283688,8.25042168 C14.6233981,6.4904312 13.4273315,4.94152415 11.8492714,3.80821646 Z" id="Combined-Shape" fill="#000000" fill-rule="nonzero"></path>
    </g>
</svg>