<?xml version="1.0" encoding="UTF-8"?>
<svg width="24px" height="24px" viewBox="0 0 24 24" version="1.1" xmlns="http://www.w3.org/2000/svg" xmlns:xlink="http://www.w3.org/1999/xlink">
    <title>03. tokens/Icon/m/type : eye</title>
    <g id="03.-tokens/Icon/m/type-:-eye" stroke="none" stroke-width="1" fill="none" fill-rule="evenodd">
        <polygon id="background" points="0 24 24 24 24 0 0 0"></polygon>
        <path d="M12,5.85 C15.2559179,5.85 18.4466445,7.76443599 21.576166,11.5198617 L21.576166,11.5198617 L21.9763312,12.00006 L21.5761069,12.4802091 C18.4460303,16.2353621 15.2553659,18.15 12,18.15 C8.74463406,18.15 5.55396974,16.2353621 2.42389309,12.4802091 L2.42389309,12.4802091 L2.02366877,12.00006 L2.42383404,11.5198617 C5.55335547,7.76443599 8.74408211,5.85 12,5.85 Z M12,7.35 C9.41974369,7.35 6.7818478,8.84031044 4.08962622,11.8819927 L4.08962622,11.8819927 L3.9858,12 L4.08966388,12.1179091 C6.73962303,15.1111919 9.33652516,16.6022908 11.8771123,16.6488731 L11.8771123,16.6488731 L12,16.65 C14.5797176,16.65 17.2176357,15.1594706 19.9103361,12.1179091 L19.9103361,12.1179091 L20.0139,12 L19.9103738,11.8819927 C17.2608859,8.88859111 14.6640127,7.39770231 12.1229129,7.35112671 L12.1229129,7.35112671 Z M12,8.55 C13.9055136,8.55 15.45,10.0944864 15.45,12 C15.45,13.9055136 13.9055136,15.45 12,15.45 C10.0944864,15.45 8.55,13.9055136 8.55,12 C8.55,10.0944864 10.0944864,8.55 12,8.55 Z M12,10.05 C10.9229136,10.05 10.05,10.9229136 10.05,12 C10.05,13.0770864 10.9229136,13.95 12,13.95 C13.0770864,13.95 13.95,13.0770864 13.95,12 C13.95,10.9229136 13.0770864,10.05 12,10.05 Z" id="Combined-Shape" fill="#000000" fill-rule="nonzero"></path>
    </g>
</svg>