<?xml version="1.0" encoding="UTF-8"?>
<svg width="24px" height="24px" viewBox="0 0 24 24" version="1.1" xmlns="http://www.w3.org/2000/svg" xmlns:xlink="http://www.w3.org/1999/xlink">
    <title>03. tokens/Icon/m/type : face_soso</title>
    <g id="03.-tokens/Icon/m/type-:-face_soso" stroke="none" stroke-width="1" fill="none" fill-rule="evenodd">
        <rect id="background" x="0" y="0" width="24" height="24"></rect>
        <path d="M12,2.25 C17.3847763,2.25 21.75,6.61522369 21.75,12 C21.75,17.3847763 17.3847763,21.75 12,21.75 C6.61522369,21.75 2.25,17.3847763 2.25,12 C2.25,6.61522369 6.61522369,2.25 12,2.25 Z M12,3.75 C7.44365081,3.75 3.75,7.44365081 3.75,12 C3.75,16.5563492 7.44365081,20.25 12,20.25 C16.5563492,20.25 20.25,16.5563492 20.25,12 C20.25,7.44365081 16.5563492,3.75 12,3.75 Z M15.9,13.545 L15.9,15.045 L8.1,15.045 L8.1,13.545 L15.9,13.545 Z M15,8.7 C15.4970563,8.7 15.9,9.10294373 15.9,9.6 C15.9,10.0970563 15.4970563,10.5 15,10.5 C14.5029437,10.5 14.1,10.0970563 14.1,9.6 C14.1,9.10294373 14.5029437,8.7 15,8.7 Z M9,8.7 C9.49705627,8.7 9.9,9.10294373 9.9,9.6 C9.9,10.0970563 9.49705627,10.5 9,10.5 C8.50294373,10.5 8.1,10.0970563 8.1,9.6 C8.1,9.10294373 8.50294373,8.7 9,8.7 Z" id="Combined-Shape" fill="#000000" fill-rule="nonzero"></path>
    </g>
</svg>