<?xml version="1.0" encoding="UTF-8"?>
<svg width="24px" height="24px" viewBox="0 0 24 24" version="1.1" xmlns="http://www.w3.org/2000/svg" xmlns:xlink="http://www.w3.org/1999/xlink">
    <title>03. tokens/Icon/m/type : face_angry</title>
    <g id="03.-tokens/Icon/m/type-:-face_angry" stroke="none" stroke-width="1" fill="none" fill-rule="evenodd">
        <rect id="background" x="0" y="0" width="24" height="24"></rect>
        <path d="M12,2.25 C17.3847763,2.25 21.75,6.61522369 21.75,12 C21.75,17.3847763 17.3847763,21.75 12,21.75 C6.61522369,21.75 2.25,17.3847763 2.25,12 C2.25,6.61522369 6.61522369,2.25 12,2.25 Z M12,3.75 C7.44365081,3.75 3.75,7.44365081 3.75,12 C3.75,16.5563492 7.44365081,20.25 12,20.25 C16.5563492,20.25 20.25,16.5563492 20.25,12 C20.25,7.44365081 16.5563492,3.75 12,3.75 Z M16.221457,11.9036425 L16.778543,13.2963575 L9.27854301,16.2963575 L8.72145699,14.9036425 L16.221457,11.9036425 Z M8.03033009,7.86966991 L10.7303301,10.5696699 L9.66966991,11.6303301 L6.96966991,8.93033009 L8.03033009,7.86966991 Z M15.9696699,7.86966991 L17.0303301,8.93033009 L14.3303301,11.6303301 L13.2696699,10.5696699 L15.9696699,7.86966991 Z" id="Combined-Shape" fill="#000000" fill-rule="nonzero"></path>
    </g>
</svg>