<?xml version="1.0" encoding="UTF-8"?>
<svg width="24px" height="24px" viewBox="0 0 24 24" version="1.1" xmlns="http://www.w3.org/2000/svg" xmlns:xlink="http://www.w3.org/1999/xlink">
    <title>03. tokens/Icon/m/type : face_excited</title>
    <g id="03.-tokens/Icon/m/type-:-face_excited" stroke="none" stroke-width="1" fill="none" fill-rule="evenodd">
        <rect id="background" x="0" y="0" width="24" height="24"></rect>
        <path d="M12,2.25 C17.3847763,2.25 21.75,6.61522369 21.75,12 C21.75,17.3847763 17.3847763,21.75 12,21.75 C6.61522369,21.75 2.25,17.3847763 2.25,12 C2.25,6.61522369 6.61522369,2.25 12,2.25 Z M12,3.75 C7.44365081,3.75 3.75,7.44365081 3.75,12 C3.75,16.5563492 7.44365081,20.25 12,20.25 C16.5563492,20.25 20.25,16.5563492 20.25,12 C20.25,7.44365081 16.5563492,3.75 12,3.75 Z M9.15,12.9 C9.15,14.0257529 10.4933156,15.15 12,15.15 C13.4792901,15.15 14.8010982,14.0662629 14.8486749,12.9613965 L14.85,12.9 L16.35,12.9 C16.35,14.9191577 14.2818894,16.65 12,16.65 C9.74980356,16.65 7.70748876,14.9669028 7.65119186,12.9839609 L7.65,12.9 L9.15,12.9 Z M8.52426407,7.67573593 L10.7485281,9.9 L8.52426407,12.1242641 L7.67573593,11.2757359 L9.0513,9.9 L7.67573593,8.52426407 L8.52426407,7.67573593 Z M15.4757359,7.67573593 L16.3242641,8.52426407 L14.9487,9.9 L16.3242641,11.2757359 L15.4757359,12.1242641 L13.2514719,9.9 L15.4757359,7.67573593 Z" id="Combined-Shape" fill="#000000" fill-rule="nonzero"></path>
    </g>
</svg>