<?xml version="1.0" encoding="UTF-8"?>
<svg width="24px" height="24px" viewBox="0 0 24 24" version="1.1" xmlns="http://www.w3.org/2000/svg" xmlns:xlink="http://www.w3.org/1999/xlink">
    <title>03. tokens/Icon/m/type : gear</title>
    <g id="03.-tokens/Icon/m/type-:-gear" stroke="none" stroke-width="1" fill="none" fill-rule="evenodd">
        <rect id="background" x="0" y="0" width="24" height="24"></rect>
        <path d="M14.6405694,2.25 L15.1077405,3.65179964 C15.4980632,4.7648003 16.6573979,5.41168961 17.8183592,5.15748991 L17.8183592,5.15748991 L19.2762407,4.85650792 L21.9296464,9.4052034 L20.9168618,10.4847976 C20.135669,11.3369952 20.135669,12.6450048 20.9176574,13.4980717 L20.9176574,13.4980717 L21.9258243,14.6013487 L19.2710199,19.1524421 L17.7995948,18.8207228 C16.6467836,18.5765532 15.4927885,19.2299968 15.1115125,20.3371708 L15.1115125,20.3371708 L14.6405694,21.75 L9.35943058,21.75 L8.89225952,20.3482004 C8.50193684,19.2351997 7.34260207,18.5883104 6.18164079,18.8425101 L6.18164079,18.8425101 L4.72375929,19.1434921 L2.0703536,14.5947966 L3.08313816,13.5152024 C3.86433099,12.6630048 3.86433099,11.3549952 3.08234259,10.5019283 L3.08234259,10.5019283 L2.07417566,9.39865131 L4.72898013,4.84755791 L6.20040522,5.17927715 C7.35321638,5.42344684 8.50721145,4.77000322 8.88848753,3.66282918 L8.88848753,3.66282918 L9.35943058,2.25 L14.6405694,2.25 Z M13.5594,3.75 L10.4403,3.75 L10.3091376,4.14418005 C9.68925565,5.94441547 7.84509911,7.01241726 5.97367777,6.66328578 L5.97367777,6.66328578 L5.88008952,6.64464509 L5.4708,6.5523 L3.9258,9.2013 L4.18886184,9.48920242 C5.47322377,10.8903036 5.49536794,13.0278861 4.24973234,14.4603812 L4.24973234,14.4603812 L4.18300192,14.5351168 L3.9294,14.805 L5.4762,17.4564 L5.96263288,17.356167 C7.79323324,17.001928 9.6153755,18.018792 10.2787841,19.7729998 L10.2787841,19.7729998 L10.3115125,19.8628292 L10.4403,20.25 L13.5594,20.25 L13.6908624,19.85582 C14.3107443,18.0555845 16.1549009,16.9875827 18.0263222,17.3367142 L18.0263222,17.3367142 L18.1199105,17.3553549 L18.5289,17.4474 L20.0739,14.7984 L19.8111382,14.5107976 C18.5267762,13.1096964 18.5046321,10.9721139 19.7502677,9.5396188 L19.7502677,9.5396188 L19.8169981,9.46488315 L20.0703,9.1947 L18.5235,6.5433 L18.0373671,6.64383304 C16.2067668,6.99807198 14.3846245,5.98120803 13.7212159,4.22700021 L13.7212159,4.22700021 L13.6884875,4.13717082 L13.5594,3.75 Z M12,7.95 C14.2367532,7.95 16.05,9.76324676 16.05,12 C16.05,14.2367532 14.2367532,16.05 12,16.05 C9.76324676,16.05 7.95,14.2367532 7.95,12 C7.95,9.76324676 9.76324676,7.95 12,7.95 Z M12,9.45 C10.5916739,9.45 9.45,10.5916739 9.45,12 C9.45,13.4083261 10.5916739,14.55 12,14.55 C13.4083261,14.55 14.55,13.4083261 14.55,12 C14.55,10.5916739 13.4083261,9.45 12,9.45 Z" id="Combined-Shape" fill="#000000" fill-rule="nonzero"></path>
    </g>
</svg>