<?xml version="1.0" encoding="UTF-8"?>
<svg width="24px" height="24px" viewBox="0 0 24 24" version="1.1" xmlns="http://www.w3.org/2000/svg" xmlns:xlink="http://www.w3.org/1999/xlink">
    <title>03. tokens/Icon/m/type : hand_thumbs_up</title>
    <g id="03.-tokens/Icon/m/type-:-hand_thumbs_up" stroke="none" stroke-width="1" fill="none" fill-rule="evenodd">
        <rect id="background" x="0" y="0" width="24" height="24"></rect>
        <path d="M9.26437261,2.52041054 C9.32900063,2.52797009 9.38038766,2.53625948 9.43352222,2.54704339 C10.6038355,2.80849635 11.3630417,3.56836091 11.7476458,4.61845555 C11.9743064,5.23731301 12.046164,5.86284499 12.0316802,6.40815809 L12.024,6.5796 L12.024,7.7217482 L18.3615576,7.722 C18.9431778,7.72320955 19.5004963,7.95541636 19.9109088,8.36753894 C20.3213142,8.77965432 20.5512024,9.33792305 20.5500248,9.91490591 C20.5522191,10.4509706 20.3580855,10.9675531 20.0070914,11.3684742 L19.9109088,11.2625389 C20.3213142,11.6746543 20.5512024,12.232923 20.5500248,12.8099043 C20.5522196,13.3457885 20.3582198,13.862175 20.007499,14.2630119 L19.9109088,14.1575389 C20.3213142,14.5696543 20.5512024,15.127923 20.5500248,15.7049059 C20.5524121,16.2880972 20.3224347,16.8482303 19.9109115,17.2614647 C19.6455533,17.5279262 19.3188034,17.7191549 18.9638079,17.8213827 C19.0566432,18.0612166 19.1070248,18.3232668 19.1070248,18.5969044 C19.10941,19.1793064 18.8800576,19.7387474 18.4695209,20.15185 C18.0805846,20.5432171 17.5592949,20.7727845 17.0089717,20.796892 L16.917,20.799 L3.45,20.799 L3.45,11.0938659 L3.94345776,10.9142404 C5.47537534,10.3566012 6.32062346,9.30430525 6.70704107,7.79182502 C6.72309457,7.72898987 6.7382052,7.66685987 6.75242501,7.60511428 L6.79246408,7.42070993 C6.84242511,7.17551967 6.87896623,6.9313475 6.90541985,6.66766425 L6.92342073,6.46592272 L6.9379512,6.25493993 L6.94932368,6.03279126 L6.95785059,5.79755212 L6.96384433,5.54729789 L6.96761732,5.28010396 L6.97337286,4.54779588 L6.97781596,4.38021149 L6.98213402,4.28437503 L6.98775624,4.19886312 L6.99487067,4.12163177 L7.00366534,4.05063702 L7.0143283,3.9838349 L7.02704759,3.91918143 L7.04201125,3.85463264 C7.21104097,3.17240427 7.68547991,2.74808023 8.30375633,2.58174596 C8.63266839,2.49325908 8.95979872,2.48478449 9.26437261,2.52041054 Z M14.034,12.117 L14.034,10.617 L18.357,10.617 C18.5413023,10.617 18.7180089,10.5435922 18.8480531,10.4130073 C18.9781004,10.2824192 19.0507792,10.1054026 19.0500141,9.91646361 C19.0503906,9.73265367 18.97774,9.55622623 18.8480458,9.42599171 C18.7313225,9.30878202 18.5769964,9.23762436 18.4144473,9.22428784 L18.36,9.222 L10.524,9.222 L10.524,6.51794253 L10.5291233,6.44940959 C10.5483919,6.06110307 10.5014094,5.57736393 10.3391447,5.13432834 C10.12866,4.55963636 9.77077562,4.18561448 9.20240682,4.03388184 L9.12230635,4.0144163 L9.09010552,4.01025314 C8.95833577,3.99484001 8.81083588,3.99866112 8.693444,4.03024294 C8.57014047,4.06341517 8.52581437,4.10305911 8.49798875,4.21536736 L8.49265303,4.24204135 L8.48581986,4.29821049 L8.48030456,4.37721693 L8.47377632,4.570178 L8.47018703,4.85530539 L8.46739422,5.31219018 L8.46311649,5.60562681 C8.46219882,5.65302287 8.46117342,5.69969409 8.46003225,5.74568571 L8.45173136,6.01384225 L8.44026506,6.26786052 L8.42524669,6.50991262 C8.42242614,6.54937813 8.41944148,6.58843555 8.41628465,6.62713013 L8.39521322,6.85530565 C8.356436,7.22954822 8.29883092,7.57655773 8.21434277,7.94158623 L8.16035947,8.16312761 C7.70864505,9.93118662 6.71588367,11.2876994 5.04048541,12.0805581 L4.95,12.1218 L4.95,19.299 L16.9154472,19.2990016 C17.0810883,19.2986587 17.2404835,19.2390274 17.3652823,19.1319374 L17.4055617,19.0944992 C17.5352973,18.9639527 17.6077786,18.7871548 17.6070125,18.6 C17.6070125,18.233755 17.3228612,17.9337547 16.9628164,17.9086912 L16.9154407,17.9069984 L14.034,17.907 L14.034,16.407 L18.357,16.407 C18.5413023,16.407 18.7180089,16.3335922 18.8480531,16.2030073 C18.9781004,16.0724192 19.0507792,15.8954026 19.0500141,15.7064636 C19.0503906,15.5226537 18.97774,15.3462262 18.8480458,15.2159917 C18.7313225,15.098782 18.5769964,15.0276244 18.4144473,15.0142878 L18.36,15.012 L14.034,15.012 L14.034,13.512 L18.3555596,13.5120048 C18.5401082,13.5123885 18.7171867,13.4391489 18.847545,13.3085201 C18.9779045,13.1778902 19.0507807,13.0006542 19.0500141,12.8114636 C19.0503906,12.6276537 18.97774,12.4512262 18.8480458,12.3209917 C18.7313225,12.203782 18.5769964,12.1326244 18.4144473,12.1192878 L18.36,12.117 L14.034,12.117 Z" id="Combined-Shape" fill="#000000" fill-rule="nonzero"></path>
    </g>
</svg>