<?xml version="1.0" encoding="UTF-8"?>
<svg width="24px" height="24px" viewBox="0 0 24 24" version="1.1" xmlns="http://www.w3.org/2000/svg" xmlns:xlink="http://www.w3.org/1999/xlink">
    <title>03. tokens/Icon/m/type : hand_swipe </title>
    <g id="03.-tokens/Icon/m/type-:-hand_swipe-" stroke="none" stroke-width="1" fill="none" fill-rule="evenodd">
        <rect id="background" x="0" y="0" width="24" height="24"></rect>
        <path d="M11.619,3.400301 C12.1874157,3.400301 12.7319061,3.62909811 13.1248395,4.0301798 C13.5052371,4.41130925 13.7268621,4.92118414 13.7474466,5.45485289 L13.7490086,5.544 L13.7492292,9.23243526 C14.2518375,9.10674867 14.7924901,9.18107231 15.2501041,9.45540618 C15.3240047,9.4997087 15.3943253,9.54837941 15.4608255,9.60096852 C15.5063711,9.56359276 15.5560611,9.52765892 15.6076413,9.49391468 L15.6738959,9.45240618 C16.3015589,9.07613007 17.0854411,9.07613007 17.7131041,9.45240618 C17.7895913,9.49825929 17.8622434,9.54879171 17.9307939,9.60350476 C17.9976012,9.5472925 18.0712737,9.49593973 18.1488959,9.44940618 C18.7765589,9.07313007 19.5604411,9.07313007 20.1881041,9.44940618 C20.7933505,9.81224385 21.1584585,10.4680822 21.1514091,11.1698346 L21.15,11.211 L21.15,19.752 L19.65,19.752 L19.6509124,11.1740165 C19.659702,10.9959863 19.5697254,10.8275861 19.4168453,10.7359364 C19.2639652,10.6442867 19.0730348,10.6442867 18.9201547,10.7359364 C18.7800146,10.8199486 18.6927309,10.9684526 18.6859271,11.1297484 L18.6860876,11.1740165 L18.6759537,11.173301 L18.675,11.2137 L18.675,12.981 L17.175,12.981 L17.1759124,11.1770165 C17.184702,10.9989863 17.0947254,10.8305861 16.9418453,10.7389364 C16.7889652,10.6472867 16.5980348,10.6472867 16.4451547,10.7389364 C16.3076699,10.8213568 16.2210575,10.9658482 16.2114003,11.1235941 C16.2135296,11.1409933 16.2135842,11.1583998 16.2134091,11.1758346 L16.2119537,11.210301 L16.212,12.954 L14.712,12.954 L14.712,11.2215 L14.7105909,11.1728346 L14.7109537,11.147301 L14.7092427,11.0921146 C14.6899625,10.9479849 14.6062454,10.8183111 14.4788453,10.7419364 C14.3259652,10.6502867 14.1350348,10.6502867 13.9821547,10.7419364 C13.846145,10.8234725 13.759922,10.9657547 13.7487377,11.1215211 L13.7490086,12.99 L12.2490086,12.99 L12.2499124,11.2539835 C12.2469178,11.1933292 12.2467156,11.1329471 12.2492215,11.0729948 L12.2490133,5.54137025 C12.2496067,5.3721169 12.1827201,5.20960983 12.0582857,5.08489066 C11.942611,4.96683066 11.784284,4.900301 11.619,4.900301 C11.453716,4.900301 11.295389,4.96683066 11.1748395,5.0898202 C11.0685643,5.19629987 11.0039072,5.3365316 10.9912679,5.48525167 L10.9889537,5.540301 L10.992,5.541 L10.992,16.6728271 L8.7726,14.4324 L8.13471229,13.8444922 L8.10622635,13.8168073 C7.94695204,13.6535903 7.73833411,13.548562 7.51373723,13.5172227 L7.4685,13.5123 L7.43710717,13.5132233 C7.16952501,13.5291707 6.93041974,13.6871723 6.81082598,13.927072 L6.78852769,13.9761261 C6.67882,14.2423377 6.73166826,14.5460356 6.92793535,14.7664909 L6.96909535,14.8094363 L11.1180954,18.9704363 L10.0559046,20.0295637 L5.91602368,15.8775543 C5.2544062,15.2363029 5.05061318,14.2564725 5.40167778,13.4045954 C5.74210407,12.5785327 6.53755068,12.0346836 7.42551686,12.0125897 L7.50902368,12.0120543 L7.55408784,12.0139529 C8.13766831,12.0561489 8.68744684,12.2995096 9.11046098,12.7008477 L9.1578,12.7473 L9.492,13.0554 L9.49195375,5.546301 L9.48898281,5.54662975 C9.48700297,4.97823427 9.71162968,4.43248311 10.1082857,4.03510934 C10.5060939,3.62909811 11.0505843,3.400301 11.619,3.400301 Z M5.11783543,3.62553233 L6.18616457,4.67846767 L5.39195375,5.483301 L8.808,5.484 L8.808,6.984 L5.39095375,6.983301 L6.18616457,7.78953233 L5.11783543,8.84246767 L2.54695375,6.234 L5.11783543,3.62553233 Z M18.1295495,3.62592318 L20.6962879,6.234 L18.1295495,8.84207682 L17.0604505,7.78992318 L17.8529537,6.983301 L14.439,6.984 L14.439,5.484 L17.8529537,5.483301 L17.0604505,4.67807682 L18.1295495,3.62592318 Z" id="Combined-Shape" fill="#000000" fill-rule="nonzero"></path>
    </g>
</svg>