<?xml version="1.0" encoding="UTF-8"?>
<svg width="24px" height="24px" viewBox="0 0 24 24" version="1.1" xmlns="http://www.w3.org/2000/svg" xmlns:xlink="http://www.w3.org/1999/xlink">
    <title>03. tokens/Icon/m/type : hand_closeup</title>
    <g id="03.-tokens/Icon/m/type-:-hand_closeup" stroke="none" stroke-width="1" fill="none" fill-rule="evenodd">
        <rect id="background" x="0" y="0" width="24" height="24"></rect>
        <path d="M17.4302816,5.87399711 C18.2502054,5.87759085 18.9875542,6.37383658 19.2995859,7.13207369 C19.6012174,7.86503823 19.4482145,8.70383137 18.913845,9.28252959 L18.8586759,9.33805393 L18.861569,9.34008831 L16.4920985,11.7207863 C16.6031648,11.7931623 16.7071188,11.8776045 16.8019061,11.9732585 C17.1029587,12.2772572 17.2803497,12.6575608 17.3340792,13.0514827 C17.7397997,13.1062689 18.1200922,13.2947672 18.4129061,13.5902585 C18.7135958,13.8938908 18.8909219,14.2736442 18.944623,14.6673205 C19.3541886,14.7204958 19.7379338,14.9095891 20.0329061,15.2072585 C20.7474924,15.9288379 20.7653571,17.0803267 20.0826162,17.8272926 L20.0287157,17.8839396 L19.5373504,18.3723021 L16.4053504,21.5283021 L15.3406496,20.4716979 L18.4762843,17.3120604 L18.9670939,16.8242585 C19.1210859,16.6687595 19.1210859,16.4182405 18.9672619,16.2629111 C18.8951501,16.1901399 18.7969488,16.1492016 18.6945,16.1492016 C18.6066867,16.1492016 18.5219941,16.1792787 18.4541768,16.2336989 L18.4217381,16.2629111 L18.4166759,16.2570539 L18.4091207,16.2665367 L17.7491207,16.9235367 L16.6908793,15.8604633 L17.3470939,15.2072585 C17.5010859,15.0517595 17.5010859,14.8012405 17.3472619,14.6459111 C17.2751501,14.5731399 17.1769488,14.5322016 17.0745,14.5322016 C16.9866867,14.5322016 16.9019941,14.5622787 16.8334416,14.6174392 L16.8005706,14.6470866 L16.1615706,15.2890866 L15.0984294,14.2309134 L15.7362619,13.5900889 C15.8900859,13.4347595 15.8900859,13.1842405 15.7362619,13.0289111 C15.6641501,12.9561399 15.5659488,12.9152016 15.4635,12.9152016 C15.3756867,12.9152016 15.2909941,12.9452787 15.2231768,12.9996989 L15.1907381,13.0289111 L14.382569,13.8400883 L13.319431,12.7819117 L17.798431,8.28191169 L17.796792,8.28054788 C17.9484091,8.12900056 17.9940308,7.90115106 17.9124506,7.70291127 C17.8308702,7.50467093 17.6380895,7.37492691 17.4251475,7.37399711 C17.3053756,7.373698 17.1898993,7.41553833 17.098495,7.49127404 L17.0608532,7.52578341 L17.0586759,7.52305393 L17.0585794,7.52507784 L9.432,15.1877167 L9.432,10.752 L9.429,10.752 C9.429,10.4040606 9.14693939,10.122 8.799,10.122 C8.46618841,10.122 8.19365154,10.3800668 8.17058182,10.707008 L8.169,10.752 L6.669,10.752 C6.669,9.57563348 7.62263348,8.622 8.799,8.622 C9.95135904,8.622 10.8899834,9.53710685 10.9278147,10.6802621 C10.9297383,10.6931241 10.9300939,10.6978996 10.9304047,10.7026873 L10.932,10.752 L10.932,11.5542 L15.9954206,6.46692216 L16.0506759,6.41805393 L16.1244174,6.35052537 C16.4873055,6.04300443 16.9494959,5.87281387 17.4302816,5.87399711 Z M8.16599988,10.7515829 L8.16917234,16.4556632 L4.75832414,19.8793342 L3.69567586,18.8206658 L6.6687,15.8358 L6.66600012,10.7524171 L8.16599988,10.7515829 Z M17.1120452,4.1764044 L17.1816128,4.26490526 L15.9923872,5.17909474 C15.0330897,3.9311902 13.3842596,3.43492351 11.895536,3.94601996 C10.4360031,4.44709492 9.44975643,5.80676317 9.42058433,7.34309164 L9.41998637,7.43547789 L7.92001363,7.44452211 C7.90663997,5.22651771 9.31061474,3.24751847 11.4084723,2.52729908 C13.470773,1.81928679 15.751107,2.48310347 17.1120452,4.1764044 Z" id="Combined-Shape" fill="#000000" fill-rule="nonzero"></path>
    </g>
</svg>