<?xml version="1.0" encoding="UTF-8"?>
<svg width="24px" height="24px" viewBox="0 0 24 24" version="1.1" xmlns="http://www.w3.org/2000/svg" xmlns:xlink="http://www.w3.org/1999/xlink">
    <title>03. tokens/Icon/m/type : hand_thumbs_down</title>
    <g id="03.-tokens/Icon/m/type-:-hand_thumbs_down" stroke="none" stroke-width="1" fill="none" fill-rule="evenodd">
        <rect id="background" x="0" y="0" width="24" height="24"></rect>
        <path d="M16.9185576,2.502 C17.5001778,2.50320955 18.0574963,2.73541636 18.4679088,3.14753894 C18.8783142,3.55965432 19.1082024,4.11792303 19.1070792,4.69490436 C19.1081681,4.96698612 19.0586923,5.23405665 18.9638006,5.4835364 C19.3177159,5.58442946 19.6440741,5.77515092 19.9092977,6.04092593 C20.3206891,6.45317264 20.5512027,7.01213228 20.5500248,7.58990436 C20.5522191,8.12569612 20.358284,8.64205503 20.0075806,9.0429182 L19.9141577,8.94073252 C20.3270757,9.35707728 20.5560562,9.92144729 20.5499984,10.4984391 C20.5511044,11.0298962 20.3592566,11.541865 20.0130385,11.9406452 L19.9109115,11.8295353 C20.3224347,12.2427697 20.5524121,12.8029028 20.5500295,13.3814636 C20.5512024,13.963077 20.3213142,14.5213457 19.9109088,14.9334611 C19.522097,15.323893 19.0014359,15.5528492 18.4518482,15.5768968 L18.36,15.579 L12.027,15.578 L12.0270423,16.7213234 L12.030271,16.7771144 C12.0586326,17.3487221 11.9933334,18.0196439 11.7500109,18.6829144 C11.3647975,19.7329641 10.6046774,20.4926631 9.42014304,20.7568177 L9.35334654,20.7687579 L9.26459297,20.7810194 C8.95972362,20.8177066 8.63272891,20.8100115 8.30395614,20.7219607 C7.68672921,20.556657 7.21281441,20.1325869 7.04239312,19.4509017 L7.02719504,19.3859261 L7.01427059,19.3208231 L7.00342863,19.253545 L6.994478,19.1820439 L6.98722757,19.1042722 L6.98148619,19.018182 L6.97706272,18.9217258 L6.97248045,18.7531254 L6.96919939,18.472931 L6.96635613,18.0184753 L6.96248776,17.751405 L6.95642381,17.5013424 L6.94785215,17.2663541 L6.93646063,17.0445069 L6.92193712,16.8338679 L6.90396947,16.6325037 C6.87757778,16.3693421 6.84116935,16.1257584 6.79141469,15.8811321 L6.75154425,15.6971447 C6.73738528,15.6355356 6.72234015,15.5735392 6.70635684,15.5108332 C6.32972123,14.0332107 5.51575434,12.9949354 4.05174368,12.4274428 L3.94345776,12.3867596 L3.45,12.2071341 L3.45,2.502 L16.9185576,2.502 Z M16.917,4.002 L4.95,4.002 L4.95,11.1786 L5.04068692,11.220542 C6.71658055,12.0137411 7.70888074,13.3709658 8.15988177,15.1403399 C8.3025679,15.7001283 8.38147293,16.1987692 8.42374135,16.7896081 L8.43875911,17.0312244 L8.45025502,17.284856 L8.45861513,17.552684 L8.46422551,17.8368891 L8.4674722,18.1396524 L8.47104634,18.6274219 L8.47518513,18.8177453 L8.47799096,18.8918443 L8.48320335,18.9798987 L8.48739046,19.0248824 L8.49218179,19.0602323 L8.49760688,19.0870983 C8.52606374,19.2009257 8.57017204,19.2403949 8.69200565,19.273024 C8.78870523,19.2989217 8.90636075,19.3056275 9.01877205,19.2980123 L9.11236849,19.2884422 L9.18448482,19.2710983 C9.77103194,19.1166285 10.1305388,18.7421252 10.3417811,18.1663017 C10.4907547,17.7602159 10.542726,17.3199453 10.5355185,16.9504013 L10.5300867,16.8169748 L10.527,16.7830575 L10.527,14.079 L11.459,14.079 L11.46,14.079 L18.3584424,14.0790016 C18.5422375,14.0786199 18.7183532,14.0052413 18.8480458,13.8750083 C18.97774,13.7447738 19.0503906,13.5683463 19.0500189,13.3799059 C19.0507792,13.1955974 18.9781004,13.0185808 18.8480531,12.8879927 C18.7418727,12.7813708 18.6045841,12.7128668 18.4574525,12.6913155 L18.4518482,12.6938968 L18.36,12.696 L14.76,12.696 L14.76,12.683 L14.034,12.684 L14.034,11.184 L18.357,11.184 L18.458,11.188 C18.6108269,11.1639943 18.7442917,11.0961947 18.8480458,10.9920083 C18.9777384,10.8617753 19.0503841,10.685356 19.0500405,10.492202 C19.0519672,10.306912 18.9796081,10.128568 18.8491237,9.99700078 C18.7316874,9.87858992 18.5759727,9.80694506 18.4097563,9.79408842 L18.354,9.79199345 L14.034,9.792 L14.034,8.292 L18.3524066,8.29199345 L18.364,8.292 L18.4676382,8.28311935 C18.6111627,8.25991124 18.7447744,8.19193511 18.8485617,8.08749916 C18.9782973,7.9569527 19.0507786,7.78015478 19.0500141,7.59146522 C19.0503907,7.40740591 18.9775424,7.23076013 18.8475367,7.10048412 C18.7305333,6.98323746 18.5758791,6.91221265 18.4119483,6.89918016 L18.357,6.897 L14.034,6.897 L14.034,5.397 L16.927,5.396 L17.0246382,5.38811935 C17.1681627,5.36491124 17.3017744,5.29693511 17.4055617,5.19249916 C17.5352973,5.0619527 17.6077786,4.88515478 17.6070141,4.69646364 C17.6073906,4.51265368 17.53474,4.33622623 17.4050458,4.20599171 C17.2883225,4.08878202 17.1339964,4.01762436 16.9714473,4.00428784 L16.917,4.002 Z" id="Combined-Shape" fill="#000000" fill-rule="nonzero"></path>
    </g>
</svg>