<?xml version="1.0" encoding="UTF-8"?>
<svg width="24px" height="24px" viewBox="0 0 24 24" version="1.1" xmlns="http://www.w3.org/2000/svg" xmlns:xlink="http://www.w3.org/1999/xlink">
    <title>03. tokens/Icon/m/type : hand_clap</title>
    <g id="03.-tokens/Icon/m/type-:-hand_clap" stroke="none" stroke-width="1" fill="none" fill-rule="evenodd">
        <rect id="background" x="0" y="0" width="24" height="24"></rect>
        <path d="M13.7726146,6.4009102 C14.2076667,6.58238906 14.5536319,6.90729694 14.764725,7.30787198 C15.275134,7.04476353 15.8858068,7.01189864 16.434405,7.23995875 C16.8404222,7.4087459 17.1691017,7.70243841 17.3831793,8.06634952 L17.4680707,7.97927401 C17.8160795,7.62915672 18.289348,7.43228465 18.783,7.43228465 C19.276652,7.43228465 19.7499205,7.62915672 20.0992377,7.98059358 C20.8021255,8.69125292 20.8201483,9.82412812 20.1520173,10.5577391 L20.0978446,10.6148113 L20.0238604,10.6894149 C20.1197027,10.7548913 20.2098362,10.8296774 20.2928355,10.9131796 C20.9996012,11.623975 21.0172703,12.7611999 20.3442526,13.494911 L20.3325156,13.5074952 C20.4266768,13.5723401 20.5153621,13.6462211 20.5972377,13.7285936 C21.3001255,14.4392529 21.3181483,15.5721281 20.6507061,16.3050454 L20.5965892,16.3620613 L17.798085,19.1845608 L14.933085,22.0795608 L13.866915,21.0244392 L16.7324108,18.1289387 L19.5307623,15.3065936 C19.6741144,15.1616565 19.6741144,14.9283435 19.5320707,14.784726 C19.4656224,14.7178751 19.3752572,14.6802847 19.281,14.6802847 C19.2263349,14.6802847 19.1729788,14.6929282 19.124838,14.7165904 L16.5081197,17.3305404 L15.4478803,16.2694596 L17.9789996,13.74 L17.9660707,13.727274 C18.02662,13.6663578 18.0909612,13.6100806 18.1585418,13.5586723 L19.2291645,12.4911796 C19.3722804,12.3472477 19.3722804,12.1147523 19.2290707,11.970726 C19.1626224,11.9038751 19.0722572,11.8662847 18.978,11.8662847 C18.9181095,11.8662847 18.8597903,11.8814609 18.8081996,11.9096561 L18.5288446,12.1928113 L18.5169996,12.181 L14.9530083,15.7686465 L13.8889917,14.7113535 L17.6630707,10.913274 C17.7179248,10.8580876 17.7758909,10.8067085 17.8365585,10.7593076 L19.0327623,9.55859358 C19.1761144,9.41365648 19.1761144,9.18034352 19.0340707,9.03672599 C18.9676224,8.96987511 18.8772572,8.93228465 18.783,8.93228465 C18.7022081,8.93228465 18.6242757,8.95990213 18.560806,9.01090151 L18.5303301,9.03833009 L16.7303301,10.8383301 L13.396266,14.1963871 L12.331734,13.1396129 L16.0067938,9.43759127 C16.1041835,9.33838549 16.1585218,9.2047692 16.1580375,9.06957197 C16.1563305,8.87477489 16.0384803,8.69981828 15.8586061,8.62504201 C15.6925696,8.55601828 15.5032975,8.58466358 15.3656056,8.69658493 L15.3323005,8.72629186 L15.3309996,8.725 L8.274,15.8439362 L8.27433145,12.829295 L8.25003166,12.0068913 C8.24832153,11.8207808 8.18637649,11.6408197 8.07436137,11.4935579 L8.0493,11.4633 L8.02771106,11.4434102 C7.9348528,11.3651989 7.82009464,11.3174677 7.69916097,11.306757 L7.647,11.3044523 C7.48965788,11.3044523 7.33881094,11.3671938 7.2284172,11.4782347 C7.12696391,11.5804913 7.06503023,11.7146679 7.0524043,11.8565011 L7.04999957,11.909 L7.05,17.199 L5.55,17.199 L5.55014392,11.1986984 C5.54648799,11.0121864 5.48381836,10.8321956 5.37197541,10.6842082 L5.3484,10.6551 L5.32667739,10.6352034 C5.23417958,10.5569788 5.11971216,10.5092169 4.99904707,10.4984987 L4.947,10.4961923 C4.78999633,10.4961923 4.63951319,10.5589819 4.52648774,10.6731724 C4.42598193,10.773738 4.36465276,10.9061364 4.35231212,11.0468771 L4.34999976,11.1 L4.34999976,16.377 L2.84999976,16.377 L2.84999976,11.1003152 C2.84976553,10.5424752 3.07117712,10.0073973 3.46292825,9.61542582 C3.85510806,9.21915931 4.38947677,8.99619233 4.947,8.99619233 C5.4751799,8.99619233 5.98257846,9.19630674 6.36798435,9.55430483 L6.43107175,9.61542582 L6.46311331,9.64990067 C6.5633841,9.76481536 6.65175584,9.88835115 6.72749422,10.0188962 C7.00928798,9.87905303 7.32428255,9.80445227 7.647,9.80445227 C7.93434273,9.80445227 8.21556287,9.86359465 8.47439972,9.97511611 L11.6197131,6.81369482 C12.1895412,6.2566362 13.0371571,6.09411935 13.7726146,6.4009102 Z M12.7074269,7.85082277 L12.6756576,7.87899928 L9.53708355,11.0337933 C9.65967948,11.301212 9.73145069,11.5891168 9.74668989,11.8804354 L9.75599957,12.209 L13.3425747,8.59777344 C13.4399906,8.49958317 13.4944567,8.36674083 13.4940218,8.23076193 C13.4927836,8.03575258 13.3751069,7.86036757 13.1951299,7.78529142 C13.0289982,7.71599077 12.83948,7.7445468 12.7074269,7.85082277 Z M9.69614526,3.60751274 L11.3461453,5.28151274 L10.2778547,6.33448726 L8.62785474,4.66048726 L9.69614526,3.60751274 Z M16.472376,3.60799892 L17.541624,4.66000108 L15.894624,6.33400108 L14.825376,5.28199892 L16.472376,3.60799892 Z M13.797,2.352 L13.797,4.719 L12.297,4.719 L12.297,2.352 L13.797,2.352 Z" id="Combined-Shape" fill="#000000" fill-rule="nonzero"></path>
    </g>
</svg>