<?xml version="1.0" encoding="UTF-8"?>
<svg width="24px" height="24px" viewBox="0 0 24 24" version="1.1" xmlns="http://www.w3.org/2000/svg" xmlns:xlink="http://www.w3.org/1999/xlink">
    <title>03. tokens/Icon/m/type : hand_detailclick</title>
    <g id="03.-tokens/Icon/m/type-:-hand_detailclick" stroke="none" stroke-width="1" fill="none" fill-rule="evenodd">
        <rect id="background" x="0" y="0" width="24" height="24"></rect>
        <path d="M10.419,5.81185476 C10.9857502,5.81185476 11.5289271,6.03867721 11.9248395,6.4391798 C12.3052371,6.82030925 12.5268621,7.33018414 12.5474466,7.86385289 L12.5490086,7.953 L12.5482287,11.6356857 C13.05112,11.5096501 13.5921864,11.5838903 14.0501041,11.8584062 C14.1243742,11.9029302 14.1950284,11.9518662 14.2618227,12.0047577 C14.3077446,11.9686001 14.3567738,11.9331927 14.4076413,11.8999147 L14.4738959,11.8584062 C15.1015589,11.4821301 15.8854411,11.4821301 16.5131041,11.8584062 C16.5892218,11.9040378 16.6615413,11.9543036 16.7298002,12.0087121 C16.7973268,11.9534838 16.8711291,11.9020264 16.9488959,11.8554062 C17.5765589,11.4791301 18.3604411,11.4791301 18.9881041,11.8554062 C19.5933505,12.2182439 19.9584585,12.8740822 19.9514091,13.5758346 L19.95,13.617 L19.95,22.152 L18.45,22.152 L18.45,13.617 L18.4509124,13.5800165 C18.459702,13.4019863 18.3697254,13.2335861 18.2168453,13.1419364 C18.0639652,13.0502867 17.8730348,13.0502867 17.7201547,13.1419364 C17.5800146,13.2259486 17.4927309,13.3744526 17.4859271,13.5357484 L17.4860876,13.5800165 L17.4761001,13.58 L17.475,13.6197 L17.475,15.387 L15.975,15.387 L15.975,13.62 L15.9759124,13.5830165 C15.984702,13.4049863 15.8947254,13.2365861 15.7418453,13.1449364 C15.5889652,13.0532867 15.3980348,13.0532867 15.2451547,13.1449364 C15.1079649,13.2271799 15.0214294,13.3712284 15.0114635,13.5285788 C15.0135335,13.5453323 15.0135775,13.5620704 15.0134091,13.5788346 L15.012,13.62 L15.012,15.36 L13.512,15.36 L13.512,13.6275 L13.5105909,13.5788346 L13.5111001,13.549 L13.5092427,13.4951146 C13.4899625,13.3509849 13.4062454,13.2213111 13.2788453,13.1449364 C13.1259652,13.0532867 12.9350348,13.0532867 12.7821547,13.1449364 C12.6440798,13.2277105 12.557315,13.3730897 12.5482802,13.5316259 L12.5490086,15.393 L11.0490086,15.393 L11.0490133,7.95037025 C11.0496067,7.7811169 10.9827201,7.61860983 10.8606302,7.49627285 C10.7439716,7.37826529 10.5849368,7.31185476 10.419,7.31185476 C10.2530632,7.31185476 10.0940284,7.37826529 9.97483948,7.4988202 C9.86856427,7.60529987 9.80390725,7.7455316 9.79126787,7.89425167 L9.78810015,7.949 L9.792,7.95 L9.792,19.0758271 L7.5726,16.8354 L6.93471229,16.2474922 L6.90722209,16.2208257 C6.74798731,16.058268 6.53959507,15.9539119 6.31541794,15.9231735 L6.2706,15.9183 L6.24045728,15.9194628 C5.97409525,15.9363636 5.73641387,16.0939924 5.6172146,16.3327934 L5.59498112,16.3816182 C5.48554092,16.6465624 5.53715929,16.9489231 5.72888773,17.1669841 L5.76909535,17.2094363 L9.91809535,21.3704363 L8.85590465,22.4295637 L4.71291451,18.2745233 C4.05793069,17.6323057 3.85839277,16.6567694 4.20860139,15.8089479 C4.54819762,14.9868181 5.33878647,14.4444164 6.22277761,14.4188945 L6.30591451,14.4180233 L6.35227537,14.419824 C6.93569331,14.4605877 7.48577236,14.7026534 7.90936609,15.1029929 L7.95128771,15.1445078 L8.2917,15.4581 L8.29110015,7.955 L8.28898281,7.95562975 C8.28700297,7.38723427 8.51162968,6.84148311 8.9106302,6.44172715 C9.30907287,6.03867721 9.85224977,5.81185476 10.419,5.81185476 Z M6.75038339,3.10975443 L8.49638339,4.88275443 L7.42761661,5.93524557 L5.68161661,4.16224557 L6.75038339,3.10975443 Z M13.9976166,3.10975443 L15.0663834,4.16224557 L13.3203834,5.93524557 L12.2516166,4.88275443 L13.9976166,3.10975443 Z M11.082,1.752 L11.082,4.257 L9.582,4.257 L9.582,1.752 L11.082,1.752 Z" id="Combined-Shape" fill="#000000" fill-rule="nonzero"></path>
    </g>
</svg>