<?xml version="1.0" encoding="UTF-8"?>
<svg width="24px" height="24px" viewBox="0 0 24 24" version="1.1" xmlns="http://www.w3.org/2000/svg" xmlns:xlink="http://www.w3.org/1999/xlink">
    <title>03. tokens/Icon/m/type : headphone</title>
    <g id="03.-tokens/Icon/m/type-:-headphone" stroke="none" stroke-width="1" fill="none" fill-rule="evenodd">
        <rect id="background" x="0" y="0" width="24" height="24"></rect>
        <path d="M12.9,2.25 C15.088036,2.25 17.1864558,3.11919393 18.7336309,4.66636906 C20.2471718,6.17990994 21.1118886,8.22098883 21.1487696,10.3574338 L21.15,10.5 L21.15,13.5 C21.15,15.688036 20.2808061,17.7864558 18.7336309,19.3336309 C17.2200901,20.8471718 15.1790112,21.7118886 13.0425662,21.7487696 L12.9,21.75 L12.9,20.25 C14.6902113,20.25 16.4071002,19.5388413 17.6729708,18.2729708 C18.9063831,17.0395584 19.6131656,15.3779604 19.6486,13.6375576 L19.65,13.5 L19.65,10.5 C19.65,8.70978869 18.9388413,6.99289978 17.6729708,5.72702923 C16.4395584,4.49361689 14.7779604,3.78683438 13.0375576,3.75140004 L12.9,3.75 L11.1,3.75 C7.40935716,3.75 4.41051214,6.71193859 4.35090431,10.3883764 L4.35,15.6 L2.85,15.6 L2.85,10.5 C2.85,5.98921431 6.47014716,2.32395929 10.9635712,2.25110526 L11.1,2.25 L12.9,2.25 Z M7.65,10.2 L7.65,15.6 L6.15,15.6 L6.15,10.2 L7.65,10.2 Z M17.55,10.2 L17.55,15.6 L16.05,15.6 L16.05,10.2 L17.55,10.2 Z" id="Combined-Shape" fill="#000000" fill-rule="nonzero"></path>
    </g>
</svg>