<?xml version="1.0" encoding="utf-8"?>
<!-- Generator: Adobe Illustrator 24.1.2, SVG Export Plug-In . SVG Version: 6.00 Build 0)  -->
<svg version="1.1" id="Layer_1" xmlns="http://www.w3.org/2000/svg" xmlns:xlink="http://www.w3.org/1999/xlink" x="0px" y="0px"
	 viewBox="0 0 20 20" style="enable-background:new 0 0 20 20;" xml:space="preserve">
<style type="text/css">
	.st0{fill:none;}
</style>
<rect id="background" class="st0" width="20" height="20"/>
<g>
	<path d="M10,17.8L3.1,10C2.4,9.3,2,8.3,2,7.2c0-2.3,2-4.3,4.3-4.3c1.6,0,3,0.9,3.7,2.3C10.7,3.9,12.1,3,13.7,3
		C16.1,3,18,4.8,18,7.2c0,1-0.4,2-1.1,2.8L10,17.8z M6.3,3.9C4.6,3.9,3,5.5,3,7.2c0,0.6,0.1,1.4,0.9,2.1l6.1,6.9l6.1-6.9
		C16.7,8.7,17,7.9,17,7.2C17,5.4,15.6,4,13.7,4c-1.8,0-3.2,1.4-3.2,3.2h-1C9.5,5.4,8,3.9,6.3,3.9z"/>
</g>
</svg>
