<?xml version="1.0" encoding="UTF-8"?>
<svg width="24px" height="24px" viewBox="0 0 24 24" version="1.1" xmlns="http://www.w3.org/2000/svg" xmlns:xlink="http://www.w3.org/1999/xlink">
    <title>03. tokens/Icon/m/type : lightening_xmark</title>
    <g id="03.-tokens/Icon/m/type-:-lightening_xmark" stroke="none" stroke-width="1" fill="none" fill-rule="evenodd">
        <rect id="background" x="0" y="0" width="24" height="24"></rect>
        <path d="M12.1089484,1.98400581 L11.4726,10.149 L17.2243508,10.149 L7.09262965,22.0401459 L7.7283,13.719 L1.9597642,13.719 L12.1089484,1.98400581 Z M19.5696699,14.4696699 L20.6303301,15.5303301 L18.7607642,17.4000058 L20.6303301,19.2696699 L19.5696699,20.3303301 L17.7,18.4605 L15.8303301,20.3303301 L14.7696699,19.2696699 L16.6387642,17.4000058 L14.7696699,15.5303301 L15.8303301,14.4696699 L17.7,16.3395 L19.5696699,14.4696699 Z M10.2588,6.4158 L5.2398,12.219 L9.34749886,12.219 L8.9391,17.5599 L13.9755,11.649 L9.85128494,11.649 L10.2588,6.4158 Z" id="Combined-Shape" fill="#000000" fill-rule="nonzero"></path>
    </g>
</svg>