<?xml version="1.0" encoding="UTF-8"?>
<svg width="24px" height="24px" viewBox="0 0 24 24" version="1.1" xmlns="http://www.w3.org/2000/svg" xmlns:xlink="http://www.w3.org/1999/xlink">
    <title>03. tokens/Icon/m/type : location</title>
    <g id="03.-tokens/Icon/m/type-:-location" stroke="none" stroke-width="1" fill="none" fill-rule="evenodd">
        <rect id="background" x="0" y="0" width="24" height="24"></rect>
        <path d="M16.95,20.25 L16.95,21.75 L7.05,21.75 L7.05,20.25 L16.95,20.25 Z M12,2.50671872 C14.7303057,2.50671872 17.1917296,4.151524 18.2363819,6.67407639 C19.2810341,9.19662879 18.7031591,12.1000841 16.7723301,14.0303301 L16.7723301,14.0303301 L12,18.8026602 L7.22775,14.0304102 C5.29684085,12.1000841 4.71896586,9.19662879 5.76361815,6.67407639 C6.80827044,4.151524 9.26969434,2.50671872 12,2.50671872 Z M12,4.00671872 C9.87642893,4.00671872 7.96198812,5.28601171 7.14948078,7.24799691 C6.33697344,9.20998211 6.78643177,11.4682251 8.28833009,12.9696699 L8.28833009,12.9696699 L11.9997,16.6812 L15.71175,12.9695898 C17.18675,11.4950352 17.6466389,9.29039229 16.8928404,7.35338067 L16.8928404,7.35338067 L16.8505192,7.24799691 C16.0380119,5.28601171 14.1235711,4.00671872 12,4.00671872 Z M12,6.15 C13.739697,6.15 15.15,7.56030304 15.15,9.3 C15.15,11.039697 13.739697,12.45 12,12.45 C10.260303,12.45 8.85,11.039697 8.85,9.3 C8.85,7.56030304 10.260303,6.15 12,6.15 Z M12,7.65 C11.0887302,7.65 10.35,8.38873016 10.35,9.3 C10.35,10.2112698 11.0887302,10.95 12,10.95 C12.9112698,10.95 13.65,10.2112698 13.65,9.3 C13.65,8.38873016 12.9112698,7.65 12,7.65 Z" id="Combined-Shape" fill="#000000" fill-rule="nonzero"></path>
    </g>
</svg>