<?xml version="1.0" encoding="UTF-8"?>
<svg width="24px" height="24px" viewBox="0 0 24 24" version="1.1" xmlns="http://www.w3.org/2000/svg" xmlns:xlink="http://www.w3.org/1999/xlink">
    <title>03. tokens/Icon/m/type : lock</title>
    <g id="03.-tokens/Icon/m/type-:-lock" stroke="none" stroke-width="1" fill="none" fill-rule="evenodd">
        <rect id="background" x="0" y="0" width="24" height="24"></rect>
        <path d="M12.0087095,2.85005057 C14.1981216,2.8754773 15.9728013,4.61924293 16.0478135,6.80470545 L16.05,6.9 L16.05,9.44905057 L18.75,9.45 L18.75,21.15 L5.25,21.15 L5.25,9.45 L7.95,9.44905057 L7.95,6.89129046 C7.97584581,4.67014778 9.77014778,2.87584581 12.0087095,2.85005057 Z M17.25,10.95 L6.75,10.95 L6.75,19.65 L17.25,19.65 L17.25,10.95 Z M12.75,13.8 L12.75,17.4 L11.25,17.4 L11.25,13.8 L12.75,13.8 Z M12.0087095,4.34994943 C10.6284095,4.36597954 9.50845186,5.46067289 9.45205122,6.82262821 L9.45,6.9 L9.45,9.44905057 L14.55,9.44905057 L14.5500506,6.90870954 C14.533718,5.50236607 13.3976339,4.36628199 12.0087095,4.34994943 Z" id="Combined-Shape" fill="#000000" fill-rule="nonzero"></path>
    </g>
</svg>