<?xml version="1.0" encoding="UTF-8"?>
<svg width="24px" height="24px" viewBox="0 0 24 24" version="1.1" xmlns="http://www.w3.org/2000/svg" xmlns:xlink="http://www.w3.org/1999/xlink">
    <title>03. tokens/Icon/m/type : market</title>
    <g id="03.-tokens/Icon/m/type-:-market" stroke="none" stroke-width="1" fill="none" fill-rule="evenodd">
        <rect id="background" x="0" y="0" width="24" height="24"></rect>
        <path d="M21.0026064,3.45 L21.7503384,8.22074102 L21.7478498,8.38241069 C21.717148,9.22303557 21.3651664,10.0214836 20.7622634,10.611753 C20.4404352,10.9268375 20.0608158,11.1691844 19.6508462,11.3286404 L19.65,20.55 L4.35,20.55 L4.34945544,11.3295777 C3.12635365,10.8560627 2.25658245,9.67116609 2.25000838,8.28054554 L2.25000838,8.28054554 L2.24974046,8.22387157 L2.95229698,3.45 L21.0026064,3.45 Z M11.9847,10.7685 L11.9361014,10.8088578 C11.3749005,11.2612353 10.6753724,11.5254414 9.93911662,11.5475607 L9.93911662,11.5475607 L9.8385,11.5490713 C9.06550687,11.5490713 8.32760863,11.281798 7.74089858,10.8088578 L7.74089858,10.8088578 L7.6935,10.7697 L7.64510441,10.8104005 C7.0833694,11.2649971 6.38227005,11.5294869 5.64712,11.5488757 L5.84974046,11.536 L5.85,19.05 L9.14974046,19.049 L9.15,14.25 L14.85,14.25 L14.8497405,19.049 L18.15,19.05 L18.1501586,11.5396713 C17.4759134,11.4863618 16.8395848,11.2289628 16.3220545,10.8104005 L16.3220545,10.8104005 L16.2732,10.7697 L16.2269396,10.8086745 C15.6660691,11.2612203 14.9667215,11.5255657 14.2305988,11.5476968 L14.2305988,11.5476968 L14.13,11.5492083 C13.3571417,11.5492083 12.619425,11.2817906 12.0330604,10.8086745 L12.0330604,10.8086745 L11.9847,10.7685 Z M13.35,15.75 L10.65,15.75 L10.6497405,19.049 L13.3497405,19.049 L13.35,15.75 Z M7.04974046,4.95 L4.2477,4.95 L3.7512,8.3238 L3.75153702,8.34031238 C3.79026337,9.27200231 4.54260555,10.0180141 5.47979165,10.049015 L5.47979165,10.049015 L5.54704074,10.0500062 C6.15764932,10.0524818 6.72899296,9.74925471 7.06916661,9.242174 L7.04974046,9.268 L7.04974046,4.95 Z M19.7193,4.95 L16.9497405,4.95 L16.9489728,9.31454853 C17.2606623,9.73368868 17.7371749,9.9982046 18.2655001,10.0432405 L18.4345374,10.0500887 C18.9116602,10.0574293 19.3719224,9.87374776 19.7128926,9.53992241 C20.0538628,9.20609706 20.2472488,8.74982741 20.2500126,8.27265612 L20.2467405,8.322 L19.7193,4.95 Z M15.4497405,4.95 L12.7497405,4.95 L12.7492799,9.42495616 C13.0597146,9.77787272 13.4947703,9.99938801 13.9645664,10.0417664 L14.13,10.0492083 C14.6323989,10.0492083 15.1078356,9.84403426 15.4510751,9.4895765 L15.4497405,4.95 Z M11.2497405,4.95 L8.54974046,4.95 L8.54972439,9.52317435 C8.85160903,9.81879575 9.24809162,10.0033338 9.67291472,10.0416279 L9.8385,10.0490713 C10.3864716,10.0490713 10.902445,9.80538156 11.2502794,9.39024707 L11.2497405,4.95 Z" id="Combined-Shape" fill="#000000" fill-rule="nonzero"></path>
    </g>
</svg>