<?xml version="1.0" encoding="UTF-8"?>
<svg width="24px" height="24px" viewBox="0 0 24 24" version="1.1" xmlns="http://www.w3.org/2000/svg" xmlns:xlink="http://www.w3.org/1999/xlink">
    <title>03. tokens/Icon/m/type : market_plusmark_circle</title>
    <g id="03.-tokens/Icon/m/type-:-market_plusmark_circle" stroke="none" stroke-width="1" fill="none" fill-rule="evenodd">
        <rect id="background" x="0" y="0" width="24" height="24"></rect>
        <path d="M19.8199434,3.45 L20.5500008,8.21963564 L20.5500008,8.27639354 C20.5503603,8.72178641 20.4583537,9.15899839 20.2833855,9.56172616 C21.8909962,10.6361637 22.95,12.46941 22.95,14.55 C22.95,17.8637085 20.2637085,20.55 16.95,20.55 L17.0997331,20.547 L17.1,20.55 L16.9947331,20.549 L16.95,20.55 C16.9349377,20.55 16.9198883,20.5499445 16.9048521,20.5498337 L3.15,20.55 L3.15016238,11.3290389 C2.7352331,11.1685829 2.35317437,10.9239817 2.03000963,10.6057364 C1.43174608,10.0165799 1.08274914,9.22173542 1.05216749,8.38527066 L1.0500082,8.28050767 L1.04973307,8.2216811 L1.7800566,3.45 L19.8199434,3.45 Z M10.7982,10.7577 L10.7511014,10.7968578 C10.1899005,11.2492353 9.4903724,11.5134414 8.75411662,11.5355607 L8.6535,11.5370713 C7.88050687,11.5370713 7.14260863,11.269798 6.55589858,10.7968578 L6.5124,10.761 L6.46658776,10.8000185 C5.95246384,11.2212974 5.31953336,11.4819039 4.65084574,11.5383637 L4.65,19.05 L12.9810348,19.0497982 C11.7355362,17.9503865 10.95,16.3419292 10.95,14.55 C10.95,13.3774117 11.2863688,12.2833865 11.8678792,11.3591515 C11.4969783,11.2351117 11.1509291,11.0443382 10.8461317,10.7976487 L10.7982,10.7577 Z M16.95,10.05 C14.4647186,10.05 12.45,12.0647186 12.45,14.55 C12.45,17.0352814 14.4647186,19.05 16.95,19.05 L16.9077331,19.049 L16.9921574,19.0498066 C19.3871705,19.027827 21.3351336,17.1348552 21.445102,14.7618357 L21.45,14.55 C21.45,12.0647186 19.4352814,10.05 16.95,10.05 Z M17.85,11.7 L17.85,13.95 L20.1,13.95 L20.1,15.45 L17.8497331,15.45 L17.85,17.7 L16.35,17.7 L16.35,15.45 L14.1,15.45 L14.1,13.95 L16.3497331,13.95 L16.35,11.7 L17.85,11.7 Z M5.84973307,4.949 L3.0678,4.95 L2.5512,8.3256 L2.55234188,8.35712791 C2.57383828,8.77403619 2.74087581,9.17036262 3.0242802,9.47688598 L3.08250399,9.53697276 C3.42113299,9.870447 3.87876791,10.0551098 4.36325256,10.050001 C4.94867621,10.0509787 5.49693721,9.76966921 5.83779065,9.29750467 L5.84973307,9.279 L5.84973307,4.949 Z M14.2497331,4.949 L11.5497331,4.949 L11.5486288,9.39633808 C11.8941023,9.80218217 12.4037149,10.0395653 12.9494229,10.038013 L12.9952388,10.0377034 C13.3743087,9.70520398 13.7956335,9.41970843 14.2501113,9.19031867 L14.2497331,4.949 Z M10.0497331,4.949 L7.34973307,4.949 L7.35008153,9.49667374 C7.69225229,9.83933714 8.15989419,10.0370713 8.6535,10.0370713 C9.19413763,10.0370713 9.70362785,9.7998609 10.0512234,9.394823 L10.0497331,4.949 Z M18.5319,4.95 L15.7497331,4.949 L15.7502955,8.66996176 C16.0668796,8.60571524 16.3925142,8.56639494 16.7250617,8.55413847 L16.95,8.55 C17.6461635,8.55 18.3146354,8.66856243 18.9363248,8.88659663 C19.0018914,8.72074623 19.0391447,8.54352041 19.0479597,8.36276393 L19.0488,8.3274 L18.5319,4.95 Z" id="Combined-Shape" fill="#000000" fill-rule="nonzero"></path>
    </g>
</svg>