<?xml version="1.0" encoding="UTF-8"?>
<svg width="24px" height="24px" viewBox="0 0 24 24" version="1.1" xmlns="http://www.w3.org/2000/svg" xmlns:xlink="http://www.w3.org/1999/xlink">
    <title>03. tokens/Icon/m/type : medal</title>
    <g id="03.-tokens/Icon/m/type-:-medal" stroke="none" stroke-width="1" fill="none" fill-rule="evenodd">
        <rect id="background" x="0" y="0" width="24" height="24"></rect>
        <path d="M17.55,2.25 L17.55,9.29561559 L13.6832897,10.9098597 C15.9255334,11.6226991 17.55,13.7216423 17.55,16.2 C17.55,19.2651804 15.0651804,21.75 12,21.75 C8.93481964,21.75 6.45,19.2651804 6.45,16.2 C6.45,13.72127 8.07495471,11.6220684 10.317721,10.9095385 L6.45,9.29561559 L6.45,2.25 L17.55,2.25 Z M12,12.15 C9.76324676,12.15 7.95,13.9632468 7.95,16.2 C7.95,18.4367532 9.76324676,20.25 12,20.25 C14.2367532,20.25 16.05,18.4367532 16.05,16.2 C16.05,13.9632468 14.2367532,12.15 12,12.15 Z M16.05,6.75 L7.95,6.75 L7.95,8.2962 L12,9.987 L16.05,8.2959 L16.05,6.75 Z M16.05,3.75 L7.95,3.75 L7.95,5.25 L16.05,5.25 L16.05,3.75 Z" id="Combined-Shape" fill="#000000" fill-rule="nonzero"></path>
    </g>
</svg>