<?xml version="1.0" encoding="UTF-8"?>
<svg width="24px" height="24px" viewBox="0 0 24 24" version="1.1" xmlns="http://www.w3.org/2000/svg" xmlns:xlink="http://www.w3.org/1999/xlink">
    <title>03. tokens/Icon/m/type : mic</title>
    <g id="03.-tokens/Icon/m/type-:-mic" stroke="none" stroke-width="1" fill="none" fill-rule="evenodd">
        <rect id="background" x="0" y="0" width="24" height="24"></rect>
        <path d="M6.3,11.4 C6.3,14.278802 8.84454076,16.65 12,16.65 C15.1203986,16.65 17.6433792,14.3312025 17.6990602,11.4957695 L17.7,11.4 L19.2,11.4 C19.2,14.8930575 16.3623191,17.7608967 12.7507261,18.113544 L12.75,20.4 L11.25,20.4 L11.2505186,18.1136654 C7.67691913,17.7653169 4.8607279,14.9544471 4.80096914,11.5117377 L4.8,11.4 L6.3,11.4 Z M12,2.85 C14.3866548,2.85 16.35,4.62232312 16.35,6.849 L16.35,6.849 L16.35,11.448 C16.35,13.6388357 14.4514051,15.3952139 12.1015165,15.4488897 L12.1015165,15.4488897 L12,15.45 C9.61273778,15.45 7.65,13.6770952 7.65,11.448 L7.65,11.448 L7.65,6.849 C7.65,4.62232312 9.61334519,2.85 12,2.85 Z M12,4.35 C10.4094756,4.35 9.15,5.48693595 9.15,6.849 L9.15,6.849 L9.15,11.448 C9.15,12.8127182 10.4090557,13.9500489 11.9914363,13.9500489 L11.9914363,13.9500489 L12.0758102,13.9491345 C13.6338012,13.9135146 14.85,12.7884168 14.85,11.448 L14.85,11.448 L14.85,6.849 C14.85,5.48693595 13.5905244,4.35 12,4.35 Z" id="Combined-Shape" fill="#000000" fill-rule="nonzero"></path>
    </g>
</svg>