<?xml version="1.0" encoding="UTF-8"?>
<svg width="24px" height="24px" viewBox="0 0 24 24" version="1.1" xmlns="http://www.w3.org/2000/svg" xmlns:xlink="http://www.w3.org/1999/xlink">
    <title>03. tokens/Icon/m/type : moon</title>
    <g id="03.-tokens/Icon/m/type-:-moon" stroke="none" stroke-width="1" fill="none" fill-rule="evenodd">
        <rect id="background" x="0" y="0" width="24" height="24"></rect>
        <path d="M8.76108065,2.38110204 L8.30579913,4.09278545 C7.4080038,7.46815057 8.20579018,10.88313 10.5113301,13.1886699 C12.8193383,15.4966781 16.2411143,16.2934263 19.6040224,15.3830575 L19.6040224,15.3830575 L21.3218682,14.9180215 L20.4550166,16.4723126 C18.4467989,20.0731076 14.3864662,22.0164607 10.3224373,21.3219594 C6.25840848,20.6274581 3.07384947,17.4460266 2.37535539,13.3826821 C1.6768613,9.31933759 3.61622395,5.25709742 7.21504396,3.2453427 L7.21504396,3.2453427 L8.76108065,2.38110204 Z M6.5106,5.5728 L6.45533262,5.62220383 C4.38850126,7.48322663 3.36839829,10.305577 3.85367224,13.1285576 C4.44444052,16.5652296 7.13785841,19.2560023 10.5751092,19.8433936 C13.3985652,20.3258935 16.2199119,19.3030179 18.078903,17.234359 L18.078903,17.234359 L18.1236,17.1837 L18.0353326,17.1931418 C14.8740442,17.5088021 11.7937948,16.5262102 9.55656444,14.3536828 L9.55656444,14.3536828 L9.45066991,14.2493301 C7.20821114,12.0068713 6.18904702,8.88628253 6.50067623,5.67139194 L6.50067623,5.67139194 L6.5106,5.5728 Z M17.7,6.9 L18.762,8.838 L20.7,9.9 L18.762,10.962 L17.7,12.9 L16.638,10.962 L14.7,9.9 L16.638,8.838 L17.7,6.9 Z M13.2,3.3 L13.731,4.269 L14.7,4.8 L13.731,5.331 L13.2,6.3 L12.669,5.331 L11.7,4.8 L12.669,4.269 L13.2,3.3 Z" id="Combined-Shape" fill="#000000" fill-rule="nonzero"></path>
    </g>
</svg>