<?xml version="1.0" encoding="UTF-8"?>
<svg width="24px" height="24px" viewBox="0 0 24 24" version="1.1" xmlns="http://www.w3.org/2000/svg" xmlns:xlink="http://www.w3.org/1999/xlink">
    <title>03. tokens/Icon/m/type : my_activity</title>
    <g id="03.-tokens/Icon/m/type-:-my_activity" stroke="none" stroke-width="1" fill="none" fill-rule="evenodd">
        <rect id="background" x="0" y="0" width="24" height="24"></rect>
        <path d="M18.45,4.65 L18.450547,11.3194109 C20.3287016,11.6713505 21.75,13.3196943 21.75,15.3 C21.75,17.5367532 19.9367532,19.35 17.7,19.35 C16.0511933,19.35 14.6325114,18.3647187 14.0006125,16.9508144 L5.3403,16.95 L2.25,19.157392 L2.25,4.65 L18.45,4.65 Z M17.7,12.75 C16.2916739,12.75 15.15,13.8916739 15.15,15.3 C15.15,16.7083261 16.2916739,17.85 17.7,17.85 C19.1083261,17.85 20.25,16.7083261 20.25,15.3 C20.25,13.8916739 19.1083261,12.75 17.7,12.75 Z M18.45,13.2 L18.45,14.9895 L19.7303301,16.2696699 L18.6696699,17.3303301 L16.95,15.6106602 L16.95,13.2 L18.45,13.2 Z M16.95,6.15 L3.75,6.15 L3.75,16.2423 L4.85965121,15.45 L13.653,15.45 L13.65,15.3 C13.65,13.3193449 15.0717999,11.6707689 16.9504471,11.3192248 L16.95,6.15 Z M10.2,12.45 L10.2,13.95 L6.3,13.95 L6.3,12.45 L10.2,12.45 Z M14.1,10.05 L14.1,11.55 L6.3,11.55 L6.3,10.05 L14.1,10.05 Z M14.1,7.65 L14.1,9.15 L6.3,9.15 L6.3,7.65 L14.1,7.65 Z" id="Combined-Shape" fill="#000000" fill-rule="nonzero"></path>
    </g>
</svg>