<?xml version="1.0" encoding="UTF-8"?>
<svg width="24px" height="24px" viewBox="0 0 24 24" version="1.1" xmlns="http://www.w3.org/2000/svg" xmlns:xlink="http://www.w3.org/1999/xlink">
    <title>03. tokens/Icon/m/type : nut</title>
    <g id="03.-tokens/Icon/m/type-:-nut" stroke="none" stroke-width="1" fill="none" fill-rule="evenodd">
        <rect id="background" x="0" y="0" width="24" height="24"></rect>
        <path d="M17.537047,2.25 L23.062047,12 L17.537047,21.75 L6.46295302,21.75 L0.937953018,12 L6.46295302,2.25 L17.537047,2.25 Z M16.6629,3.75 L7.3368,3.75 L2.6619,12 L7.3371,20.25 L16.6626,20.25 L21.3378,12 L16.6629,3.75 Z M12,7.95 C14.2367532,7.95 16.05,9.76324676 16.05,12 C16.05,14.2367532 14.2367532,16.05 12,16.05 C9.76324676,16.05 7.95,14.2367532 7.95,12 C7.95,9.76324676 9.76324676,7.95 12,7.95 Z M12,9.45 C10.5916739,9.45 9.45,10.5916739 9.45,12 C9.45,13.4083261 10.5916739,14.55 12,14.55 C13.4083261,14.55 14.55,13.4083261 14.55,12 C14.55,10.5916739 13.4083261,9.45 12,9.45 Z" id="Combined-Shape" fill="#000000" fill-rule="nonzero"></path>
    </g>
</svg>