<?xml version="1.0" encoding="UTF-8"?>
<svg width="24px" height="24px" viewBox="0 0 24 24" version="1.1" xmlns="http://www.w3.org/2000/svg" xmlns:xlink="http://www.w3.org/1999/xlink">
    <title>03. tokens/Icon/m/type : paper_pencil</title>
    <g id="03.-tokens/Icon/m/type-:-paper_pencil" stroke="none" stroke-width="1" fill="none" fill-rule="evenodd">
        <rect id="background" x="0" y="0" width="24" height="24"></rect>
        <path d="M17.55,3.45 L17.55,9.106 L19.449279,7.23203375 L22.4933719,10.2391726 L17.55,15.119 L17.55,20.55 L3.45,20.55 L3.45,3.45 L17.55,3.45 Z M16.05,4.95 L4.95,4.95 L4.95,19.05 L16.05,19.05 L16.05,16.599 L14.4553663,18.1744666 L11.418,18.1698645 L11.418,15.1574203 L16.05,10.586 L16.05,4.95 Z M17.406,11.355 L12.918,15.7842 L12.918,16.6722 L13.8402,16.6734 L18.317,12.253 L17.406,11.355 Z M10.8,14.85 L10.8,16.35 L7.2,16.35 L7.2,14.85 L10.8,14.85 Z M13.8,11.25 L13.8,12.75 L7.2,12.75 L7.2,11.25 L13.8,11.25 Z M19.4487,9.3396 L18.473,10.301 L19.384,11.2 L20.3586,10.2384 L19.4487,9.3396 Z M13.8,7.65 L13.8,9.15 L7.2,9.15 L7.2,7.65 L13.8,7.65 Z" id="Combined-Shape" fill="#000000" fill-rule="nonzero"></path>
    </g>
</svg>