<?xml version="1.0" encoding="UTF-8"?>
<svg width="24px" height="24px" viewBox="0 0 24 24" version="1.1" xmlns="http://www.w3.org/2000/svg" xmlns:xlink="http://www.w3.org/1999/xlink">
    <title>03. tokens/Icon/m/type : paper_cut</title>
    <g id="03.-tokens/Icon/m/type-:-paper_cut" stroke="none" stroke-width="1" fill="none" fill-rule="evenodd">
        <rect id="background" x="0" y="0" width="24" height="24"></rect>
        <path d="M18.75,2.85 L18.75,20.4990381 L17.625,19.8495191 C16.0934647,18.9652867 14.2065353,18.9652867 12.6586262,19.8587012 C10.0028186,21.3046409 7.85659124,21.3813428 6.27429274,20.5844506 C5.88551465,20.3886504 5.61597801,20.1821306 5.46028578,20.0207769 L5.46028578,20.0207769 L5.25,19.8028443 L5.25,2.85 L18.75,2.85 Z M17.25,4.35 L6.75,4.35 L6.75,19.1343 C6.79290172,19.1606238 6.84044694,19.1879639 6.89376186,19.2162228 L6.89376186,19.2162228 L6.94900023,19.2447604 C8.08151794,19.8151297 9.70848027,19.7569853 11.925,18.5504809 C13.5510745,17.6116664 15.4846047,17.4378118 17.2245517,18.0289173 L17.2245517,18.0289173 L17.25,18.0378 L17.25,4.35 Z M12,11.55 L12,13.05 L8.4,13.05 L8.4,11.55 L12,11.55 Z M15.6,8.85 L15.6,10.35 L8.4,10.35 L8.4,8.85 L15.6,8.85 Z M15.6,6.15 L15.6,7.65 L8.4,7.65 L8.4,6.15 L15.6,6.15 Z" id="Combined-Shape" fill="#000000" fill-rule="nonzero"></path>
    </g>
</svg>