<?xml version="1.0" encoding="UTF-8"?>
<svg width="24px" height="24px" viewBox="0 0 24 24" version="1.1" xmlns="http://www.w3.org/2000/svg" xmlns:xlink="http://www.w3.org/1999/xlink">
    <title>03. tokens/Icon/m/type : person_tie</title>
    <g id="03.-tokens/Icon/m/type-:-person_tie" stroke="none" stroke-width="1" fill="none" fill-rule="evenodd">
        <rect id="background" x="0" y="0" width="24" height="24"></rect>
        <path d="M12,10.3500001 C17.0028714,10.3500001 21.0679724,14.3650724 21.1487742,19.3486881 L21.15,19.5000001 L19.65,19.5000001 C19.65,15.6084723 16.7442743,12.3956132 12.9841126,11.9127124 L14.3300775,17.3305826 L12,19.6606602 L9.66992247,17.3305826 L11.0154718,11.9127657 C7.29633445,12.390605 4.41319253,15.5391738 4.35102488,19.3734934 L4.35,19.5000001 L2.85,19.5000001 C2.85,14.4465946 6.94659455,10.3500001 12,10.3500001 Z M12,14.1729 L11.3298,16.8693 L12,17.5395 L12.6699,16.8693 L12,14.1729 Z M12,3.3 C13.8225397,3.3 15.3,4.77746033 15.3,6.6 C15.3,8.42253967 13.8225397,9.9 12,9.9 C10.1774603,9.9 8.7,8.42253967 8.7,6.6 C8.7,4.77746033 10.1774603,3.3 12,3.3 Z M12,4.8 C11.0058875,4.8 10.2,5.60588745 10.2,6.6 C10.2,7.59411255 11.0058875,8.4 12,8.4 C12.9941125,8.4 13.8,7.59411255 13.8,6.6 C13.8,5.60588745 12.9941125,4.8 12,4.8 Z" id="Combined-Shape" fill="#000000" fill-rule="nonzero"></path>
    </g>
</svg>