<?xml version="1.0" encoding="utf-8"?>
<!-- Generator: Adobe Illustrator 24.1.2, SVG Export Plug-In . SVG Version: 6.00 Build 0)  -->
<svg version="1.1" id="Layer_1" xmlns="http://www.w3.org/2000/svg" xmlns:xlink="http://www.w3.org/1999/xlink" x="0px" y="0px"
	 viewBox="0 0 20 20" style="enable-background:new 0 0 20 20;" xml:space="preserve">
<style type="text/css">
	.st0{fill:none;}
</style>
<rect class="st0" width="20" height="20"/>
<path d="M10,3C8.6,3,7.5,4.1,7.5,5.5S8.6,8,10,8s2.5-1.1,2.5-2.5S11.4,3,10,3z M10,7C9.2,7,8.5,6.3,8.5,5.5S9.2,4,10,4
	s1.5,0.7,1.5,1.5S10.8,7,10,7z"/>
<path d="M10,10c3.3,0,6,2.7,6,6h1c0-3.9-3.1-7-7-7s-7,3.1-7,7h1C4,12.7,6.7,10,10,10z"/>
</svg>
