<?xml version="1.0" encoding="UTF-8"?>
<svg width="24px" height="24px" viewBox="0 0 24 24" version="1.1" xmlns="http://www.w3.org/2000/svg" xmlns:xlink="http://www.w3.org/1999/xlink">
    <title>03. tokens/Icon/m/type : person_list</title>
    <g id="03.-tokens/Icon/m/type-:-person_list" stroke="none" stroke-width="1" fill="none" fill-rule="evenodd">
        <rect id="background" x="0" y="0" width="24" height="24"></rect>
        <path d="M10.8,10.65 C15.8028714,10.65 19.8679724,14.6650723 19.9487742,19.648688 L19.95,19.8 L18.45,19.8 C18.45,15.5750217 15.0249783,12.15 10.8,12.15 C6.61727145,12.15 3.21858043,15.5068637 3.15102488,19.6734933 L3.15,19.8 L1.65,19.8 C1.65,14.7465945 5.74659454,10.65 10.8,10.65 Z M19.5,8.85 L19.5,10.35 L16.5,10.35 L16.5,8.85 L19.5,8.85 Z M10.8,3.6 C12.6225397,3.6 14.1,5.07746033 14.1,6.9 C14.1,8.72253967 12.6225397,10.2 10.8,10.2 C8.97746033,10.2 7.5,8.72253967 7.5,6.9 C7.5,5.07746033 8.97746033,3.6 10.8,3.6 Z M10.8,5.1 C9.80588745,5.1 9,5.90588745 9,6.9 C9,7.89411255 9.80588745,8.7 10.8,8.7 C11.7941125,8.7 12.6,7.89411255 12.6,6.9 C12.6,5.90588745 11.7941125,5.1 10.8,5.1 Z M22.5,6.45 L22.5,7.95 L16.5,7.95 L16.5,6.45 L22.5,6.45 Z M22.5,4.05 L22.5,5.55 L16.5,5.55 L16.5,4.05 L22.5,4.05 Z" id="Combined-Shape" fill="#000000" fill-rule="nonzero"></path>
    </g>
</svg>