<?xml version="1.0" encoding="UTF-8"?>
<svg width="24px" height="24px" viewBox="0 0 24 24" version="1.1" xmlns="http://www.w3.org/2000/svg" xmlns:xlink="http://www.w3.org/1999/xlink">
    <title>03. tokens/Icon/m/type : person_plusmark</title>
    <g id="03.-tokens/Icon/m/type-:-person_plusmark" stroke="none" stroke-width="1" fill="none" fill-rule="evenodd">
        <rect id="background" x="0" y="0" width="24" height="24"></rect>
        <path d="M10.8,10.35 C15.8028714,10.35 19.8679724,14.3650723 19.9487742,19.348688 L19.95,19.5 L18.45,19.5 C18.45,15.2750217 15.0249783,11.85 10.8,11.85 C6.61727145,11.85 3.21858043,15.2068637 3.15102488,19.3734933 L3.15,19.5 L1.65,19.5 C1.65,14.4465945 5.74659454,10.35 10.8,10.35 Z M20.25,5.1 L20.25,7.35 L22.5,7.35 L22.5,8.85 L20.25,8.85 L20.25,11.1 L18.75,11.1 L18.75,8.85 L16.5,8.85 L16.5,7.35 L18.75,7.35 L18.75,5.1 L20.25,5.1 Z M10.8,3.3 C12.6225397,3.3 14.1,4.77746033 14.1,6.6 C14.1,8.42253967 12.6225397,9.9 10.8,9.9 C8.97746033,9.9 7.5,8.42253967 7.5,6.6 C7.5,4.77746033 8.97746033,3.3 10.8,3.3 Z M10.8,4.8 C9.80588745,4.8 9,5.60588745 9,6.6 C9,7.59411255 9.80588745,8.4 10.8,8.4 C11.7941125,8.4 12.6,7.59411255 12.6,6.6 C12.6,5.60588745 11.7941125,4.8 10.8,4.8 Z" id="Combined-Shape" fill="#000000" fill-rule="nonzero"></path>
    </g>
</svg>