<?xml version="1.0" encoding="UTF-8"?>
<svg width="24px" height="24px" viewBox="0 0 24 24" version="1.1" xmlns="http://www.w3.org/2000/svg" xmlns:xlink="http://www.w3.org/1999/xlink">
    <title>03. tokens/Icon/m/type : phone_arrow_clockwise_double</title>
    <g id="03.-tokens/Icon/m/type-:-phone_arrow_clockwise_double" stroke="none" stroke-width="1" fill="none" fill-rule="evenodd">
        <rect id="background" x="0" y="0" width="24" height="24"></rect>
        <path d="M15.9,2.85 C17.1182752,2.85 18.1104053,3.81824232 18.1488439,5.02718068 L18.15,5.1 L18.1510008,11.9646323 C18.8020172,12.1131443 19.4166264,12.400252 19.9500756,12.8082065 L19.95,12.3 L21.45,12.3 L21.45,15.45 L18.3,15.45 L18.3,13.95 L18.9718938,13.9500069 C18.2090338,13.3977449 17.2180998,13.1999916 16.2684694,13.4635817 C14.9300273,13.8350948 13.9936463,15.0342435 13.9514634,16.4159549 L13.9500043,16.5025437 L12.4500043,16.4974563 C12.4570929,14.407453 13.8534064,12.5772215 15.8672807,12.0182279 C16.1271964,11.9460828 16.3892114,11.8973854 16.6507832,11.8711276 L16.65,5.1 C16.65,4.70235498 16.3405392,4.3769884 15.9493127,4.3515953 L15.9,4.35 L8.1,4.35 C7.70235498,4.35 7.3769884,4.65946078 7.3515953,5.05068729 L7.35,5.1 L7.35,18.9 C7.35,19.297645 7.65946078,19.6230116 8.05068729,19.6484047 L8.1,19.65 L12.749,19.65 L12.75,17.55 L15.9,17.55 L15.9,19.05 L15.2301293,19.0514565 C15.9927177,19.6026043 16.9827395,19.7997754 17.9315306,19.5364183 C19.2699727,19.1649052 20.2063537,17.9657565 20.2485366,16.5840451 L20.2500043,16.4974563 L21.7499957,16.5025437 C21.7429071,18.592547 20.3465936,20.4227785 18.3327193,20.9817721 C16.9543822,21.3643589 15.5170098,21.087547 14.3997496,20.3017057 L14.4,21.15 L8.1,21.15 C6.88172482,21.15 5.88959474,20.1817577 5.85115607,18.9728193 L5.85,18.9 L5.85,5.1 C5.85,3.88172482 6.81824232,2.88959474 8.02718068,2.85115607 L8.1,2.85 L15.9,2.85 Z M13.2,4.95 L13.2,6.45 L10.8,6.45 L10.8,4.95 L13.2,4.95 Z" id="Combined-Shape" fill="#000000" fill-rule="nonzero"></path>
    </g>
</svg>