<?xml version="1.0" encoding="UTF-8"?>
<svg width="24px" height="24px" viewBox="0 0 24 24" version="1.1" xmlns="http://www.w3.org/2000/svg" xmlns:xlink="http://www.w3.org/1999/xlink">
    <title>03. tokens/Icon/m/type : phone_lock</title>
    <g id="03.-tokens/Icon/m/type-:-phone_lock" stroke="none" stroke-width="1" fill="none" fill-rule="evenodd">
        <rect id="background" x="0" y="0" width="24" height="24"></rect>
        <path d="M15.9,2.85 C17.1182752,2.85 18.1104053,3.81824232 18.1488439,5.02718068 L18.15,5.1 L18.1510281,12.278393 C19.0026553,12.579868 19.6187147,13.3795847 19.6488439,14.3271807 L19.65,14.4 L19.649,14.85 L21.15,14.85 L21.15,21.15 L8.1,21.15 C6.88172482,21.15 5.88959474,20.1817577 5.85115607,18.9728193 L5.85,18.9 L5.85,5.1 C5.85,3.88172482 6.81824232,2.88959474 8.02718068,2.85115607 L8.1,2.85 L15.9,2.85 Z M15.9,4.35 L8.1,4.35 C7.70235498,4.35 7.3769884,4.65946078 7.3515953,5.05068729 L7.35,5.1 L7.35,18.9 C7.35,19.297645 7.65946078,19.6230116 8.05068729,19.6484047 L8.1,19.65 L13.649,19.65 L13.65,14.85 L15.149,14.85 L15.15,14.4 C15.15,13.4200499 15.7764713,12.58642 16.6507654,12.2777589 L16.65,5.1 C16.65,4.70235498 16.3405392,4.3769884 15.9493127,4.3515953 L15.9,4.35 Z M19.65,16.35 L15.15,16.35 L15.15,19.65 L19.65,19.65 L19.65,16.35 Z M18.15,17.1 L18.15,18.9 L16.65,18.9 L16.65,17.1 L18.15,17.1 Z M17.4,13.65 C17.002355,13.65 16.6769884,13.9594608 16.6515953,14.3506873 L16.65,14.4 L16.649,14.85 L18.149,14.85 L18.15,14.4 C18.15,13.9857864 17.8142136,13.65 17.4,13.65 Z M13.5,4.95 L13.5,6.45 L10.5,6.45 L10.5,4.95 L13.5,4.95 Z" id="Combined-Shape" fill="#000000" fill-rule="nonzero"></path>
    </g>
</svg>