<?xml version="1.0" encoding="UTF-8"?>
<svg width="24px" height="24px" viewBox="0 0 24 24" version="1.1" xmlns="http://www.w3.org/2000/svg" xmlns:xlink="http://www.w3.org/1999/xlink">
    <title>03. tokens/Icon/m/type : phone_wave</title>
    <g id="03.-tokens/Icon/m/type-:-phone_wave" stroke="none" stroke-width="1" fill="none" fill-rule="evenodd">
        <rect id="background" x="0" y="0" width="24" height="24"></rect>
        <path d="M10.5569671,9.85243897 L6.15632548,5.45179734 L3.52771237,8.07637883 L3.62211411,8.41439363 C4.41872175,11.2667262 5.93797602,13.8651971 8.03290747,15.9584355 C10.1280074,18.0517872 12.7246828,19.5732014 15.575068,20.377454 L15.9132684,20.4728792 L18.5488529,17.8413247 L14.148,13.4404719 L12.6183,14.9697 L12.4331255,14.8421745 C11.7953782,14.3953873 11.1968092,13.8944228 10.6441616,13.3446363 L10.4817261,13.1782933 C9.99863542,12.6751207 9.55365816,12.1348631 9.15141048,11.563105 L9.0252,11.3805 L10.5569671,9.85243897 Z M6.1554,7.1481 L8.859,9.8517 L7.49262842,11.2151424 L7.74842303,11.6209463 C8.33444101,12.5506312 9.0208528,13.4130997 9.79529803,14.1928213 C10.579649,14.9731268 11.4459118,15.661103 12.3805058,16.2464894 L12.7854196,16.5001086 L14.148,15.1377 L16.8507,17.8404 L15.5658,19.1235 L15.4946738,19.1021354 C13.0012875,18.3273533 10.7310914,16.9580196 8.88108694,15.1095589 L8.7359305,14.9626367 C6.95810455,13.1398178 5.64141331,10.9198526 4.89406912,8.48781973 L4.8756,8.4264 L6.1554,7.1481 Z" id="SVGID-2" fill="#000000" fill-rule="nonzero"></path>
        <path d="M12.6,6.45 C15.1364189,6.45 17.1985215,8.48078888 17.2490511,11.0051096 L17.25,11.1 L15.75,11.1 C15.75,9.38882266 14.3855574,7.99632797 12.6852885,7.95113227 L12.6,7.95 L12.6,6.45 Z" id="Path" fill="#000000" fill-rule="nonzero"></path>
        <path d="M12.6,3.45 C14.6289061,3.45 16.5747136,4.25597983 18.0093669,5.69063312 C19.4114144,7.09268066 20.2130398,8.98291209 20.2487531,10.9617993 L20.25,11.1 L18.75,11.1 C18.75,9.46891859 18.1020554,7.90464202 16.9487067,6.7512933 C15.8273954,5.62998203 14.3176686,4.98638689 12.7357614,4.95149682 L12.6,4.95 L12.6,3.45 Z" id="Path" fill="#000000" fill-rule="nonzero"></path>
    </g>
</svg>