<?xml version="1.0" encoding="UTF-8"?>
<svg width="24px" height="24px" viewBox="0 0 24 24" version="1.1" xmlns="http://www.w3.org/2000/svg" xmlns:xlink="http://www.w3.org/1999/xlink">
    <title>03. tokens/Icon/m/type : phone</title>
    <g id="03.-tokens/Icon/m/type-:-phone" stroke="none" stroke-width="1" fill="none" fill-rule="evenodd">
        <rect id="background" x="0" y="0" width="24" height="24"></rect>
        <path d="M15.9,2.85 C17.1426407,2.85 18.15,3.85735931 18.15,5.1 L18.15,5.1 L18.15,18.9 C18.15,20.1426407 17.1426407,21.15 15.9,21.15 L15.9,21.15 L8.1,21.15 C6.85735931,21.15 5.85,20.1426407 5.85,18.9 L5.85,18.9 L5.85,5.1 C5.85,3.85735931 6.85735931,2.85 8.1,2.85 L8.1,2.85 Z M15.9,4.35 L8.1,4.35 C7.68578644,4.35 7.35,4.68578644 7.35,5.1 L7.35,5.1 L7.35,18.9 C7.35,19.3142136 7.68578644,19.65 8.1,19.65 L8.1,19.65 L15.9,19.65 C16.3142136,19.65 16.65,19.3142136 16.65,18.9 L16.65,18.9 L16.65,5.1 C16.65,4.68578644 16.3142136,4.35 15.9,4.35 L15.9,4.35 Z M13.5,4.95 L13.5,6.45 L10.5,6.45 L10.5,4.95 L13.5,4.95 Z" id="Combined-Shape" fill="#000000" fill-rule="nonzero"></path>
    </g>
</svg>