<?xml version="1.0" encoding="UTF-8"?>
<svg width="24px" height="24px" viewBox="0 0 24 24" version="1.1" xmlns="http://www.w3.org/2000/svg" xmlns:xlink="http://www.w3.org/1999/xlink">
    <title>03. tokens/Icon/m/type : picture</title>
    <g id="03.-tokens/Icon/m/type-:-picture" stroke="none" stroke-width="1" fill="none" fill-rule="evenodd">
        <rect id="background" x="0" y="0" width="24" height="24"></rect>
        <path d="M21.75,4.65 L21.75,19.35 L2.25,19.35 L2.25,4.65 L21.75,4.65 Z M8.4,10.9605 L3.75,15.61 L3.75,17.85 L15.289,17.85 L8.4,10.9605 Z M17.0994,13.4316 L15.019,15.458 L17.411,17.85 L20.25,17.85 L20.25,16.359 L20.1759666,16.4365529 L17.0994,13.4316 Z M20.25,6.15 L3.75,6.15 L3.75,13.488 L8.4,8.83933983 L13.958,14.397 L17.1005694,11.3361973 L20.25,14.412 L20.25,6.15 Z M15.3,7.8 C15.9627417,7.8 16.5,8.3372583 16.5,9 C16.5,9.6627417 15.9627417,10.2 15.3,10.2 C14.6372583,10.2 14.1,9.6627417 14.1,9 C14.1,8.3372583 14.6372583,7.8 15.3,7.8 Z M15.3,8.7 C15.1343146,8.7 15,8.83431458 15,9 C15,9.16568542 15.1343146,9.3 15.3,9.3 C15.4656854,9.3 15.6,9.16568542 15.6,9 C15.6,8.83431458 15.4656854,8.7 15.3,8.7 Z" id="Combined-Shape" fill="#000000" fill-rule="nonzero"></path>
    </g>
</svg>