<?xml version="1.0" encoding="UTF-8"?>
<svg width="24px" height="24px" viewBox="0 0 24 24" version="1.1" xmlns="http://www.w3.org/2000/svg" xmlns:xlink="http://www.w3.org/1999/xlink">
    <title>03. tokens/Icon/m/type : rectangle_vertex</title>
    <g id="03.-tokens/Icon/m/type-:-rectangle_vertex" stroke="none" stroke-width="1" fill="none" fill-rule="evenodd">
        <rect id="background" x="0" y="0" width="24" height="24"></rect>
        <path d="M4.95,16.2 L4.95,19.05 L7.8,19.05 L7.8,20.55 L3.45,20.55 L3.45,16.2 L4.95,16.2 Z M20.55,16.2 L20.55,20.55 L16.2,20.55 L16.2,19.05 L19.05,19.05 L19.05,16.2 L20.55,16.2 Z M7.8,3.45 L7.8,4.95 L4.95,4.95 L4.95,7.8 L3.45,7.8 L3.45,3.45 L7.8,3.45 Z M20.55,3.45 L20.55,7.8 L19.05,7.8 L19.05,4.95 L16.2,4.95 L16.2,3.45 L20.55,3.45 Z" id="Combined-Shape" fill="#000000" fill-rule="nonzero"></path>
    </g>
</svg>