<?xml version="1.0" encoding="UTF-8"?>
<svg width="24px" height="24px" viewBox="0 0 24 24" version="1.1" xmlns="http://www.w3.org/2000/svg" xmlns:xlink="http://www.w3.org/1999/xlink">
    <title>03. tokens/Icon/m/type : scissors</title>
    <g id="03.-tokens/Icon/m/type-:-scissors" stroke="none" stroke-width="1" fill="none" fill-rule="evenodd">
        <rect id="background" x="0" y="0" width="24" height="24"></rect>
        <path d="M4.73033009,3.66966991 L16.0046113,14.9427172 C16.4363405,14.7020957 16.93366,14.565 17.463,14.565 C19.1198542,14.565 20.463,15.9081458 20.463,17.565 C20.463,19.2218542 19.1198542,20.565 17.463,20.565 C15.8061458,20.565 14.463,19.2218542 14.463,17.565 C14.463,16.9820173 14.6292899,16.4378737 14.9170247,15.9774142 L12,13.0606699 L9.08297535,15.9774142 C9.34150473,16.3911366 9.50199162,16.8724172 9.53190731,17.3887272 L9.537,17.565 C9.537,19.2218542 8.19385425,20.565 6.537,20.565 C4.88014575,20.565 3.537,19.2218542 3.537,17.565 C3.537,15.9081458 4.88014575,14.565 6.537,14.565 C7.06633998,14.565 7.56365953,14.7020957 7.99538868,14.9427172 L10.939,11.9996699 L3.66966991,4.73033009 L4.73033009,3.66966991 Z M6.537,16.065 C5.70857288,16.065 5.037,16.7365729 5.037,17.565 C5.037,18.3934271 5.70857288,19.065 6.537,19.065 C7.36542712,19.065 8.037,18.3934271 8.037,17.565 C8.037,16.7365729 7.36542712,16.065 6.537,16.065 Z M17.463,16.065 C16.6345729,16.065 15.963,16.7365729 15.963,17.565 C15.963,18.3934271 16.6345729,19.065 17.463,19.065 C18.2914271,19.065 18.963,18.3934271 18.963,17.565 C18.963,16.7365729 18.2914271,16.065 17.463,16.065 Z M19.2696699,3.66966991 L20.3303301,4.73033009 L13.7303301,11.3303301 L12.6696699,10.2696699 L19.2696699,3.66966991 Z" id="Combined-Shape" fill="#000000" fill-rule="nonzero"></path>
    </g>
</svg>