
<svg width="24px" height="24px" viewBox="0 0 24 24" version="1.1" xmlns="http://www.w3.org/2000/svg" xmlns:xlink="http://www.w3.org/1999/xlink">
    <g stroke="none" stroke-width="1" fill="none" fill-rule="evenodd">
        <rect id="background" x="0" y="0" width="24" height="24"></rect>
        <path d="M10.5,3.45 C14.3936075,3.45 17.55,6.60639251 17.55,10.5 C17.55,12.2481503 16.913726,13.8476908 15.8601292,15.0796703 L20.3129558,19.2528471 L19.2870442,20.3471529 L14.7690079,16.111005 C13.5841158,17.0138876 12.1046658,17.55 10.5,17.55 C6.60639251,17.55 3.45,14.3936075 3.45,10.5 C3.45,6.60639251 6.60639251,3.45 10.5,3.45 Z M10.5,4.95 C7.43481964,4.95 4.95,7.43481964 4.95,10.5 C4.95,13.5651804 7.43481964,16.05 10.5,16.05 C13.5651804,16.05 16.05,13.5651804 16.05,10.5 C16.05,7.43481964 13.5651804,4.95 10.5,4.95 Z" id="Combined-Shape" fill="#000000" fill-rule="nonzero"></path>
    </g>
</svg>
