<?xml version="1.0" encoding="utf-8"?>
<!-- Generator: Adobe Illustrator 25.2.1, SVG Export Plug-In . SVG Version: 6.00 Build 0)  -->
<svg version="1.1" id="레이어_1" xmlns="http://www.w3.org/2000/svg" xmlns:xlink="http://www.w3.org/1999/xlink" x="0px"
	 y="0px" viewBox="0 0 24 24" style="enable-background:new 0 0 24 24;" xml:space="preserve">
<style type="text/css">
	.st0{fill:none;stroke:#000000;stroke-width:1.2;stroke-miterlimit:10;}
	.st1{fill:none;}
</style>
<circle class="st0" cx="12" cy="12" r="3.38"/>
<path class="st0" d="M21,9.29l-2.11-3.58L17.96,5.9c-1.53,0.32-3.07-0.55-3.55-2.01L14.11,3H9.89l-0.3,0.89
	C9.11,5.35,7.57,6.22,6.04,5.9L5.11,5.71L3,9.29l0.63,0.7c1.05,1.15,1.05,2.88,0,4.03L3,14.71l2.11,3.58l0.93-0.19
	c1.53-0.32,3.07,0.55,3.55,2.01L9.89,21h4.22l0.3-0.89c0.49-1.46,2.02-2.33,3.55-2.01l0.93,0.19L21,14.71l-0.63-0.7
	c-1.05-1.15-1.05-2.88,0-4.03L21,9.29z"/>
<rect class="st1" width="24" height="24"/>
</svg>
