<?xml version="1.0" encoding="utf-8"?>
<!-- Generator: Adobe Illustrator 25.2.1, SVG Export Plug-In . SVG Version: 6.00 Build 0)  -->
<!DOCTYPE svg PUBLIC "-//W3C//DTD SVG 1.1//EN" "http://www.w3.org/Graphics/SVG/1.1/DTD/svg11.dtd" [
	<!ENTITY st0 "fill:none;">
]>
<svg version="1.1" id="레이어_1" xmlns="http://www.w3.org/2000/svg" xmlns:xlink="http://www.w3.org/1999/xlink" x="0px"
	 y="0px" viewBox="0 0 24 24" style="enable-background:new 0 0 24 24;" xml:space="preserve">
<g>
	<path d="M12,15.97c-2.19,0-3.98-1.78-3.98-3.97c0-2.19,1.78-3.98,3.98-3.98c2.19,0,3.97,1.78,3.97,3.98
		C15.97,14.19,14.19,15.97,12,15.97z M12,9.23c-1.53,0-2.77,1.24-2.77,2.77s1.24,2.78,2.77,2.78s2.78-1.25,2.78-2.78
		S13.53,9.23,12,9.23z"/>
</g>
<g>
	<path d="M14.54,21.6H9.46l-0.43-1.3c-0.39-1.18-1.62-1.87-2.87-1.62l-1.35,0.28l-2.55-4.33l0.93-1.02c0.84-0.92,0.84-2.3,0-3.22
		L2.26,9.37l2.55-4.33l1.35,0.28C7.4,5.57,8.63,4.87,9.03,3.7l0.43-1.3h5.08l0.43,1.3c0.39,1.18,1.63,1.88,2.86,1.62l1.35-0.28
		l2.55,4.33l-0.93,1.02c-0.84,0.92-0.84,2.3,0,3.22l0.93,1.02l-2.55,4.33l-1.35-0.28c-1.24-0.25-2.47,0.44-2.86,1.62L14.54,21.6z
		 M10.32,20.4h3.35l0.16-0.48c0.59-1.75,2.42-2.79,4.24-2.41l0.51,0.11l1.67-2.83l-0.34-0.37c-1.26-1.38-1.26-3.46,0-4.83l0.34-0.37
		l-1.67-2.83l-0.51,0.11c-1.83,0.38-3.66-0.66-4.25-2.41L13.68,3.6h-3.35l-0.16,0.48C9.58,5.83,7.76,6.87,5.92,6.49L5.41,6.38
		L3.74,9.21l0.34,0.37c1.26,1.38,1.26,3.46,0,4.84l-0.34,0.37l1.67,2.83l0.51-0.11c1.84-0.37,3.66,0.66,4.24,2.41L10.32,20.4z"/>
</g>
<rect style="&st0;" width="24" height="24"/>
</svg>
