<?xml version="1.0" encoding="UTF-8"?>
<svg width="24px" height="24px" viewBox="0 0 24 24" version="1.1" xmlns="http://www.w3.org/2000/svg" xmlns:xlink="http://www.w3.org/1999/xlink">
    <title>03. tokens/Icon/m/type : share</title>
    <g id="03.-tokens/Icon/m/type-:-share" stroke="none" stroke-width="1" fill="none" fill-rule="evenodd">
        <rect id="background" x="0" y="0" width="24" height="24"></rect>
        <path d="M11.4,5.85 L11.4,7.35 L4.65,7.35 L4.65,18.45 L16.95,18.45 L16.95,15.9 L18.45,15.9 L18.45,19.95 L3.15,19.95 L3.15,5.85 L11.4,5.85 Z M17.3303301,4.26966991 L22.0606602,9 L17.3303301,13.7303301 L16.2696699,12.6696699 L19.189,9.74966991 L15.3,9.75 C12.3873344,9.75 10.1030382,11.85335 10.0509105,14.6037941 L10.05,14.7 L8.55,14.7 C8.55,11.0870484 11.4872644,8.30609597 15.1876362,8.25083821 L15.3,8.25 L19.189,8.24966991 L16.2696699,5.33033009 L17.3303301,4.26966991 Z" id="Combined-Shape" fill="#000000" fill-rule="nonzero"></path>
    </g>
</svg>