<?xml version="1.0" encoding="UTF-8"?>
<svg width="24px" height="24px" viewBox="0 0 24 24" version="1.1" xmlns="http://www.w3.org/2000/svg" xmlns:xlink="http://www.w3.org/1999/xlink">
    <title>03. tokens/Icon/m/type : slash_circle</title>
    <g id="03.-tokens/Icon/m/type-:-slash_circle" stroke="none" stroke-width="1" fill="none" fill-rule="evenodd">
        <rect id="background" x="0" y="0" width="24" height="24"></rect>
        <path d="M12,2.25 C17.3847763,2.25 21.75,6.61522369 21.75,12 C21.75,17.3847763 17.3847763,21.75 12,21.75 C6.61522369,21.75 2.25,17.3847763 2.25,12 C2.25,6.61522369 6.61522369,2.25 12,2.25 Z M18.3403658,6.72120391 L6.72120391,18.3403658 C8.15175371,19.5326982 9.99210945,20.25 12,20.25 C16.5563492,20.25 20.25,16.5563492 20.25,12 C20.25,9.99210945 19.5326982,8.15175371 18.3403658,6.72120391 Z M12,3.75 C7.44365081,3.75 3.75,7.44365081 3.75,12 C3.75,14.0078905 4.46730178,15.8482463 5.6596342,17.2787961 L17.2787961,5.6596342 C15.8482463,4.46730178 14.0078905,3.75 12,3.75 Z" id="Combined-Shape" fill="#000000" fill-rule="nonzero"></path>
    </g>
</svg>