<?xml version="1.0" encoding="UTF-8"?>
<svg width="24px" height="24px" viewBox="0 0 24 24" version="1.1" xmlns="http://www.w3.org/2000/svg" xmlns:xlink="http://www.w3.org/1999/xlink">
    <title>03. tokens/Icon/m/type : slash</title>
    <g id="03.-tokens/Icon/m/type-:-slash" stroke="none" stroke-width="1" fill="none" fill-rule="evenodd">
        <rect id="background" x="0" y="0" width="24" height="24"></rect>
        <path d="M15.1605461,3.17466883 L16.6394539,3.42533117 L15.77,8.54966883 L18,8.55 L18,10.05 L15.516,10.0496688 L14.804,14.2496688 L17.4,14.25 L17.4,15.75 L14.55,15.7496688 L13.6394539,21.1253312 L12.1605461,20.8746688 L13.029,15.7496688 L10.05,15.7496688 L9.13945392,21.1253312 L7.66054608,20.8746688 L8.529,15.7496688 L6,15.75 L6,14.25 L8.783,14.2496688 L9.495,10.0496688 L6.6,10.05 L6.6,8.55 L9.749,8.54966883 L10.6605461,3.17466883 L12.1394539,3.42533117 L11.27,8.54966883 L14.249,8.54966883 L15.1605461,3.17466883 Z M13.283,14.2496688 L13.995,10.0496688 L11.016,10.0496688 L10.304,14.2496688 L13.283,14.2496688 Z" id="Combined-Shape" fill="#000000" fill-rule="nonzero"></path>
    </g>
</svg>