<?xml version="1.0" encoding="UTF-8"?>
<svg width="24px" height="24px" viewBox="0 0 24 24" version="1.1" xmlns="http://www.w3.org/2000/svg" xmlns:xlink="http://www.w3.org/1999/xlink">
    <title>03. tokens/Icon/m/type : smoney_arrow_clockwise_double</title>
    <g id="03.-tokens/Icon/m/type-:-smoney_arrow_clockwise_double" stroke="none" stroke-width="1" fill="none" fill-rule="evenodd">
        <rect id="background" fill-rule="nonzero" x="0" y="0" width="24" height="24"></rect>
        <path d="M21.75,11.7 L21.75,18.45 L4.81033983,18.4496699 L6.23033009,19.8696699 L5.16966991,20.9303301 L1.93933983,17.7 L5.16966991,14.4696699 L6.23033009,15.5303301 L4.81033983,16.9496699 L20.25,16.95 L20.25,11.7 L21.75,11.7 Z M12,9.354 C12.351182,9.34915923 12.7004861,9.4060227 13.032,9.522 C13.3438885,9.63595139 13.6355654,9.79900691 13.896,10.005 L13.896,10.005 L13.932,10.035 L13.392,10.791 L13.35,10.761 C13.1384666,10.6047836 12.9075338,10.4767117 12.663,10.38 C12.4472641,10.2939173 12.2172734,10.2491403 11.985,10.248 C11.7723404,10.2315987 11.5605056,10.2887941 11.385,10.41 C11.259414,10.5003131 11.1846829,10.6453138 11.184,10.8 L11.184,10.8 L11.1879824,10.8821706 C11.194703,10.9365261 11.2094949,10.9897332 11.232,11.04 C11.2708539,11.1147676 11.3288198,11.177909 11.4,11.223 C11.5101145,11.2939618 11.6278529,11.3523279 11.751,11.397 C11.904,11.448 12.105,11.502 12.351,11.562 C12.5977262,11.6220396 12.8402471,11.6982032 13.077,11.79 C13.2694874,11.859697 13.4489631,11.9610956 13.608,12.09 C13.7468282,12.2087806 13.8583702,12.3561387 13.935,12.522 L13.935,12.522 L13.98,12.534 C14.0575453,12.7138114 14.0954057,12.9082298 14.091,13.104 L14.091,13.104 L14.0839133,13.2749157 C14.0672712,13.4448977 14.0221306,13.61129 13.95,13.767 C13.8603211,13.9592827 13.7279641,14.1285766 13.563,14.262 C13.384642,14.4004322 13.1807606,14.5023729 12.963,14.562 C12.7172847,14.6325049 12.4626145,14.6668652 12.207,14.664 C11.8131214,14.6660869 11.4220176,14.5980247 11.052,14.463 C10.6746973,14.3213802 10.3275937,14.1096572 10.029,13.839 L10.029,13.839 L9.993,13.806 L10.593,13.089 L10.632,13.122 C10.8540967,13.3183105 11.1037456,13.4810371 11.373,13.605 C11.6400485,13.7198682 11.9283237,13.7771143 12.219,13.773 C12.4428328,13.7838236 12.6646596,13.7262742 12.855,13.608 C12.9987043,13.5145392 13.0838234,13.3533804 13.08,13.182 L13.08,13.182 L13.076003,13.105981 C13.0696158,13.055704 13.0558385,13.0065024 13.035,12.96 C12.9989148,12.8869517 12.9440362,12.8248249 12.876,12.78 C12.7709222,12.7074177 12.6556711,12.6508031 12.534,12.612 C12.3443673,12.5474236 12.1510172,12.4943275 11.955,12.453 C11.7043609,12.3979186 11.4577849,12.32575 11.217,12.237 C11.0194859,12.1641643 10.8335573,12.0631162 10.665,11.937 C10.5164271,11.8221215 10.3980242,11.6728309 10.32,11.502 C10.2377631,11.3065835 10.1978866,11.0959536 10.203,10.884 L10.203,10.884 L10.203,10.869 C10.2003677,10.6544452 10.2465302,10.4420978 10.338,10.248 C10.4276298,10.0632329 10.5542445,9.89883802 10.71,9.765 C10.8804165,9.63154128 11.0735075,9.52991444 11.28,9.465 C11.5126065,9.39010068 11.7556359,9.35263365 12,9.354 Z M18.8303301,3.06966991 L22.0606602,6.3 L18.8303301,9.53033009 L17.7696699,8.46966991 L19.1893398,7.04966991 L3.75,7.05 L3.75,12.3 L2.25,12.3 L2.25,5.55 L19.1893398,5.54966991 L17.7696699,4.13033009 L18.8303301,3.06966991 Z" id="Combined-Shape" fill="#000000" fill-rule="nonzero"></path>
    </g>
</svg>