<?xml version="1.0" encoding="UTF-8"?>
<svg width="24px" height="24px" viewBox="0 0 24 24" version="1.1" xmlns="http://www.w3.org/2000/svg" xmlns:xlink="http://www.w3.org/1999/xlink">
    <title>03. tokens/Icon/m/type : sns_twitter</title>
    <defs>
        <filter id="filter-1">
            <feColorMatrix in="SourceGraphic" type="matrix" values="0 0 0 0 0.133333 0 0 0 0 0.133333 0 0 0 0 0.133333 0 0 0 1.000000 0"></feColorMatrix>
        </filter>
    </defs>
    <g id="03.-tokens/Icon/m/type-:-sns_twitter" stroke="none" stroke-width="1" fill="none" fill-rule="evenodd">
        <rect id="background" x="0" y="0" width="24" height="24"></rect>
        <g filter="url(#filter-1)">
            <g transform="translate(2.400000, 2.400000)">
                <circle id="Oval" fill="#000000" fill-rule="nonzero" cx="9.6" cy="9.6" r="9.6"></circle>
            </g>
        </g>
        <path d="M16.455,9.237 C16.121633,9.38802467 15.7678341,9.48911005 15.405,9.537 C15.7849516,9.30331477 16.0673775,8.93989113 16.2,8.514 C15.8402001,8.72515187 15.4478801,8.8751864 15.039,8.958 C14.5263935,8.41713586 13.7366748,8.24179558 13.0433424,8.51490655 C12.3500099,8.78801752 11.8920281,9.4548402 11.886,10.2 C11.8854826,10.340239 11.9005755,10.4801 11.931,10.617 C10.4623726,10.5430888 9.09403253,9.84965113 8.166,8.709 C8.00218942,8.9871382 7.91618659,9.30420889 7.917,9.627 C7.91659224,10.2380556 8.22169633,10.8088592 8.73,11.148 C8.43964658,11.1399204 8.15556108,11.0616939 7.902,10.92 L7.902,10.944 C7.89896474,11.8171418 8.51320211,12.5708073 9.369,12.744 C9.21253109,12.78634 9.05109539,12.8075284 8.889,12.807 C8.77331378,12.8078386 8.6578051,12.7977944 8.544,12.777 C8.78352158,13.5211979 9.46934951,14.0310488 10.251,14.046 C9.60269149,14.552951 8.80298274,14.8276198 7.98,14.826 C7.83464181,14.8270617 7.68935914,14.8190461 7.545,14.802 C8.38072739,15.3392954 9.35345775,15.6246574 10.347,15.6240011 C13.71,15.6240011 15.546,12.837 15.546,10.422 C15.546,10.344 15.546,10.263 15.546,10.185 C15.8990492,9.92516258 16.2036832,9.60529684 16.446,9.24" id="Path" fill="#FFFFFF" fill-rule="nonzero"></path>
    </g>
</svg>
