<svg width="24px" height="24px" viewBox="0 0 24 24" version="1.1" xmlns="http://www.w3.org/2000/svg" xmlns:xlink="http://www.w3.org/1999/xlink">

    <defs>
        <filter id="filter-1">
            <feColorMatrix in="SourceGraphic" type="matrix" values="0 0 0 0 0.133333 0 0 0 0 0.133333 0 0 0 0 0.133333 0 0 0 1.000000 0"></feColorMatrix>
        </filter>
    </defs>
    <g id="03.-tokens/Icon/m/type-:-sns_instagram" stroke="none" stroke-width="1" fill="none" fill-rule="evenodd">
        <rect id="background" x="0" y="0" width="24" height="24"></rect>
        <g filter="url(#filter-1)">
            <g transform="translate(2.400000, 2.400000)">
                <circle id="Oval" fill="#222222" fill-rule="nonzero" cx="9.6" cy="9.6" r="9.6"></circle>
            </g>
        </g>
        <path d="M13.908,7.5 L10.092,7.5 C8.66388561,7.50819363 7.50819363,8.66388561 7.5,10.092 L7.5,13.908 C7.5,15.3478063 8.66719366,16.515 10.107,16.515 L13.908,16.515 C15.3478063,16.515 16.515,15.3478063 16.515,13.908 L16.515,10.092 C16.5067493,8.65805497 15.3419688,7.5 13.908,7.5 M15.684,13.992 C15.6823452,14.9468331 14.9078346,15.72 13.953,15.72 L10.053,15.72 C9.09816545,15.72 8.32365483,14.9468331 8.322,13.992 L8.322,10.092 C8.322,9.1359951 9.0969951,8.361 10.053,8.361 L13.953,8.361 C14.9090049,8.361 15.684,9.1359951 15.684,10.092 L15.684,13.992 Z" id="Shape" fill="#FFFFFF" fill-rule="nonzero"></path>
        <path d="M12,9.681 C11.0520721,9.681 10.1975401,10.2521795 9.83506472,11.128067 C9.47258932,12.0039545 9.67359692,13.0119555 10.3443124,13.6818122 C11.0150279,14.3516689 12.0232856,14.5513848 12.898708,14.1877875 C13.7741303,13.8241902 14.3442137,12.9689271 14.3430019,12.021 C14.3413446,10.7281686 13.2928325,9.681 12,9.681 M12,13.542003 C11.3845414,13.5432139 10.8290095,13.1734048 10.5926421,12.6051432 C10.3562747,12.0368817 10.4856634,11.382181 10.9204294,10.9465558 C11.3551954,10.5109306 12.0096393,10.3802495 12.5783665,10.6154945 C13.1470936,10.8507395 13.518003,11.4055402 13.518003,12.021 C13.5187967,12.4241182 13.3592168,12.8109986 13.0744501,13.096328 C12.7896835,13.3816574 12.403119,13.542003 12,13.542003" id="Shape" fill="#FFFFFF" fill-rule="nonzero"></path>
        <path d="M14.421,9.045 C14.1206331,9.04504081 13.8767054,9.28768684 13.875074,9.58804933 C13.8734589,9.88841181 14.1147499,10.1336801 14.4150988,10.1369673 C14.7154476,10.1402545 14.9620489,9.90032606 14.9670083,9.6 C14.9678036,9.45494693 14.9105369,9.31560227 14.8079673,9.21303268 C14.7053977,9.1104631 14.5660531,9.05319636 14.421,9.054" id="Path" fill="#FFFFFF" fill-rule="nonzero"></path>
    </g>
</svg>
