<?xml version="1.0" encoding="UTF-8"?>
<svg width="24px" height="24px" viewBox="0 0 24 24" version="1.1" xmlns="http://www.w3.org/2000/svg" xmlns:xlink="http://www.w3.org/1999/xlink">
    <title>03. tokens/Icon/m/type : speacker_xmark</title>
    <g id="03.-tokens/Icon/m/type-:-speacker_xmark" stroke="none" stroke-width="1" fill="none" fill-rule="evenodd">
        <rect id="background" x="0" y="0" width="24" height="24"></rect>
        <path d="M13.35,3.05255947 L13.35,20.3474405 L7.2621,16.05 L3.75,16.05 L3.75,7.35 L7.2615,7.35 L13.35,3.05255947 Z M11.85,5.9472 L8.25,8.48855947 L8.25,14.9105595 L11.85,17.4525 L11.85,5.9472 Z M19.8696699,8.46966991 L20.9303301,9.53033009 L18.76,11.6995595 L20.9303301,13.8696699 L19.8696699,14.9303301 L17.7,12.7605595 L15.5303301,14.9303301 L14.4696699,13.8696699 L16.639,11.6995595 L14.4696699,9.53033009 L15.5303301,8.46966991 L17.7,10.6395595 L19.8696699,8.46966991 Z M6.75,14.5495595 L6.75,8.84955947 L5.25,8.85 L5.25,14.55 L6.75,14.5495595 Z" id="Combined-Shape" fill="#000000" fill-rule="nonzero"></path>
    </g>
</svg>