<?xml version="1.0" encoding="UTF-8"?>
<svg width="24px" height="24px" viewBox="0 0 24 24" version="1.1" xmlns="http://www.w3.org/2000/svg" xmlns:xlink="http://www.w3.org/1999/xlink">
    <title>03. tokens/Icon/m/type : speaker_wave</title>
    <g id="03.-tokens/Icon/m/type-:-speaker_wave" stroke="none" stroke-width="1" fill="none" fill-rule="evenodd">
        <rect id="background" x="0" y="0" width="24" height="24"></rect>
        <path d="M13.05,3.35255947 L13.05,20.6474405 L6.9621,16.35 L3.45,16.35 L3.45,7.65 L6.9615,7.65 L13.05,3.35255947 Z M14.7,5.85 C18.0965512,5.85 20.85,8.60344882 20.85,12 C20.85,15.3618925 18.1524573,18.0937402 14.8037729,18.1491421 L14.7,18.15 L14.7,16.65 C17.2681241,16.65 19.35,14.5681241 19.35,12 C19.35,9.46358118 17.3192111,7.40147846 14.7948904,7.35094893 L14.7,7.35 L14.7,5.85 Z M11.55,6.2472 L7.8,8.89355947 L7.8,15.1045595 L11.55,17.7525 L11.55,6.2472 Z M6.6,9.14955947 L4.95,9.15 L4.95,14.85 L6.6,14.8495595 L6.6,9.14955947 Z M14.7,9.45 C16.1083261,9.45 17.25,10.5916739 17.25,12 C17.25,13.3827202 16.1494641,14.5083964 14.7765481,14.548873 L14.7,14.55 L14.7,13.05 C15.279899,13.05 15.75,12.579899 15.75,12 C15.75,11.439431 15.3107167,10.9814621 14.7576106,10.9515537 L14.7,10.95 L14.7,9.45 Z" id="Combined-Shape" fill="#000000" fill-rule="nonzero"></path>
    </g>
</svg>