<?xml version="1.0" encoding="UTF-8"?>
<svg width="24px" height="24px" viewBox="0 0 24 24" version="1.1" xmlns="http://www.w3.org/2000/svg" xmlns:xlink="http://www.w3.org/1999/xlink">
    <title>03. tokens/Icon/m/type : ssgmoney</title>
    <g id="03.-tokens/Icon/m/type-:-ssgmoney" stroke="none" stroke-width="1" fill="none" fill-rule="evenodd">
        <rect id="background" x="0" y="0" width="24" height="24"></rect>
        <path d="M12.114,2.319 C17.4987763,2.319 21.864,6.68422369 21.864,12.069 C21.864,17.4537763 17.4987763,21.819 12.114,21.819 C6.72922369,21.819 2.364,17.4537763 2.364,12.069 C2.364,6.68422369 6.72922369,2.319 12.114,2.319 Z M12.114,3.819 C7.55765081,3.819 3.864,7.51265081 3.864,12.069 C3.864,16.6253492 7.55765081,20.319 12.114,20.319 C16.6703492,20.319 20.364,16.6253492 20.364,12.069 C20.364,7.51265081 16.6703492,3.819 12.114,3.819 Z M11.961,8.121 C12.4714349,8.11267231 12.9793009,8.1949466 13.461,8.364 C13.9094777,8.53030045 14.3279361,8.76840634 14.7,9.069 L14.7,9.069 L14.727,9.102 L13.947,10.2 L13.89,10.158 C13.5845588,9.93144612 13.2519767,9.74399078 12.9,9.6 C12.5947121,9.48190971 12.2703304,9.42089748 11.943,9.42 C11.6433964,9.40244198 11.3465627,9.48589347 11.1,9.657 C10.9136725,9.78590406 10.8017507,9.99743622 10.8,10.224 L10.8,10.224 L10.8,10.245 C10.7978309,10.3636321 10.82137,10.4813277 10.869,10.59 C10.9253287,10.6996206 11.0103502,10.7919 11.115,10.857 C11.277772,10.9594535 11.4532654,11.0401401 11.637,11.097 C11.859,11.172 12.153,11.253 12.507,11.337 C12.8600056,11.4270706 13.2075728,11.5372504 13.548,11.667 C13.8273362,11.7743937 14.0868745,11.9274808 14.316,12.12 C14.5171725,12.2918446 14.6779885,12.5059245 14.787,12.747 C14.9008708,13.0070781 14.9591165,13.2880882 14.958,13.572 L14.958,13.572 L14.958,13.593 C14.9634545,13.9249539 14.8947869,14.2539438 14.757,14.556 C14.6259195,14.8339356 14.4354389,15.0797171 14.199,15.276 C13.946308,15.4816972 13.6543777,15.6337867 13.341,15.723 C12.9876799,15.8281081 12.6206045,15.8796806 12.252,15.876 C11.6844265,15.8772158 11.1213299,15.7755738 10.59,15.576 C10.0463392,15.3721864 9.54644264,15.0667507 9.117,14.676 L9.117,14.676 L9.066,14.628 L9.942,13.587 L9.996,13.638 C10.31894,13.9202419 10.6793524,14.1564786 11.067,14.34 C11.451561,14.5049054 11.8666268,14.5866918 12.285,14.58 C12.6075296,14.5970293 12.9273513,14.5131416 13.2,14.34 C13.3981632,14.1980623 13.5110571,13.9655009 13.5,13.722 L13.5,13.722 L13.5,13.701 C13.5095779,13.5860782 13.4942281,13.4704432 13.455,13.362 C13.4010584,13.2570374 13.3216312,13.1672949 13.224,13.101 C13.0724805,12.9968612 12.9067887,12.9150257 12.732,12.858 C12.4603717,12.7628399 12.1827709,12.6856729 11.901,12.627 C11.5396258,12.5511929 11.1838092,12.4509629 10.836,12.327 C10.5500509,12.2240919 10.2818458,12.0773382 10.041,11.892 C9.82696741,11.724405 9.65705476,11.5071227 9.546,11.259 C9.42382621,10.9750427 9.36447104,10.6680332 9.372,10.359 L9.372,10.359 L9.372,10.338 C9.36827699,10.0268029 9.43601531,9.71890144 9.57,9.438 C9.69582249,9.16854863 9.87790791,8.92917791 10.104,8.736 C10.3477679,8.53567171 10.6264431,8.38209521 10.926,8.283 C11.2597498,8.17247536 11.6094406,8.11774115 11.961,8.121 Z" id="Combined-Shape" fill="#000000" fill-rule="nonzero"></path>
    </g>
</svg>