<?xml version="1.0" encoding="UTF-8"?>
<svg width="24px" height="24px" viewBox="0 0 24 24" version="1.1" xmlns="http://www.w3.org/2000/svg" xmlns:xlink="http://www.w3.org/1999/xlink">
    <title>03. tokens/Icon/m/type : subway</title>
    <g id="03.-tokens/Icon/m/type-:-subway" stroke="none" stroke-width="1" fill="none" fill-rule="evenodd">
        <rect id="background" x="0" y="0" width="24" height="24"></rect>
        <path d="M14.85,1.95 L14.85,3.45 L12.749,3.45 L12.749,4.049 L15.6,4.05 C17.1177968,4.05 18.3584778,5.23647397 18.4451619,6.73254085 L18.45,6.9 L18.45,14.7 C18.45,16.2740115 17.1740115,17.55 15.6,17.55 L15.6,17.55 L15.54,17.55 L16.8058423,19.6430072 L15.5221577,20.4189928 L13.788,17.55 L10.163,17.55 L8.44195324,20.4008093 L7.15804676,19.6251907 L8.412,17.55 L8.4,17.55 C6.88220316,17.55 5.64152216,16.363526 5.55483806,14.8674591 L5.55,14.7 L5.55,6.9 C5.55,5.32598846 6.82598846,4.05 8.4,4.05 L8.4,4.05 L11.249,4.049 L11.249,3.45 L9.15,3.45 L9.15,1.95 L14.85,1.95 Z M15.6,5.55 L8.4,5.55 C7.65441559,5.55 7.05,6.15441559 7.05,6.9 L7.05,6.9 L7.05,14.7 C7.05,15.4455844 7.65441559,16.05 8.4,16.05 L8.4,16.05 L15.6,16.05 C16.3455844,16.05 16.95,15.4455844 16.95,14.7 L16.95,14.7 L16.95,6.9 C16.95,6.15441559 16.3455844,5.55 15.6,5.55 L15.6,5.55 Z M9.6,12.9 C10.0970563,12.9 10.5,13.3029437 10.5,13.8 C10.5,14.2970563 10.0970563,14.7 9.6,14.7 C9.10294373,14.7 8.7,14.2970563 8.7,13.8 C8.7,13.3029437 9.10294373,12.9 9.6,12.9 Z M14.4,12.9 C14.8970563,12.9 15.3,13.3029437 15.3,13.8 C15.3,14.2970563 14.8970563,14.7 14.4,14.7 C13.9029437,14.7 13.5,14.2970563 13.5,13.8 C13.5,13.3029437 13.9029437,12.9 14.4,12.9 Z M15.33,6.63 C15.6613708,6.63 15.93,6.89862915 15.93,7.23 L15.93,7.23 L15.93,11.13 C15.93,11.4613708 15.6613708,11.73 15.33,11.73 L15.33,11.73 L8.73,11.73 C8.39862915,11.73 8.13,11.4613708 8.13,11.13 L8.13,11.13 L8.13,7.23 C8.13,6.89862915 8.39862915,6.63 8.73,6.63 L8.73,6.63 Z M11.4,7.829 L9.33,7.83 L9.33,10.53 L11.4,10.529 L11.4,7.829 Z M14.73,7.83 L12.599,7.829 L12.599,10.529 L14.73,10.53 L14.73,7.83 Z" id="Combined-Shape" fill="#000000" fill-rule="nonzero"></path>
    </g>
</svg>