<?xml version="1.0" encoding="UTF-8"?>
<svg width="24px" height="24px" viewBox="0 0 24 24" version="1.1" xmlns="http://www.w3.org/2000/svg" xmlns:xlink="http://www.w3.org/1999/xlink">
    <title>03. tokens/Icon/m/type : talk</title>
    <g id="03.-tokens/Icon/m/type-:-talk" stroke="none" stroke-width="1" fill="none" fill-rule="evenodd">
        <rect id="background" x="0" y="0" width="24" height="24"></rect>
        <path d="M12.75,5.169 L12.7496237,6.741 L15.924,6.741 C18.0255863,6.76969992 19.7194968,8.44294133 19.797533,10.5197958 L19.8,10.722 L19.8,17.622 C19.8266867,19.7902313 18.0921931,21.5703695 15.924,21.6 L15.924,21.6 L8.076,21.6 C7.03393994,21.5865654 6.03995428,21.1594714 5.31295818,20.4127811 C4.58596209,19.6660908 4.18558289,18.6610469 4.2,17.619 L4.2,17.619 L4.2,10.719 C4.18638578,9.67746906 4.58712117,8.67319738 5.31403097,7.92715838 C6.04094076,7.18111938 7.03446678,6.75443856 8.076,6.741 L8.076,6.741 L11.2496237,6.741 L11.25,5.169 L12.75,5.169 Z M10.176,16.248 L9.168,16.248 C9.168,17.421 10.413,18.348 12,18.348 C13.59,18.348 14.832,17.421 14.832,16.248 L14.832,16.248 L13.824,16.248 C13.824,16.755 13.074,17.322 12,17.322 C10.926,17.322 10.176,16.755 10.176,16.248 L10.176,16.248 Z M15.78,8.652 L8.22,8.652 C7.59275763,8.6598755 6.99457739,8.91767045 6.55811075,9.36821666 C6.1216441,9.81876287 5.88296409,10.4248237 5.895,11.052 L5.895,11.052 L5.895,11.952 C5.88296409,12.5791763 6.1216441,13.1852371 6.55811075,13.6357833 C6.99457739,14.0863296 7.59275763,14.3441245 8.22,14.352 L8.22,14.352 L15.78,14.352 C16.4072424,14.3441245 17.0054226,14.0863296 17.4418893,13.6357833 C17.8783559,13.1852371 18.1170359,12.5791763 18.105,11.952 L18.105,11.952 L18.105,11.052 C18.1170359,10.4248237 17.8783559,9.81876287 17.4418893,9.36821666 C17.0054226,8.91767045 16.4072424,8.6598755 15.78,8.652 L15.78,8.652 Z M9.963,10.644 C10.4335466,10.644 10.815,11.0375417 10.815,11.523 C10.815,12.0084583 10.4335466,12.402 9.963,12.402 C9.49245339,12.402 9.111,12.0084583 9.111,11.523 C9.111,11.0375417 9.49245339,10.644 9.963,10.644 Z M14.037,10.644 C14.5075466,10.644 14.889,11.0375417 14.889,11.523 C14.889,12.0084583 14.5075466,12.402 14.037,12.402 C13.5664534,12.402 13.185,12.0084583 13.185,11.523 C13.185,11.0375417 13.5664534,10.644 14.037,10.644 Z M12,2.4 C12.5086543,2.4 12.921,2.8257772 12.921,3.351 C12.921,3.8762228 12.5086543,4.302 12,4.302 C11.4913457,4.302 11.079,3.8762228 11.079,3.351 C11.079,2.8257772 11.4913457,2.4 12,2.4 Z" id="Combined-Shape" fill="#000000" fill-rule="nonzero"></path>
    </g>
</svg>