<?xml version="1.0" encoding="UTF-8"?>
<svg width="24px" height="24px" viewBox="0 0 24 24" version="1.1" xmlns="http://www.w3.org/2000/svg" xmlns:xlink="http://www.w3.org/1999/xlink">
    <title>03. tokens/Icon/m/type : train</title>
    <g id="03.-tokens/Icon/m/type-:-train" stroke="none" stroke-width="1" fill="none" fill-rule="evenodd">
        <rect id="background" x="0" y="0" width="24" height="24"></rect>
        <path d="M13.8,2.85 C14.360569,2.85 14.8185379,3.28928328 14.8484463,3.84238944 L14.85,3.9 L14.85,4.65 L16.5,4.65 C18.0177968,4.65 19.2584778,5.83647397 19.3451619,7.33254085 L19.35,7.5 L19.35,16.8 C19.35,18.167891 18.3863177,19.3107019 17.1008335,19.5865522 L17.1,20.4 C17.1,20.7313708 16.8313708,21 16.5,21 C16.1836915,21 15.9245505,20.7552367 15.9016457,20.4447787 L15.9,20.4 L15.9,19.65 L8.1,19.65 L8.1,20.4 C8.1,20.7313708 7.83137085,21 7.5,21 C7.18369146,21 6.92455046,20.7552367 6.90164572,20.4447787 L6.9,20.4 L6.90016327,19.5867659 C5.61418055,19.3112926 4.65,18.1682445 4.65,16.8 L4.65,16.8 L4.65,7.5 C4.65,5.92598846 5.92598846,4.65 7.5,4.65 L7.5,4.65 L9.15,4.65 L9.15,3.9 C9.15,3.33943098 9.58928328,2.88146207 10.1423894,2.85155366 L10.2,2.85 L13.8,2.85 Z M16.5,6.15 L7.5,6.15 C6.75441559,6.15 6.15,6.75441559 6.15,7.5 L6.15,7.5 L6.15,16.8 C6.15,17.5455844 6.75441559,18.15 7.5,18.15 L7.5,18.15 L16.5,18.15 C17.2455844,18.15 17.85,17.5455844 17.85,16.8 L17.85,16.8 L17.85,7.5 C17.85,6.75441559 17.2455844,6.15 16.5,6.15 L16.5,6.15 Z M9.3,15 C9.79705627,15 10.2,15.4029437 10.2,15.9 C10.2,16.3970563 9.79705627,16.8 9.3,16.8 C8.80294373,16.8 8.4,16.3970563 8.4,15.9 C8.4,15.4029437 8.80294373,15 9.3,15 Z M14.7,15 C15.1970563,15 15.6,15.4029437 15.6,15.9 C15.6,16.3970563 15.1970563,16.8 14.7,16.8 C14.2029437,16.8 13.8,16.3970563 13.8,15.9 C13.8,15.4029437 14.2029437,15 14.7,15 Z M15.9,7.35 C16.3142136,7.35 16.65,7.68578644 16.65,8.1 L16.65,8.1 L16.65,12.9 C16.65,13.3142136 16.3142136,13.65 15.9,13.65 L15.9,13.65 L8.1,13.65 C7.68578644,13.65 7.35,13.3142136 7.35,12.9 L7.35,12.9 L7.35,8.1 C7.35,7.68578644 7.68578644,7.35 8.1,7.35 L8.1,7.35 Z M15.15,8.85 L8.85,8.85 L8.85,12.15 L15.15,12.15 L15.15,8.85 Z M13.35,4.35 L10.65,4.35 L10.65,4.65 L13.35,4.65 L13.35,4.35 Z" id="Combined-Shape" fill="#000000" fill-rule="nonzero"></path>
    </g>
</svg>