<?xml version="1.0" encoding="UTF-8"?>
<svg width="24px" height="24px" viewBox="0 0 24 24" version="1.1" xmlns="http://www.w3.org/2000/svg" xmlns:xlink="http://www.w3.org/1999/xlink">
    <title>03. tokens/Icon/m/type : trash</title>
    <g id="03.-tokens/Icon/m/type-:-trash" stroke="none" stroke-width="1" fill="none" fill-rule="evenodd">
        <rect id="background" x="0" y="0" width="24" height="24"></rect>
        <path d="M20.4,6.15 L20.4,7.65 L18.657,7.65 L17.484911,20.55 L6.1993951,20.55 L5.319,7.65 L3.6,7.65 L3.6,6.15 L20.4,6.15 Z M17.151,7.65 L6.823,7.65 L7.6005,19.05 L16.1151,19.05 L17.151,7.65 Z M10.95,9.9 L10.95,16.8 L9.45,16.8 L9.45,9.9 L10.95,9.9 Z M14.55,9.9 L14.55,16.8 L13.05,16.8 L13.05,9.9 L14.55,9.9 Z M14.7,3.45 L14.7,4.95 L9.3,4.95 L9.3,3.45 L14.7,3.45 Z" id="Combined-Shape" fill="#000000" fill-rule="nonzero"></path>
    </g>
</svg>