
<svg width="23px" height="22px" viewBox="0 0 23 22" version="1.1" xmlns="http://www.w3.org/2000/svg" xmlns:xlink="http://www.w3.org/1999/xlink">
    <defs>
        <rect id="path-1" x="0" y="0" width="23" height="24"></rect>
    </defs>
    <g>
        <mask id="mask-2" fill="white">
            <use xlink:href="#path-1"></use>
        </mask>
        <use id="Mask" fill-opacity="0" fill="#D8D8D8" xlink:href="#path-1"></use>
        <g id="Group-50" mask="url(#mask-2)">
            <g transform="translate(5.000000, 10.000000) scale(-1, 1) translate(-5.000000, -10.000000) translate(-13.000000, -2.000000)">
                <path d="M5.83737113,23.5786877 C4.09108396,23.5786877 2.67513318,22.1625415 2.67513318,20.4160589 C2.67513318,18.6691853 9,18.6691853 9,20.4160589 C9,22.1625415 7.58424469,23.5786877 5.83737113,23.5786877 Z" id="Fill-46-Copy" fill="#000000"></path>
                <path d="M13.8606719,6 L14.539132,7.31215869 L14.7,12.9057897 L9.69804247,12.9057897 L9.97981007,11.47 L9.16305389,12.9057897 L2.59581007,12.9057897 L3.47892239,8.41477856 C3.72520869,6.88311231 4.7007761,6 5.81356017,6 L5.81356017,6 L13.8606719,6 Z" id="white" fill="#FEFEFE"></path>
                <polygon id="Fill-26" fill="#404041" points="34.5416735 20.325187 1.83934821 20.325187 1.43063022 18.5507529 34.5416735 18.5507529"></polygon>
                <path d="M32.1130365,0.195445773 C33.7158521,0.195445773 35.0198012,1.49939492 35.0198012,3.10221054 L35.0198012,18.9964724 L35.0179827,18.9964458 L35.0184525,20.3251089 C35.0184525,20.5884006 34.8050044,20.8020442 34.5417126,20.8020442 L32.3415873,20.8023094 C32.1690664,22.3858883 30.8273176,23.6185822 29.1975149,23.6185822 C27.5684416,23.6185822 26.2265715,22.3858883 26.0540311,20.8023094 L1.8393873,20.8020442 C1.61714323,20.8020442 1.42441442,20.648604 1.37457077,20.4320284 L1.24598271,19.8764458 L0.0158326909,15.2131825 C-0.0230649077,15.0661926 0.0105551273,14.9094294 0.106528599,14.7911729 L1.97998271,12.4787147 L2.85676474,8.02398763 C3.12982979,6.3445496 4.2559055,5.2167147 5.66071475,5.2167147 L9.23998271,5.21644577 L9.24034934,3.10221054 C9.24034934,1.49939492 10.5442985,0.195445773 12.1469186,0.195445773 L32.1130365,0.195445773 Z M8.11298271,19.0274458 L2.02977052,19.0276101 L2.17298271,19.6514458 L2.22498271,19.8474458 L8.31698271,19.8474458 L8.11298271,19.0274458 Z M26.3754005,19.027551 L9.09598271,19.0274458 L9.30098271,19.8474458 L26.09369,19.8477809 C26.1500653,19.5583167 26.2459141,19.2829629 26.3754005,19.027551 Z M34.0647772,19.0276101 L32.0189827,19.0274458 L32.0954757,19.186861 C32.1872465,19.3961533 32.2570123,19.6172886 32.3018463,19.847339 L34.0647772,19.8481735 L34.0647772,19.0276101 Z M7.23498271,15.5137502 L1.08098271,15.5137502 L1.75598271,18.0734458 L7.87398271,18.0734458 L7.23498271,15.5137502 Z M9.61098271,13.1775764 L8.10049333,15.0417985 L8.85798271,18.0734458 L13.8919827,18.0734458 L13.8919827,14.6134458 L13.0986393,14.6143159 C12.8353475,14.6143159 12.6217039,14.4006723 12.6217039,14.137576 C12.6217039,13.8740887 12.8353475,13.6606406 13.0986393,13.6606406 L13.8919827,13.6604458 L13.8926781,13.1784472 L9.61098271,13.1775764 Z M17.2277943,1.14826933 L12.1469186,1.1489256 C11.0701002,1.1489256 10.1940246,2.02519663 10.1940246,3.10221054 L10.1939827,5.21544577 L12.9429827,5.21607201 L12.943518,5.20907201 C13.9941441,5.20907201 14.8491094,6.06384185 14.8491094,7.11466341 L14.8491094,12.849225 L14.8459827,12.849072 L14.8459827,18.0424458 L16.4709827,18.0424458 L16.4713152,3.10221054 C16.4713152,2.35064398 16.7580157,1.66478946 17.2277943,1.14826933 Z M24.8820706,1.1489256 L19.37808,1.1489256 C18.3010661,1.1489256 17.4249905,2.02519663 17.4249905,3.10221054 L17.4249905,18.0427971 L26.8349646,18.0427971 L26.8349646,3.10221054 C26.8349646,2.02519663 25.9588891,1.1489256 24.8820706,1.1489256 Z M27.032181,1.14826933 C27.5019394,1.66478946 27.7886399,2.35064398 27.7886399,3.10221054 L27.7880614,17.6238 C28.2124622,17.4120483 28.6911124,17.2929335 29.1975149,17.2929335 C29.9773526,17.2929335 30.6912407,17.5751573 31.2426477,18.0430386 L34.066126,18.0427971 L34.066126,3.10221054 C34.066126,2.02519663 33.1898549,1.1489256 32.1130365,1.1489256 L27.032181,1.14826933 Z M5.85131299,16.2831206 C6.11010907,16.2831206 6.32003882,16.4930504 6.32003882,16.751651 C6.32003882,17.0106425 6.11010907,17.2203768 5.85131299,17.2203768 C5.59232144,17.2203768 5.38258715,17.0106425 5.38258715,16.751651 C5.38258715,16.4930504 5.59232144,16.2831206 5.85131299,16.2831206 Z M2.83352391,16.2831206 C3.09232,16.2831206 3.30224975,16.4930504 3.30224975,16.751651 C3.30224975,17.0106425 3.09232,17.2203768 2.83352391,17.2203768 C2.57453237,17.2203768 2.36479808,17.0106425 2.36479808,16.751651 C2.36479808,16.4930504 2.57453237,16.2831206 2.83352391,16.2831206 Z M8.38298271,13.1775764 L2.64198271,13.1775764 L1.52098271,14.5607502 L7.26198271,14.5607502 L8.38298271,13.1775764 Z M13.055384,6.16928376 L13.0477206,6.17039 L12.7639049,6.17039 C11.8284079,6.17039 11.0967812,6.96065629 10.9001431,8.18387826 L10.8972111,8.20029734 L10.1059827,12.2237147 L13.8949827,12.224072 L13.8954341,7.11466341 C13.8954341,6.62767683 13.5277058,6.22483862 13.055384,6.16928376 Z M10.7721312,6.17040949 L5.66071475,6.17039 C4.72521773,6.17039 3.99359104,6.96065629 3.79695293,8.18387826 L3.79402095,8.20029734 L3.00198271,12.2237147 L9.13398271,12.2237147 L9.95995492,8.02398763 C10.0806237,7.28183596 10.3678682,6.64740126 10.7721312,6.17040949 Z M5.43350587,8.12733014 C5.69152009,8.18030124 5.85766561,8.4324515 5.80449904,8.69046573 L5.49957314,10.1730702 C5.4530524,10.3984417 5.25445963,10.5538366 5.03299743,10.5538366 C5.00113658,10.5538366 4.9688848,10.5507092 4.93643756,10.5438679 C4.67842334,10.4910923 4.51227781,10.238942 4.56544438,9.9807323 L4.87037028,8.49832332 C4.92353685,8.24050456 5.17549164,8.07318625 5.43350587,8.12733014 Z M8.29457084,8.12733014 C8.55258507,8.18030124 8.71873059,8.4324515 8.66556402,8.69046573 L8.36063812,10.1730702 C8.31411738,10.3984417 8.11572008,10.5538366 7.8940624,10.5538366 C7.86220156,10.5538366 7.82994978,10.5507092 7.79750254,10.5438679 C7.53948831,10.4910923 7.37334279,10.238942 7.42650936,9.9807323 L7.73143526,8.49832332 C7.78460183,8.24050456 8.03655662,8.07318625 8.29457084,8.12733014 Z" id="Combined-Shape" fill="#232020"></path>
                <path d="M10.3627112,23.5786877 C8.61642404,23.5786877 7.20047326,22.1625415 7.20047326,20.4160589 C7.20047326,18.6691853 8.61642404,17.2530391 10.3627112,17.2530391 C12.1095848,17.2530391 13.5253401,18.6691853 13.5253401,20.4160589 C13.5253401,22.1625415 12.1095848,23.5786877 10.3627112,23.5786877 Z" id="Fill-46" fill="#232020"></path>
                <path d="M11.5406048,20.4158634 C11.5406048,21.066372 11.0140212,21.5937374 10.3639035,21.5937374 C9.7126131,21.5937374 9.18524767,21.066372 9.18524767,20.4158634 C9.18524767,19.7659412 9.7126131,19.2383803 10.3639035,19.2383803 C11.0140212,19.2383803 11.5406048,19.7659412 11.5406048,20.4158634" id="Fill-47" fill="#404041"></path>
            </g>
        </g>
    </g>
</svg>
