<?xml version="1.0" encoding="UTF-8"?>
<svg width="24px" height="24px" viewBox="0 0 24 24" version="1.1" xmlns="http://www.w3.org/2000/svg" xmlns:xlink="http://www.w3.org/1999/xlink">
    <title>03. tokens/Icon/m/type : truck_xmark</title>
    <g id="03.-tokens/Icon/m/type-:-truck_xmark" stroke="none" stroke-width="1" fill="none" fill-rule="evenodd">
        <rect id="background" x="0" y="0" width="24" height="24"></rect>
        <path d="M21.75,4.65 L21.75,17.769 L19.5634896,17.7691915 C19.1799517,18.6968561 18.2705084,19.35 17.208,19.35 C16.1454916,19.35 15.2360483,18.6968561 14.8525104,17.7691915 L10.0354896,17.7691915 C9.65195169,18.6968561 8.74250839,19.35 7.68,19.35 C6.61749161,19.35 5.70804831,18.6968561 5.32451045,17.7691915 L2.25,17.769 L2.25,11.6283424 L6.28733349,7.554 L8.729,7.553 L8.73,4.65 L21.75,4.65 Z M7.68,15.72 C7.10150068,15.72 6.63,16.1954299 6.63,16.785 C6.63,17.3745701 7.10150068,17.85 7.68,17.85 C8.25849932,17.85 8.73,17.3745701 8.73,16.785 L8.729,16.801 L8.72986532,16.7677525 C8.72138845,16.2253389 8.31377372,15.7832943 7.79416521,15.726232 Z M17.208,15.72 C16.6295007,15.72 16.158,16.1954299 16.158,16.785 C16.158,17.3745701 16.6295007,17.85 17.208,17.85 C17.7864993,17.85 18.258,17.3745701 18.258,16.785 C18.258,16.1954299 17.7864993,15.72 17.208,15.72 Z M20.25,6.15 L10.2297,6.15 L10.2297,16.269 L14.7097751,16.2683353 C14.9473526,15.1002344 15.9745343,14.22 17.208,14.22 C18.4414657,14.22 19.4686474,15.1002344 19.7062249,16.2683353 L20.25,16.269 L20.25,6.15 Z M8.729,9.053 L6.9123,9.054 L3.75,12.2451 L3.75,16.269 L5.18177514,16.2683353 C5.41935257,15.1002344 6.44653427,14.22 7.68,14.22 C8.05450095,14.22 8.40998598,14.3011428 8.73012891,14.446849 L8.729,9.053 Z M16.8696699,8.46966991 L17.9303301,9.53033009 L16.361,11.1 L17.9303301,12.6696699 L16.8696699,13.7303301 L15.3,12.1605 L13.7303301,13.7303301 L12.6696699,12.6696699 L14.239,11.1 L12.6696699,9.53033009 L13.7303301,8.46966991 L15.3,10.0395 L16.8696699,8.46966991 Z" id="Combined-Shape" fill="#000000" fill-rule="nonzero"></path>
    </g>
</svg>