<?xml version="1.0" encoding="UTF-8"?>
<svg width="24px" height="24px" viewBox="0 0 24 24" version="1.1" xmlns="http://www.w3.org/2000/svg" xmlns:xlink="http://www.w3.org/1999/xlink">
    <title>03. tokens/Icon/m/type : truck_lines</title>
    <g id="03.-tokens/Icon/m/type-:-truck_lines" stroke="none" stroke-width="1" fill="none" fill-rule="evenodd">
        <rect id="background" x="0" y="0" width="24" height="24"></rect>
        <path d="M17.058,5.25 L17.057,7.89 L19.2396663,7.89 L22.95,11.6343422 L22.95,17.313 L20.1307624,17.3139753 C19.7620457,18.1589508 18.9233641,18.75 17.946,18.75 C16.9686359,18.75 16.1299543,18.1589508 15.7612376,17.3139753 L11.4697624,17.3139753 C11.1010457,18.1589508 10.2623641,18.75 9.285,18.75 C8.30763588,18.75 7.46895427,18.1589508 7.10023758,17.3139753 L4.95,17.313 L4.95,13.95 L2.1,13.95 L2.1,12.45 L8.4,12.45 L8.4,13.95 L6.45,13.95 L6.45,15.813 L6.95990462,15.8132405 C7.20204699,14.747063 8.15001291,13.95 9.285,13.95 C10.4199871,13.95 11.367953,14.747063 11.6100954,15.8132405 L15.558,15.813 L15.558,6.75 L6.45,6.75 L6.449,7.65 L8.1,7.65 L8.1,9.15 L1.8,9.15 L1.8,7.65 L4.949,7.65 L4.95,5.25 L17.058,5.25 Z M17.946,15.45 C17.458769,15.45 17.061,15.8514182 17.061,16.35 C17.061,16.8485818 17.458769,17.25 17.946,17.25 C18.433231,17.25 18.831,16.8485818 18.831,16.35 C18.831,15.8514182 18.433231,15.45 17.946,15.45 Z M9.285,15.45 C8.79776897,15.45 8.4,15.8514182 8.4,16.35 C8.4,16.8485818 8.79776897,17.25 9.285,17.25 C9.77223103,17.25 10.17,16.8485818 10.17,16.35 C10.17,15.8514182 9.77223103,15.45 9.285,15.45 Z M18.6144,9.39 L17.057,9.39 L17.0565466,14.1223964 C17.2833076,14.0306347 17.5273714,13.9729121 17.7825314,13.9555445 L17.946,13.95 C19.0809871,13.95 20.028953,14.747063 20.2710954,15.8132405 L21.45,15.813 L21.45,12.2514 L18.6144,9.39 Z M9.3,10.05 L9.3,11.55 L3,11.55 L3,10.05 L9.3,10.05 Z" id="Combined-Shape" fill="#000000" fill-rule="nonzero"></path>
    </g>
</svg>