<?xml version="1.0" encoding="utf-8"?>
<!-- Generator: Adobe Illustrator 24.1.2, SVG Export Plug-In . SVG Version: 6.00 Build 0)  -->
<svg version="1.1" id="Layer_1" xmlns="http://www.w3.org/2000/svg" xmlns:xlink="http://www.w3.org/1999/xlink" x="0px" y="0px"
	 viewBox="0 0 20 20" style="enable-background:new 0 0 20 20;" xml:space="preserve">
<style type="text/css">
	.st0{fill:none;}
</style>
<rect class="st0" width="20" height="20"/>
<path d="M7,4v2H4.3L1,9.7V15h3.3c0.3,0.6,1,1,1.7,1s1.4-0.4,1.7-1h5.6c0.3,0.6,1,1,1.7,1s1.4-0.4,1.7-1H19V4H7z M2,14v-3.9L4.7,7H7
	v5.3C6.7,12.1,6.4,12,6,12c-1.1,0-2,0.9-2,2H2z M6,15c-0.6,0-1-0.4-1-1s0.4-1,1-1s1,0.4,1,1S6.6,15,6,15z M15,15c-0.6,0-1-0.4-1-1
	s0.4-1,1-1s1,0.4,1,1S15.6,15,15,15z M18,14h-1c0-1.1-0.9-2-2-2s-2,0.9-2,2H8V5h10V14z"/>
</svg>
