<?xml version="1.0" encoding="UTF-8"?>
<svg width="24px" height="24px" viewBox="0 0 24 24" version="1.1" xmlns="http://www.w3.org/2000/svg" xmlns:xlink="http://www.w3.org/1999/xlink">
    <title>03. tokens/Icon/m/type : truck_gear</title>
    <g id="03.-tokens/Icon/m/type-:-truck_gear" stroke="none" stroke-width="1" fill="none" fill-rule="evenodd">
        <rect id="background" x="0" y="0" width="24" height="24"></rect>
        <path d="M18.9974982,4.05 L19.3084366,4.95579376 C19.4171685,5.26866017 19.7409517,5.45247769 20.0659073,5.38537697 L20.0659073,5.38537697 L21.0139787,5.19038356 L22.5268082,7.75746613 L21.8517225,8.50003769 C21.639169,8.73086809 21.639169,9.08613191 21.8517225,9.31696231 L21.8517225,9.31696231 L21.8484,9.3129 L22.5387717,10.0031115 L21.0199602,12.6122297 L20.0623224,12.4152379 C19.7404928,12.3460307 19.4171242,12.5256799 19.3038534,12.8410181 L19.3038534,12.8410181 L18.9851721,13.707 L18.251,13.706 L18.252,18.624 L16.3724794,18.6248791 C16.0155015,19.4064239 15.2310994,19.95 14.319,19.95 C13.4069006,19.95 12.6224985,19.4064239 12.2655206,18.6248791 L8.38047942,18.6248791 C8.02350146,19.4064239 7.2390994,19.95 6.327,19.95 C5.41451214,19.95 4.62983042,19.4059608 4.2730647,18.6238805 L1.65,18.624 L1.65,13.3022926 L5.10838348,9.813 L7.085,9.812 L7.086,7.377 L12.698,7.377 L13.9866217,5.19106172 L14.9401582,5.38580482 C15.265006,5.45357032 15.5896577,5.26960103 15.6960199,4.96323802 L15.6960199,4.96323802 L16.0027043,4.05 L18.9974982,4.05 Z M6.327,16.902 C5.90948558,16.902 5.568,17.2468801 5.568,17.676 C5.568,18.1051199 5.90948558,18.45 6.327,18.45 C6.74451442,18.45 7.086,18.1051199 7.086,17.676 L7.085,17.691 L7.08585797,17.6608544 C7.0786036,17.2743855 6.79430491,16.9594085 6.42964105,16.9090342 Z M14.319,16.902 C13.9014856,16.902 13.56,17.2468801 13.56,17.676 C13.56,18.1051199 13.9014856,18.45 14.319,18.45 C14.7365144,18.45 15.078,18.1051199 15.078,17.676 C15.078,17.2468801 14.7365144,16.902 14.319,16.902 Z M13.3078032,8.87773015 L8.5857,8.877 L8.5857,17.1237 L12.1271306,17.1236817 C12.3721264,16.1356108 13.259393,15.402 14.319,15.402 C15.378607,15.402 16.2658736,16.1356108 16.5108694,17.1236817 L16.752,17.124 L16.751,13.706 L16.0014306,13.707 L15.7011382,12.8054937 C15.5898758,12.4956799 15.2665072,12.3160307 14.9370714,12.3868323 L14.9370714,12.3868323 L13.9866217,12.5809383 L12.4599583,9.99038148 L13.1532,9.297 L13.1806622,9.26433904 C13.2683205,9.15038206 13.310345,9.01289147 13.3078032,8.87773015 Z M7.085,11.312 L5.7333,11.313 L3.15,13.9194 L3.15,17.124 L4.13537808,17.1226844 C4.3807235,16.1351172 5.26774951,15.402 6.327,15.402 C6.59330204,15.402 6.84871862,15.4483367 7.08579004,15.533404 L7.085,11.312 Z M17.9301,5.55 L17.0766,5.55 L17.0626772,5.5851406 C16.6819286,6.48207878 15.7439836,7.01367507 14.7814297,6.8799228 L14.7814297,6.8799228 L14.7363,6.8727 L14.3313,7.5603 L14.3596162,7.59513288 C14.95553,8.35667916 14.95553,9.43032084 14.3596162,10.1918671 L14.3596162,10.1918671 L14.3364,10.2201 L14.7363,10.8987 L14.7733702,10.8928075 C15.7330268,10.7530701 16.6707219,11.2745318 17.0637142,12.1766859 L17.0637142,12.1766859 L17.0763,12.207 L17.9421,12.207 L17.9481997,12.1924891 C18.3364991,11.303853 19.2737116,10.7829805 20.2279031,10.9216012 L20.2279031,10.9216012 L20.2647,10.9275 L20.6661,10.2381 L20.6426428,10.2091366 C20.0421877,9.4475083 20.0420496,8.36965952 20.6398717,7.61089308 L20.6398717,7.61089308 L20.6745,7.5684 L20.2644,6.873 L20.2239836,6.8793464 C19.260368,7.01153993 18.3246935,6.48025534 17.943576,5.5828357 L17.943576,5.5828357 L17.9301,5.55 Z M17.502,6.606 C18.7645229,6.606 19.788,7.62947706 19.788,8.892 C19.788,10.1545229 18.7645229,11.178 17.502,11.178 C16.2394771,11.178 15.216,10.1545229 15.216,8.892 C15.216,7.62947706 16.2394771,6.606 17.502,6.606 Z M17.502,8.106 C17.0679042,8.106 16.716,8.45790419 16.716,8.892 C16.716,9.32609581 17.0679042,9.678 17.502,9.678 C17.9360958,9.678 18.288,9.32609581 18.288,8.892 C18.288,8.45790419 17.9360958,8.106 17.502,8.106 Z" id="Combined-Shape" fill="#000000" fill-rule="nonzero"></path>
    </g>
</svg>