<?xml version="1.0" encoding="UTF-8"?>
<svg width="24px" height="24px" viewBox="0 0 24 24" version="1.1" xmlns="http://www.w3.org/2000/svg" xmlns:xlink="http://www.w3.org/1999/xlink">
    <title>03. tokens/Icon/m/type : wave_both</title>
    <g id="03.-tokens/Icon/m/type-:-wave_both" stroke="none" stroke-width="1" fill="none" fill-rule="evenodd">
        <rect id="background" x="0" y="0" width="24" height="24"></rect>
        <path d="M19.134974,4.87435489 C22.9826314,8.79029888 23.021108,15.0435788 19.2504038,19.0062695 L19.134974,19.1256451 L18.065026,18.0743549 C21.3450148,14.7361542 21.3778147,9.40545912 18.1634256,6.02740853 L18.065026,5.92564511 L19.134974,4.87435489 Z M4.86502596,4.87435489 L5.93497404,5.92564511 C2.65498517,9.26384582 2.62218528,14.5945409 5.83657437,17.9725915 L5.93497404,18.0743549 L4.86502596,19.1256451 C1.01736855,15.2097011 0.97889198,8.95642124 4.74959624,4.99373053 L4.86502596,4.87435489 Z M7.65075651,7.65058333 L8.71124349,8.71141667 C7.8388709,9.58350443 7.34875314,10.7664802 7.34875314,12 C7.34875314,13.1937288 7.80776041,14.340122 8.62801726,15.203226 L8.71124349,15.2885833 L7.65075651,16.3494167 C6.49697341,15.1960103 5.84875314,13.6314294 5.84875314,12 C5.84875314,10.4138881 6.46146134,8.89096248 7.55578126,7.74764495 L7.65075651,7.65058333 Z M16.3492435,7.65058333 C17.5030266,8.80398974 18.1512469,10.3685706 18.1512469,12 C18.1512469,13.5861119 17.5385387,15.1090375 16.4442187,16.2523551 L16.3492435,16.3494167 L15.2887565,15.2885833 C16.1611291,14.4164956 16.6512469,13.2335198 16.6512469,12 C16.6512469,10.8062712 16.1922396,9.65987805 15.3719827,8.79677403 L15.2887565,8.71141667 L16.3492435,7.65058333 Z M12,9.3 C13.4911688,9.3 14.7,10.5088312 14.7,12 C14.7,13.4911688 13.4911688,14.7 12,14.7 C10.5088312,14.7 9.3,13.4911688 9.3,12 C9.3,10.5088312 10.5088312,9.3 12,9.3 Z M12,10.8 C11.3372583,10.8 10.8,11.3372583 10.8,12 C10.8,12.6627417 11.3372583,13.2 12,13.2 C12.6627417,13.2 13.2,12.6627417 13.2,12 C13.2,11.3372583 12.6627417,10.8 12,10.8 Z" id="Combined-Shape" fill="#000000" fill-rule="nonzero"></path>
    </g>
</svg>