<svg viewBox="0 0 28 28" xmlns="http://www.w3.org/2000/svg">
  <defs>
    <linearGradient x1="5.138%" y1="73.803%" x2="99.194%" y2="19.474%" id="a">
      <stop stop-color="#FECC1F" offset="0%"/>
      <stop stop-color="#FE3A6B" offset="33.288%"/>
      <stop stop-color="#A33FFA" offset="55.717%"/>
      <stop stop-color="#3798FB" offset="77.639%"/>
      <stop stop-color="#26D866" offset="100%"/>
    </linearGradient>
  </defs>
  <g fill="none" fill-rule="evenodd">
    <circle cx="14" cy="14" r="14" fill="url(#a)"/>
    <path d="M10.825 16.483c1.037.867 2.123 1.417 3.44 1.417 1.036 0 1.661-.417 1.661-1.1v-.033c0-.65-.395-.984-2.32-1.483-2.32-.6-3.818-1.25-3.818-3.567v-.034c0-2.116 1.679-3.516 4.032-3.516 1.679 0 3.11.533 4.279 1.483l-1.317 1.933c-1.02-.716-2.024-1.15-2.995-1.15-.971 0-1.481.45-1.481 1.017v.033c0 .767.494 1.017 2.485 1.534 2.337.617 3.653 1.467 3.653 3.5v.033c0 2.317-1.744 3.617-4.23 3.617A7.277 7.277 0 0 1 9.328 18.3l1.498-1.817z" fill="#FFF"/>
  </g>
</svg>