<svg xmlns="http://www.w3.org/2000/svg" viewBox="0 0 20 20">
  <g fill="none" fill-rule="evenodd">
    <circle cx="10" cy="10" r="10" fill="#FFD040"/>
    <path d="M10.177 6.826c-1.017 0-1.684.695-1.684 1.88v1.245s1.377-.411 1.952-.59c.481-.149 1.344-.461 1.344-1.237 0-.676-.537-1.298-1.612-1.298m-.207 7.34c-2.301 0-3.306-1.44-3.306-3.262V8.936c0-2.532 1.652-3.52 3.59-3.52 2.34 0 3.364 1.303 3.364 2.604 0 1.9-1.901 2.366-2.742 2.614-.241.072-1.133.343-1.333.402-.784.232-1.01.492-1.01.786 0 .504.43.94 1.437.94.876 0 1.516-.305 1.623-1.24h1.832c-.19 1.479-1.06 2.645-3.455 2.645" fill="#FFF"/>
  </g>
</svg>