<svg xmlns="http://www.w3.org/2000/svg" viewBox="0 0 20 20">
  <g fill="none" fill-rule="evenodd">
    <circle cx="10" cy="10" r="10" fill="#000"/>
    <path d="M8.425 9.71c.492-.452 1.149-.881 1.86-.881 1.137 0 1.76.623 1.76 1.74v2.524c0 .333.066.397.591.397v.258h-2.515v-.258c.634 0 .7-.064.7-.397v-2.685c0-.548-.427-1-1.018-1-.47 0-.864.151-1.378.613v3.072c0 .333.066.397.646.397v.258H6.5v-.258c.635 0 .7-.064.7-.397v-5.94c.011-.548-.492-.505-.7-.57v-.257c.656-.075 1.29-.312 1.925-.494v3.877zm5.849 4.038a.82.82 0 0 1-.818-.833.82.82 0 0 1 .818-.833.82.82 0 0 1 .819.833.82.82 0 0 1-.819.833" fill="#FEFEFE"/>
  </g>
</svg>