<svg xmlns="http://www.w3.org/2000/svg" viewBox="0 0 20 20">
  <g fill="none" fill-rule="evenodd">
    <circle cx="10" cy="10" r="10" fill="#8097AF"/>
    <path d="M9.208 13.675V6.25H8.3v2.917h-.605V6.383h-.892v6.95h.892V9.95H8.3v3.725h.908zm-5.842-1.617c.688-.416 1.236-1.183 1.432-1.958.197.733.818 1.467 1.285 1.767l.548-.692c-.884-.533-1.375-1.667-1.375-3.1V6.967h-.924v1.116c0 1.584-.597 2.7-1.514 3.309l.548.666zm12.74-1.5V6.25h-.95v1.008h-1.039v.775h1.04v.817h-1.04v.783h1.04v.925h.948zm-2.357-.441v-3.5H12.8v1.066h-1.522v-1.05h-.957v3.484h3.428zm-.949-.775h-1.522v-.9H12.8v.9zm3.314 4.341v-2.75H11.18v.775h3.976v1.975h.958z" fill="#FFF" fill-rule="nonzero"/>
  </g>
</svg>