<svg xmlns="http://www.w3.org/2000/svg" viewBox="0 0 20 20">
  <g fill="none" fill-rule="evenodd">
    <path d="M19.91 9.993a9.915 9.915 0 1 1-19.83.003 9.915 9.915 0 0 1 19.83-.003z" fill="#FFF" fill-rule="nonzero"/>
    <path d="M11 4.366a5.863 5.863 0 0 0-1.995 0c-.051.01-.07-.04-.031-.069L10 3.515s.995.758 1.03.782c.035.024.02.078-.032.069zM9.281 9.28a.118.118 0 0 0-.066.068c.206.16.352.524.785.524.434 0 .58-.363.789-.524a.123.123 0 0 0-.069-.068c-.236.048-.478.07-.72.067a3.314 3.314 0 0 1-.719-.067zm.72-.612c-.12 0-.15-.046-.23-.046-.08 0-.231.064-.263.121a.138.138 0 0 0 .033.075c.177.026.257.124.46.124.202 0 .284-.098.46-.124a.131.131 0 0 0 .032-.075c-.032-.057-.183-.12-.263-.12-.079 0-.109.045-.23.045zm9.912 1.878a9.696 9.696 0 0 1-.063.705c-1.124.186-1.527-.817-2.676-.765.069.247.124.497.167.75.95 0 1.333.886 2.388.755a9.928 9.928 0 0 1-.2.803c-.835.083-1.13-.75-2.098-.725.01.138.013.277.013.416v.233c.824-.01 1.091.75 1.873.716a9.4 9.4 0 0 1-.328.783c-.563-.032-.758-.754-1.615-.696-.027.184-.06.368-.099.549.75-.053.906.634 1.44.689-.135.248-.283.49-.438.724-.316-.167-.59-.679-1.191-.71.063-.19.117-.383.162-.577a2.484 2.484 0 0 1-1.648-.675c.165-.941-1.298-1.9-1.298-2.59 0-.749.375-1.164.375-2.172 0-.75-.364-1.561-.911-2.118a1.948 1.948 0 0 0-.339-.274c.504.625.892 1.366.892 2.222 0 .95-.442 1.452-.442 2.33 0 .878 1.282 1.638 1.282 2.542 0 .356-.113.704-.487 1.387.576.576 1.326.89 1.812.89.155 0 .24-.047.3-.173.048-.106.093-.214.137-.322.524.02.76.494 1.049.684-.158.212-.325.418-.5.618-.194-.216-.453-.576-.834-.675-.068.134-.14.263-.217.39.33.091.553.422.728.639-.188.193-.383.38-.586.559-.128-.197-.324-.45-.546-.582-.08.11-.166.217-.253.323.19.148.347.333.463.543a9.92 9.92 0 0 1-.729.533c-.123-1.008-1.498-1.698-1.13-2.868-.12.206-.265.463-.265.774 0 .846.902 1.52.974 2.361-.187.11-.375.217-.573.316-.033-.925-.988-1.937-.988-2.696 0-.849 1.11-1.698 1.11-2.697 0-.998-1.281-1.693-1.281-2.572 0-.88.544-1.384.544-2.51a2.996 2.996 0 0 0-.994-2.19 1.653 1.653 0 0 0-.34-.236c.569.684.898 1.305.898 2.247 0 1.058-.623 1.648-.623 2.68 0 1.034 1.253 1.607 1.253 2.573s-1.168 1.781-1.168 2.771c0 .903 1.03 1.806 1.045 2.877a9.44 9.44 0 0 1-.689.27c.13-1.083-1.029-2.2-1.029-3.083 0-.964 1.212-1.798 1.212-2.836 0-1.038-1.23-1.526-1.23-2.595 0-1.068.757-1.66.757-2.84a2.875 2.875 0 0 0-1.119-2.26l-.04-.033c-.064-.046-.116.01-.071.065.47.588.722 1.18.722 2.06 0 1.078-.87 1.955-.87 3.002 0 1.234 1.168 1.588 1.168 2.6 0 1.013-1.253 1.826-1.253 2.902 0 .995 1.186 2.102.982 3.254-.238.06-.48.115-.723.158.225-1.433-.94-2.462-.94-3.4 0-1.015 1.296-1.919 1.296-2.912 0-.935-.93-1.24-1.049-2.199a.225.225 0 0 0-.266-.204c-.19.036-.43.161-.813.161-.382 0-.62-.125-.812-.161a.225.225 0 0 0-.265.204c-.122.958-1.05 1.264-1.05 2.199 0 .993 1.296 1.897 1.296 2.912 0 .938-1.162 1.967-.94 3.4a10.201 10.201 0 0 1-.721-.158c-.203-1.152.98-2.259.98-3.254 0-1.078-1.25-1.887-1.25-2.9 0-1.014 1.165-1.366 1.165-2.6 0-1.05-.868-1.924-.868-3.003 0-.88.25-1.472.722-2.06.044-.055-.01-.11-.074-.064l-.042.033a2.879 2.879 0 0 0-1.12 2.26c0 1.18.756 1.771.756 2.84s-1.233 1.553-1.233 2.594S7.76 15.33 7.76 16.293c0 .883-1.159 2-1.029 3.083a9.697 9.697 0 0 1-.688-.27c.015-1.07 1.05-1.974 1.05-2.877 0-.99-1.17-1.806-1.17-2.771 0-.966 1.253-1.543 1.253-2.58 0-1.038-.623-1.623-.623-2.682 0-.942.33-1.563.899-2.247a1.6 1.6 0 0 0-.336.235 2.996 2.996 0 0 0-.997 2.191c0 1.124.544 1.632.544 2.51 0 .878-1.281 1.573-1.281 2.572 0 1 1.11 1.85 1.11 2.697 0 .76-.955 1.77-.987 2.696-.195-.1-.387-.206-.573-.316.075-.841.974-1.515.974-2.361 0-.31-.146-.569-.267-.774.37 1.17-1.005 1.86-1.127 2.868a9.6 9.6 0 0 1-.73-.533c.116-.211.273-.396.463-.544a6.928 6.928 0 0 1-.253-.322c-.225.134-.42.384-.547.581a9.797 9.797 0 0 1-.584-.558c.174-.218.398-.548.726-.639a5.958 5.958 0 0 1-.216-.39c-.381.1-.64.46-.835.674-.173-.2-.34-.405-.5-.618.29-.19.525-.663 1.05-.683.042.107.089.216.136.322.057.125.144.172.3.172.485 0 1.237-.313 1.811-.89-.374-.682-.487-1.03-.487-1.387 0-.903 1.284-1.664 1.284-2.541s-.443-1.38-.443-2.33c0-.857.387-1.597.891-2.222-.123.078-.237.17-.34.274-.553.558-.914 1.374-.914 2.122 0 1.01.375 1.423.375 2.172 0 .69-1.46 1.648-1.297 2.59a2.48 2.48 0 0 1-1.648.675c.046.194.1.387.161.577-.599.032-.874.543-1.19.71a10.47 10.47 0 0 1-.439-.724c.535-.055.695-.742 1.44-.69a8.848 8.848 0 0 1-.098-.548c-.857-.058-1.048.664-1.616.696a9.132 9.132 0 0 1-.327-.783c.784.036 1.048-.726 1.872-.715 0-.079-.004-.155-.004-.233 0-.14.004-.279.013-.417-.967-.022-1.26.808-2.098.725a10.646 10.646 0 0 1-.198-.803c1.059.132 1.443-.751 2.392-.751.043-.253.099-.503.169-.75-1.152-.052-1.558.95-2.677.765a9.377 9.377 0 0 1-.063-.705c1.305.15 1.797-.929 2.984-.798a7.26 7.26 0 0 1 .39-.824c-1.492-.26-1.998.986-3.386.794a9.927 9.927 0 0 1 19.85 0c-1.39.192-1.895-1.054-3.387-.793.148.266.278.541.39.824 1.186-.132 1.677.943 2.982.797zM5.734 6.382c-.73-.3-1.615-.23-2.37.255a2.596 2.596 0 0 0-1.042-1.704.09.09 0 0 0-.15.084C2.291 6.504 1.423 7.79.354 8.928c1.1.33 2.038-1.088 3.465-.592a7.496 7.496 0 0 1 1.915-1.954zm4.27-.899c-.92 0-1.693.52-1.895 1.193-.016.053.006.086.066.059.176-.076.366-.113.558-.11.375 0 .707.138.904.375.087.286.094.702-.005.937-.154-.034-.21-.154-.362-.154s-.268.105-.524.105-.286-.12-.454-.12c-.198 0-.235.205-.235.434 0 1.027.943 2.44 1.947 2.44 1.005 0 1.948-1.413 1.948-2.44 0-.229-.046-.427-.254-.454a.626.626 0 0 1-.434.14c-.257 0-.328-.105-.478-.105-.182 0-.164.384-.382.407a1.835 1.835 0 0 1-.03-1.19c.196-.238.524-.375.899-.375.192-.004.382.034.558.11.061.027.084-.006.068-.059-.205-.672-.977-1.191-1.898-1.191l.003-.002zm1.468 1.471c-.225 0-.482.068-.644.25a.25.25 0 0 0 .008.172c.4-.137.754-.143.924.049a.306.306 0 0 0 .12-.244c-.003-.132-.137-.225-.41-.225l.002-.002zm-3.221.47c.194-.193.6-.185 1.024-.03.02-.21-.359-.44-.735-.44-.274 0-.408.093-.408.225a.31.31 0 0 0 .114.247l.005-.001zM14.6 3.95a3.267 3.267 0 0 0-1.872.718 7.34 7.34 0 0 1 .838-1.67c-.925.098-1.7.437-2.266 1.014l-.444-1.165.986-.864-1.317-.093L10 .665 9.477 1.89l-1.312.093.98.864-.443 1.161c-.566-.577-1.339-.916-2.265-1.01.35.519.633 1.081.842 1.672a3.279 3.279 0 0 0-1.873-.718 8.753 8.753 0 0 1 1.11 1.801.12.12 0 0 0 .178.06 7.46 7.46 0 0 1 6.617 0 .12.12 0 0 0 .176-.06 8.789 8.789 0 0 1 1.11-1.801l.004-.002zm1.59 4.386c1.427-.497 2.364.921 3.464.592-1.072-1.137-1.941-2.423-1.827-3.908a.09.09 0 0 0-.15-.084 2.585 2.585 0 0 0-1.042 1.704c-.755-.485-1.64-.554-2.372-.255a7.475 7.475 0 0 1 1.921 1.952l.005-.001z" fill="#006241"/>
  </g>
</svg>