<svg xmlns="http://www.w3.org/2000/svg" xmlns:xlink="http://www.w3.org/1999/xlink" viewBox="0 0 20 20">
  <defs>
    <filter id="c">
      <feColorMatrix in="SourceGraphic" values="0 0 0 0 1.000000 0 0 0 0 1.000000 0 0 0 0 1.000000 0 0 0 1.000000 0"/>
    </filter>
    <circle id="a" cx="10" cy="10" r="10"/>
  </defs>
  <g fill="none" fill-rule="evenodd">
    <mask id="b" fill="#fff">
      <use xlink:href="#a"/>
    </mask>
    <use fill="#D8D8D8" xlink:href="#a"/>
    <g mask="url(#b)">
      <path fill="#6A6B6D" d="M0 0h6.667v6.667H0z"/>
      <path fill="#6A6B6D" d="M2.65 2.593c0 .452-.44.608-.91.608-.632 0-1.036-.261-1.057-.806H0v-1.23c.407 1.147 2.65.495 2.65 1.428m1.424 1.44c0 .834 2.019.267 2.593 1.205v1.428H3.333v-.937h.684c.02.544.423.805 1.057.805.47 0 .908-.157.908-.609 0-.931-2.242-.28-2.649-1.427V1.905C2.76.967.74 1.535.74.7c0-.388.34-.566.856-.566.646 0 .903.347.928.666h.81V0h3.333v4.131h-.808c-.027-.318-.284-.666-.93-.666-.514 0-.855.18-.855.567"/>
      <path fill="#7E8083" d="M5.982 5.926c0 .452-.439.608-.908.608-.634 0-1.037-.26-1.057-.804h-.684v.937H0V2.395h.683c.021.545.425.806 1.058.806.47 0 .908-.156.908-.608C2.65 1.66.407 2.313 0 1.164V0h3.333v.799h-.809C2.5.479 2.242.133 1.596.133 1.081.133.74.31.74.7c0 .834 2.019.268 2.593 1.206v2.593c.407 1.147 2.65.496 2.65 1.427zm.685-1.794V5.24c-.574-.938-2.593-.371-2.593-1.206 0-.388.34-.567.856-.567.645 0 .902.347.93.666h.807z"/>
      <path fill="#6A6B6D" d="M0 6.667h6.667v6.667H0z"/>
      <path fill="#6A6B6D" d="M2.65 9.26c0 .452-.44.608-.91.608-.632 0-1.036-.261-1.057-.806H0v-1.23c.407 1.147 2.65.495 2.65 1.428m1.424 1.44c0 .834 2.019.267 2.593 1.205v1.428H3.333v-.937h.684c.02.544.423.805 1.057.805.47 0 .908-.157.908-.609 0-.931-2.242-.28-2.649-1.427V8.572C2.76 7.634.74 8.202.74 7.367c0-.388.34-.566.856-.566.646 0 .903.347.928.666h.81v-.8h3.333v4.131h-.808c-.027-.318-.284-.666-.93-.666-.514 0-.855.18-.855.567"/>
      <path fill="#7E8083" d="M5.982 12.593c0 .452-.439.608-.908.608-.634 0-1.037-.26-1.057-.804h-.684v.937H0V9.062h.683c.021.545.425.806 1.058.806.47 0 .908-.156.908-.608C2.65 8.327.407 8.98 0 7.831V6.667h3.333v.799h-.809c-.024-.32-.282-.666-.928-.666-.515 0-.856.177-.856.567 0 .834 2.019.268 2.593 1.206v2.593c.407 1.147 2.65.496 2.65 1.427zm.685-1.794v1.108c-.574-.938-2.593-.371-2.593-1.206 0-.388.34-.567.856-.567.645 0 .902.347.93.666h.807z"/>
      <path fill="#6A6B6D" d="M6.667 0h6.667v6.667H6.667z"/>
      <path fill="#6A6B6D" d="M9.317 2.593c0 .452-.44.608-.91.608-.632 0-1.036-.261-1.057-.806h-.683v-1.23c.407 1.147 2.65.495 2.65 1.428m1.424 1.44c0 .834 2.019.267 2.593 1.205v1.428H10v-.937h.684c.02.544.423.805 1.057.805.47 0 .908-.157.908-.609 0-.931-2.242-.28-2.649-1.427V1.905C9.427.967 7.407 1.535 7.407.7c0-.388.34-.566.856-.566.646 0 .903.347.928.666h.81V0h3.333v4.131h-.808c-.027-.318-.284-.666-.93-.666-.514 0-.855.18-.855.567"/>
      <path fill="#7E8083" d="M12.649 5.926c0 .452-.439.608-.908.608-.634 0-1.037-.26-1.057-.804H10v.937H6.667V2.395h.683c.021.545.425.806 1.058.806.47 0 .908-.156.908-.608.001-.933-2.242-.28-2.649-1.429V0H10v.799h-.809c-.024-.32-.282-.666-.928-.666-.515 0-.856.177-.856.567 0 .834 2.019.268 2.593 1.206v2.593c.407 1.147 2.65.496 2.65 1.427zm.685-1.794V5.24c-.574-.938-2.593-.371-2.593-1.206 0-.388.34-.567.856-.567.645 0 .902.347.93.666h.807z"/>
      <path fill="#6A6B6D" d="M6.667 6.667h6.667v6.667H6.667z"/>
      <path fill="#6A6B6D" d="M9.317 9.26c0 .452-.44.608-.91.608-.632 0-1.036-.261-1.057-.806h-.683v-1.23c.407 1.147 2.65.495 2.65 1.428m1.424 1.44c0 .834 2.019.267 2.593 1.205v1.428H10v-.937h.684c.02.544.423.805 1.057.805.47 0 .908-.157.908-.609 0-.931-2.242-.28-2.649-1.427V8.572c-.573-.938-2.593-.37-2.593-1.205 0-.388.34-.566.856-.566.646 0 .903.347.928.666h.81v-.8h3.333v4.131h-.808c-.027-.318-.284-.666-.93-.666-.514 0-.855.18-.855.567"/>
      <path fill="#7E8083" d="M12.649 12.593c0 .452-.439.608-.908.608-.634 0-1.037-.26-1.057-.804H10v.937H6.667V9.062h.683c.021.545.425.806 1.058.806.47 0 .908-.156.908-.608.001-.933-2.242-.28-2.649-1.429V6.667H10v.799h-.809c-.024-.32-.282-.666-.928-.666-.515 0-.856.177-.856.567 0 .834 2.019.268 2.593 1.206v2.593c.407 1.147 2.65.496 2.65 1.427zm.685-1.794v1.108c-.574-.938-2.593-.371-2.593-1.206 0-.388.34-.567.856-.567.645 0 .902.347.93.666h.807z"/>
      <g>
        <path fill="#6A6B6D" d="M13.333 0H20v6.667h-6.667z"/>
        <path fill="#6A6B6D" d="M15.983 2.593c0 .452-.44.608-.91.608-.632 0-1.036-.261-1.057-.806h-.683v-1.23c.407 1.147 2.65.495 2.65 1.428m1.424 1.44c0 .834 2.019.267 2.593 1.205v1.428h-3.334v-.937h.684c.02.544.423.805 1.057.805.47 0 .908-.157.908-.609 0-.931-2.242-.28-2.649-1.427V1.905c-.573-.938-2.593-.37-2.593-1.205 0-.388.34-.566.856-.566.646 0 .903.347.928.666h.81V0H20v4.131h-.808c-.027-.318-.284-.666-.93-.666-.514 0-.855.18-.855.567"/>
        <path fill="#7E8083" d="M19.315 5.926c0 .452-.439.608-.908.608-.634 0-1.037-.26-1.057-.804h-.684v.937h-3.333V2.395h.683c.021.545.425.806 1.058.806.47 0 .908-.156.908-.608.001-.933-2.242-.28-2.649-1.429V0h3.333v.799h-.809c-.024-.32-.282-.666-.928-.666-.515 0-.856.177-.856.567 0 .834 2.019.268 2.593 1.206v2.593c.407 1.147 2.65.496 2.65 1.427zM20 4.132V5.24c-.574-.938-2.593-.371-2.593-1.206 0-.388.34-.567.856-.567.645 0 .902.347.93.666H20z"/>
      </g>
      <g>
        <path fill="#6A6B6D" d="M13.333 6.667H20v6.667h-6.667z"/>
        <path fill="#6A6B6D" d="M15.983 9.26c0 .452-.44.608-.91.608-.632 0-1.036-.261-1.057-.806h-.683v-1.23c.407 1.147 2.65.495 2.65 1.428m1.424 1.44c0 .834 2.019.267 2.593 1.205v1.428h-3.334v-.937h.684c.02.544.423.805 1.057.805.47 0 .908-.157.908-.609 0-.931-2.242-.28-2.649-1.427V8.572c-.573-.938-2.593-.37-2.593-1.205 0-.388.34-.566.856-.566.646 0 .903.347.928.666h.81v-.8H20v4.131h-.808c-.027-.318-.284-.666-.93-.666-.514 0-.855.18-.855.567"/>
        <path fill="#7E8083" d="M19.315 12.593c0 .452-.439.608-.908.608-.634 0-1.037-.26-1.057-.804h-.684v.937h-3.333V9.062h.683c.021.545.425.806 1.058.806.47 0 .908-.156.908-.608.001-.933-2.242-.28-2.649-1.429V6.667h3.333v.799h-.809c-.024-.32-.282-.666-.928-.666-.515 0-.856.177-.856.567 0 .834 2.019.268 2.593 1.206v2.593c.407 1.147 2.65.496 2.65 1.427zM20 10.799v1.108c-.574-.938-2.593-.371-2.593-1.206 0-.388.34-.567.856-.567.645 0 .902.347.93.666H20z"/>
      </g>
      <g>
        <path fill="#6A6B6D" d="M0 13.333h6.667V20H0z"/>
        <path fill="#6A6B6D" d="M2.65 15.926c0 .452-.44.608-.91.608-.632 0-1.036-.261-1.057-.806H0v-1.23c.407 1.147 2.65.495 2.65 1.428m1.424 1.44c0 .834 2.019.267 2.593 1.205v1.428H3.333v-.937h.684c.02.544.423.805 1.057.805.47 0 .908-.157.908-.609 0-.931-2.242-.28-2.649-1.427v-2.593C2.76 14.3.74 14.868.74 14.033c0-.388.34-.566.856-.566.646 0 .903.347.928.666h.81v-.8h3.333v4.131h-.808c-.027-.318-.284-.666-.93-.666-.514 0-.855.18-.855.567"/>
        <path fill="#7E8083" d="M5.982 19.259c0 .452-.439.608-.908.608-.634 0-1.037-.26-1.057-.804h-.684V20H0v-4.272h.683c.021.545.425.806 1.058.806.47 0 .908-.156.908-.608.001-.933-2.242-.28-2.649-1.429v-1.164h3.333v.799h-.809c-.024-.32-.282-.666-.928-.666-.515 0-.856.177-.856.567 0 .834 2.019.268 2.593 1.206v2.593c.407 1.147 2.65.496 2.65 1.427zm.685-1.794v1.108c-.574-.938-2.593-.371-2.593-1.206 0-.388.34-.567.856-.567.645 0 .902.347.93.666h.807z"/>
      </g>
      <g>
        <path fill="#6A6B6D" d="M6.667 13.333h6.667V20H6.667z"/>
        <path fill="#6A6B6D" d="M9.317 15.926c0 .452-.44.608-.91.608-.632 0-1.036-.261-1.057-.806h-.683v-1.23c.407 1.147 2.65.495 2.65 1.428m1.424 1.44c0 .834 2.019.267 2.593 1.205v1.428H10v-.937h.684c.02.544.423.805 1.057.805.47 0 .908-.157.908-.609 0-.931-2.242-.28-2.649-1.427v-2.593c-.573-.938-2.593-.37-2.593-1.205 0-.388.34-.566.856-.566.646 0 .903.347.928.666h.81v-.8h3.333v4.131h-.808c-.027-.318-.284-.666-.93-.666-.514 0-.855.18-.855.567"/>
        <path fill="#7E8083" d="M12.649 19.259c0 .452-.439.608-.908.608-.634 0-1.037-.26-1.057-.804H10V20H6.667v-4.272h.683c.021.545.425.806 1.058.806.47 0 .908-.156.908-.608.001-.933-2.242-.28-2.649-1.429v-1.164H10v.799h-.809c-.024-.32-.282-.666-.928-.666-.515 0-.856.177-.856.567 0 .834 2.019.268 2.593 1.206v2.593c.407 1.147 2.65.496 2.65 1.427zm.685-1.794v1.108c-.574-.938-2.593-.371-2.593-1.206 0-.388.34-.567.856-.567.645 0 .902.347.93.666h.807z"/>
      </g>
      <g>
        <path fill="#6A6B6D" d="M13.333 13.333H20V20h-6.667z"/>
        <path fill="#6A6B6D" d="M15.983 15.926c0 .452-.44.608-.91.608-.632 0-1.036-.261-1.057-.806h-.683v-1.23c.407 1.147 2.65.495 2.65 1.428m1.424 1.44c0 .834 2.019.267 2.593 1.205v1.428h-3.334v-.937h.684c.02.544.423.805 1.057.805.47 0 .908-.157.908-.609 0-.931-2.242-.28-2.649-1.427v-2.593c-.573-.938-2.593-.37-2.593-1.205 0-.388.34-.566.856-.566.646 0 .903.347.928.666h.81v-.8H20v4.131h-.808c-.027-.318-.284-.666-.93-.666-.514 0-.855.18-.855.567"/>
        <path fill="#7E8083" d="M19.315 19.259c0 .452-.439.608-.908.608-.634 0-1.037-.26-1.057-.804h-.684V20h-3.333v-4.272h.683c.021.545.425.806 1.058.806.47 0 .908-.156.908-.608.001-.933-2.242-.28-2.649-1.429v-1.164h3.333v.799h-.809c-.024-.32-.282-.666-.928-.666-.515 0-.856.177-.856.567 0 .834 2.019.268 2.593 1.206v2.593c.407 1.147 2.65.496 2.65 1.427zM20 17.465v1.108c-.574-.938-2.593-.371-2.593-1.206 0-.388.34-.567.856-.567.645 0 .902.347.93.666H20z"/>
      </g>
    </g>
    <g mask="url(#b)">
      <g filter="url(#c)" transform="translate(1.667 1.667)">
        <path fill="#FFF" d="M9.213 7.986C7.585 7.024 7.036 6.7 7.036 5.95c0-.583.576-1.006 1.369-1.006.731 0 1.42.309 2.044.919l.038.036V4.386l-.011-.007a3.65 3.65 0 0 0-2.032-.629c-1.537 0-2.61.98-2.61 2.382 0 .523.14.95.442 1.344.395.506.81.759 2.182 1.594.428.258 1.147.798 1.147 1.518 0 .745-.692 1.147-1.342 1.147-1.327 0-2.1-.974-2.353-1.293l-.039-.05v1.691l.01.007c.706.54 1.53.827 2.382.827 1.513 0 2.57-1.006 2.57-2.447 0-.573-.161-1.074-.48-1.487-.28-.38-.652-.707-1.14-.997z"/>
      </g>
    </g>
  </g>
</svg>