<svg xmlns="http://www.w3.org/2000/svg" viewBox="0 0 20 20">
  <g fill="none" fill-rule="evenodd">
    <circle cx="10" cy="10" r="10" fill="#F12E24"/>
    <path d="M11.556 11.677c0-.315-.11-.558-.33-.727-.22-.169-.615-.347-1.187-.534-.571-.188-1.023-.373-1.357-.555-.908-.497-1.362-1.168-1.362-2.01 0-.439.122-.83.365-1.173.244-.344.594-.612 1.05-.805a3.9 3.9 0 0 1 1.535-.29c.571 0 1.08.105 1.527.315.447.21.794.506 1.041.889.247.382.371.817.371 1.303h-1.648c0-.371-.115-.66-.346-.866-.23-.206-.555-.31-.972-.31-.403 0-.716.087-.94.26a.82.82 0 0 0-.335.682c0 .264.131.485.393.663.262.178.647.345 1.156.501.938.286 1.62.64 2.05 1.064.428.424.642.95.642 1.582 0 .702-.262 1.253-.785 1.652-.524.4-1.23.599-2.116.599a4.036 4.036 0 0 1-1.68-.343c-.506-.228-.891-.541-1.157-.939a2.428 2.428 0 0 1-.398-1.381h1.653c0 .895.528 1.342 1.582 1.342.392 0 .698-.08.918-.242a.792.792 0 0 0 .33-.677z" fill="#FFF"/>
  </g>
</svg>