<svg xmlns="http://www.w3.org/2000/svg" viewBox="0 0 20 20">
  <defs>
    <linearGradient x1="50%" y1="0%" x2="50%" y2="100%" id="a">
      <stop stop-color="#E9450C" offset="0%"/>
      <stop stop-color="gold" offset="50%"/>
      <stop stop-color="#DF0082" offset="100%"/>
    </linearGradient>
  </defs>
  <g fill="none" fill-rule="evenodd">
    <circle cx="10" cy="10" r="10" fill="#000"/>
    <path d="M8.182 1.667c3.607 0 6.545 2.994 6.545 6.667l-.004.233C14.602 12.132 11.713 15 8.182 15l-.23-.004c-3.501-.124-6.316-3.068-6.316-6.662L1.64 8.1c.122-3.565 3.011-6.433 6.542-6.433zM6.992 12.82v1.666a6.14 6.14 0 0 0 1.19.117l.358-.01a6.099 6.099 0 0 0 1.374-.241l-.865-1.491-.234.044c-.237.04-.48.06-.726.06l-.276-.01a4.492 4.492 0 0 1-.821-.135zm1.19-10.758-.227.004C4.639 2.188 1.99 4.964 1.99 8.334c0 2.895 1.956 5.352 4.61 6.063V5.603h1.23l.188.006c1.48.089 2.285 1.228 2.285 2.367l-.006.15c-.077 1.143-1.037 2.129-2.338 2.129l1.172 2.014-.116.037a2.05 2.05 0 0 1-.237.058l-1.395-2.41.019-.038h.557l.165-.006c1.13-.082 1.825-1 1.825-1.934l-.005-.133C9.88 6.874 9.11 5.961 7.83 5.961h-.837v6.471l.222.062c.3.075.606.114.912.114l.23-.007c1.15-.072 2.28-.678 3.117-1.631l.037.019-.093.527-.17.179a4.526 4.526 0 0 1-1.829 1.07l.856 1.47.23-.089a6.286 6.286 0 0 0 3.87-5.812l-.005-.23c-.119-3.34-2.842-6.041-6.187-6.041zm0 1.45.244.006c1.288.071 2.379.696 2.991 1.387v.49h-.037l-.154-.166c-.788-.813-1.859-1.36-3.044-1.36l-.195.005c-2.133.108-3.99 1.972-3.99 4.42l.007.237c.083 1.712 1.076 3.032 2.374 3.662v.414l-.179-.08c-1.477-.7-2.627-2.224-2.591-4.27.055-2.712 2.082-4.745 4.574-4.745z" transform="translate(2 1.667)" fill="url(#a)"/>
  </g>
</svg>