<svg xmlns="http://www.w3.org/2000/svg" viewBox="0 0 20 20">
  <g fill="none" fill-rule="evenodd">
    <circle cx="10" cy="10" r="10" fill="#FFF"/>
    <path d="M8.778 12.619a1.912 1.912 0 0 0 .374-.318c.27-.298.416-.665.416-1.063 0-.121-.016-.239-.046-.353a1.578 1.578 0 0 0-.37-.662 2.133 2.133 0 0 0-.424-.352l-.019-.012-.99-.627-.206-.13c-.406-.268-.774-.555-.942-.9a.914.914 0 0 1-.096-.404c0-.296.158-.546.424-.71a1.56 1.56 0 0 1 .815-.206h.001c.201 0 .408.078.594.206.357.245.635.677.635 1.114h.208v-1.32a2.183 2.183 0 0 0-.387-.207 2.71 2.71 0 0 0-1.05-.206c-.386 0-.749.075-1.065.206-.14.059-.27.128-.389.207a2.08 2.08 0 0 0-.264.206c-.322.3-.517.686-.517 1.114 0 .566.401.987.945 1.364.286.198.61.385.938.574.113.066.226.131.338.198.274.175.487.357.634.547.157.203.24.416.24.637 0 .38-.164.696-.485.89-.216.13-.504.207-.865.207-.307 0-.571-.08-.794-.207-.65-.37-.95-1.141-.95-1.527h-.208v1.343c.055.065.117.126.183.184l.024.022a2.343 2.343 0 0 0 .655.391c.325.132.696.206 1.09.206.437 0 .825-.074 1.153-.206.145-.058.28-.127.4-.206m2.079-.463a.433.433 0 0 0-.43.438c0 .241.192.437.43.437.237 0 .43-.196.43-.437a.434.434 0 0 0-.43-.438m4.295.655a1.23 1.23 0 0 1-.726-.22c-.17-.126-.276-.297-.276-.484V7.394c0-.188.105-.358.276-.485.182-.135.44-.22.726-.22v-.22h-3.007v.22c.287 0 .544.085.727.22.17.127.275.297.275.485v4.713c0 .187-.105.358-.275.484-.183.135-.44.22-.727.22v.22h3.007v-.22z" fill="#222"/>
    <circle cx="10" cy="10" r="9.75" stroke="#000" stroke-width=".5"/>
  </g>
</svg>