<svg xmlns="http://www.w3.org/2000/svg" viewBox="0 0 20 20">
  <g fill="none" fill-rule="evenodd">
    <circle cx="10" cy="10" r="10" fill="#B12536"/>
    <path d="M10.926 5.632c.574-.486 1.475-.44 1.981-.008.286.245.543.818.144 1.46-.055.088.048.186.124.115.049-.047.637-.73.684-1.22.12-1.23-2.266-1.619-3.504-.42-1.636 1.586-.313 3.241.573 4.693 1.223 2.004-.073 3.703-1.828 3.703-1.89 0-2.416-1.55-1.901-2.647.128-.273.38-.59.57-.732.058-.042.075-.076.058-.108-.02-.041-.068-.054-.146-.041-.476.08-1.105.442-1.369.898-.735 1.269.395 3.09 2.9 3.09 2.669 0 4.283-2.457 2.761-4.782-.753-1.151-2.376-2.88-1.047-4.001" fill="#FFF"/>
  </g>
</svg>