<svg xmlns="http://www.w3.org/2000/svg" viewBox="0 0 45 40">
  <g fill="none" fill-rule="evenodd">
    <path fill="#000" d="M43.567 13 38.9 27H37.5l4.665-14h1.402Zm-13.909 0c2.338 0 3.748.625 5.102 1.766l-1.8 2.152c-1.001-.827-1.892-1.306-3.394-1.306-2.078 0-3.729 1.822-3.729 4.01v.038c0 2.354 1.632 4.084 3.933 4.084 1.039 0 1.966-.258 2.69-.773v-1.84h-2.876v-2.446h5.64v5.592c-1.336 1.123-3.173 2.042-5.547 2.042-4.044 0-6.827-2.814-6.827-6.623v-.036c0-3.661 2.876-6.66 6.808-6.66Zm-24.594.036c1.892 0 3.506.59 4.823 1.638l-1.484 2.134c-1.15-.791-2.281-1.27-3.376-1.27-1.094 0-1.67.497-1.67 1.123v.037c0 .846.557 1.122 2.802 1.692 2.634.681 4.118 1.62 4.118 3.863v.037c0 2.558-1.966 3.993-4.767 3.993-1.967 0-3.952-.681-5.51-2.06l1.688-2.006c1.169.956 2.393 1.564 3.877 1.564 1.169 0 1.874-.46 1.874-1.215v-.036c0-.718-.445-1.086-2.616-1.638C2.208 20.23.52 19.512.52 16.955v-.037c0-2.336 1.892-3.882 4.545-3.882Zm11.409 0c1.892 0 3.505.59 4.822 1.638l-1.484 2.134c-1.15-.791-2.281-1.27-3.376-1.27-1.094 0-1.67.497-1.67 1.123v.037c0 .846.557 1.122 2.802 1.692 2.634.681 4.118 1.62 4.118 3.863v.037c0 2.558-1.966 3.993-4.767 3.993-1.967 0-3.952-.681-5.51-2.06l1.688-2.006c1.169.956 2.393 1.564 3.877 1.564 1.169 0 1.874-.46 1.874-1.215v-.036c0-.718-.445-1.086-2.616-1.638-2.615-.662-4.303-1.38-4.303-3.937v-.037c0-2.336 1.892-3.882 4.545-3.882Z"/>
    <path d="M0 0h45v40H0z"/>
  </g>
</svg>