<svg xmlns="http://www.w3.org/2000/svg" viewBox="0 0 73 40">
  <defs>
    <filter id="a" color-interpolation-filters="auto">
      <feColorMatrix in="SourceGraphic" values="0 0 0 0 0.243137 0 0 0 0 0.223529 0 0 0 0 0.207843 0 0 0 1.000000 0"/>
    </filter>
  </defs>
  <g fill="none" fill-rule="evenodd">
    <g filter="url(#a)">
      <g fill="#3E3935">
        <path d="M10.464 16.997v3.355H8.897c-.08-.642-.343-1.134-.788-1.476a2.482 2.482 0 0 0-1.554-.513c-.787 0-1.426.276-1.918.829-.492.553-.738 1.278-.738 2.177 0 .837.234 1.574.701 2.213.467.638 1.143.958 2.029.958 1.229 0 2.12-.58 2.674-1.741l1.447.677c-.8 1.766-2.198 2.649-4.195 2.649-1.414 0-2.526-.48-3.338-1.439A4.985 4.985 0 0 1 2 21.37c0-1.338.443-2.443 1.328-3.314.885-.87 1.905-1.305 3.06-1.305.99 0 1.826.29 2.509.87v-.623h1.567Z"/>
        <path d="M17.496 22.638c-.732-.593-1.473-.89-2.222-.89-.47 0-.862.142-1.178.426-.315.285-.472.653-.472 1.104 0 .42.138.773.415 1.057.276.285.652.427 1.128.427.82 0 1.597-.359 2.329-1.076v-1.048Zm2.629 1.883v1.567h-2.46v-1.205c-.82.828-1.737 1.242-2.748 1.242a2.93 2.93 0 0 1-2.047-.798c-.58-.53-.87-1.211-.87-2.04 0-.834.308-1.527.923-2.077.616-.55 1.358-.826 2.226-.826.809 0 1.591.255 2.347.76v-.889c0-.457-.042-.81-.125-1.057-.084-.247-.278-.47-.585-.667-.307-.198-.706-.297-1.2-.297-.85 0-1.466.352-1.846 1.057l-1.624-.445c.72-1.397 1.963-2.096 3.73-2.096.647 0 1.208.091 1.68.274.474.182.826.417 1.058.705.232.287.388.597.468.931.08.334.12.866.12 1.595v4.266h.953Z"/>
        <path d="M36.87 22.638c-.731-.593-1.471-.89-2.221-.89-.47 0-.863.142-1.178.426-.315.285-.472.653-.472 1.104 0 .42.138.773.415 1.057.276.285.652.427 1.128.427.82 0 1.597-.359 2.329-1.076v-1.048Zm2.63 1.883v1.567h-2.46v-1.205c-.82.828-1.737 1.242-2.748 1.242a2.93 2.93 0 0 1-2.047-.798c-.58-.53-.87-1.211-.87-2.04 0-.834.308-1.527.923-2.077.616-.55 1.358-.826 2.226-.826.809 0 1.591.255 2.347.76v-.889c0-.457-.042-.81-.125-1.057-.084-.247-.278-.47-.585-.667-.307-.198-.706-.297-1.2-.297-.85 0-1.466.352-1.846 1.057l-1.624-.445c.72-1.397 1.963-2.096 3.73-2.096.647 0 1.208.091 1.68.274.474.182.826.417 1.058.705.232.287.388.597.468.931.08.334.12.866.12 1.595v4.266h.953Z"/>
        <path d="M68.745 22.638c-.732-.593-1.472-.89-2.221-.89-.47 0-.863.142-1.178.426-.315.285-.472.653-.472 1.104 0 .42.138.773.415 1.057.276.285.652.427 1.128.427.82 0 1.596-.359 2.328-1.076v-1.048Zm2.63 1.883v1.567h-2.46v-1.205c-.82.828-1.737 1.242-2.748 1.242a2.93 2.93 0 0 1-2.047-.798c-.58-.53-.87-1.211-.87-2.04 0-.834.308-1.527.923-2.077.616-.55 1.357-.826 2.226-.826.809 0 1.59.255 2.346.76v-.889c0-.457-.042-.81-.125-1.057-.083-.247-.278-.47-.584-.667-.307-.198-.706-.297-1.2-.297-.85 0-1.466.352-1.847 1.057l-1.623-.445c.72-1.397 1.963-2.096 3.729-2.096.648 0 1.209.091 1.681.274.474.182.826.417 1.058.705.232.287.388.597.468.931.08.334.12.866.12 1.595v4.266h.953Z"/>
        <path d="M22.625 26.094v-3.235h1.604v.3c.056.426.287.777.693 1.051.406.276.885.413 1.439.413.579 0 1.041-.1 1.387-.3.345-.2.519-.478.519-.835 0-.344-.143-.597-.43-.76-.286-.163-.854-.313-1.703-.45-1.258-.21-2.156-.553-2.693-1.025-.538-.473-.807-1.085-.807-1.836 0-.758.293-1.391.878-1.902.584-.51 1.355-.765 2.311-.765.862 0 1.604.176 2.226.529v-.389h1.595v3.013h-1.595v-.554c-.484-.744-1.188-1.117-2.113-1.117-.472 0-.86.103-1.165.305-.305.204-.457.475-.457.812 0 .344.14.58.42.71.28.127.882.263 1.806.406.887.137 1.557.298 2.01.482.453.185.829.492 1.127.92.299.43.448.928.448 1.498 0 .845-.326 1.516-.976 2.013-.651.498-1.496.747-2.534.747-.974 0-1.77-.22-2.386-.66v.629h-1.604Z"/>
        <path d="M42.367 24.559v-6.054h-.992v-1.612h2.805v1.163c1.092-.87 2.162-1.306 3.21-1.306 1.054 0 1.781.48 2.181 1.44 1.203-.96 2.323-1.44 3.36-1.44.598 0 1.09.132 1.474.396.385.263.644.598.778 1 .134.405.2 1 .2 1.79v4.623h.992v1.566H53.57V20.26c0-.535-.024-.911-.072-1.13a.897.897 0 0 0-.362-.544 1.15 1.15 0 0 0-.702-.215c-.776 0-1.657.397-2.643 1.192v4.996h.992v1.566h-2.805v-6.037c0-.604-.088-1.041-.262-1.312-.174-.27-.471-.405-.89-.405-.685 0-1.567.397-2.646 1.192v4.996h.992v1.566h-3.797v-1.566h.992Z"/>
        <path d="M58.458 14.137c0-.306.12-.571.361-.798.24-.226.546-.339.916-.339.348 0 .647.11.899.33.252.219.378.488.378.807 0 .32-.126.59-.378.813-.252.222-.55.334-.899.334-.355 0-.657-.113-.905-.34a1.055 1.055 0 0 1-.372-.807Zm.3 10.377v-6.358h-1.133v-1.66h3.242v8.018H62v1.611h-4.375v-1.611h1.133Z"/>
      </g>
    </g>
    <path d="M0 0h73v40H0z"/>
  </g>
</svg>