<svg xmlns="http://www.w3.org/2000/svg" viewBox="0 0 55 40">
  <g fill="none" fill-rule="evenodd">
    <path fill="#222" d="M49.547 24.737c1.4 0 2.551.938 2.551 2.176 0 1.195-1.15 2.113-2.55 2.113-1.377 0-2.552-.918-2.552-2.113 0-1.238 1.175-2.176 2.551-2.176Zm-21.225-2.199v3.776h-1.9v-2.218H23.77v-1.558h4.552Zm22.15-2.43v2.111H54v1.558h-9.056v-1.558h3.653v-2.112h1.875ZM6.127 18.634v2.048l2.302 1.793-1.176 1.087-2.026-1.579-2.026 1.58L2 22.453l2.301-1.771v-2.048h1.826Zm5.479-2.518v3.072h1.426v-3.072h1.901v7.34h-1.9v-2.71h-1.427v2.71h-1.9v-7.34h1.9Zm28.26 0v3.073h1.426v-3.073h1.902v7.34h-1.902v-2.71h-1.426v2.71h-1.9v-7.34h1.9Zm-7.504 1.43v1.643h1.901v-1.644h1.8v5.91H30.56v-5.91h1.802Zm1.901 3.157h-1.901v1.238h1.901v-1.238ZM28.323 13v8.514H26.42V20.34H23.37v-1.558h3.052V17.63H23.37v-1.557h3.052V13h1.901Zm-9.681 1.43v1.643h1.9V14.43h1.802v5.91H16.84v-5.91h1.8Zm31.78.877v1.834l2.303 1.792-1.177 1.089-2.026-1.58-2.026 1.58-1.2-1.11 2.3-1.771v-1.834h1.827Zm-29.88 2.28h-1.9v1.238h1.9v-1.237Z"/>
    <path d="M0 0h55v40H0z"/>
  </g>
</svg>