<svg xmlns="http://www.w3.org/2000/svg" viewBox="0 0 31 50">
  <g fill="none" fill-rule="evenodd">
    <path d="M0 0h31v50H0z"/>
    <path fill="#FFF" fill-rule="nonzero" d="M16.272 33.264V19.008H14.4v2.816h-2.112l.064 1.584H14.4V26.4h-2.048l-.064 1.6H14.4v5.264h1.872zM8.224 30.16c2.336 0 3.68-2.096 3.68-5.072 0-3.008-1.344-5.104-3.68-5.104-2.32 0-3.664 2.096-3.664 5.104 0 2.992 1.344 5.072 3.664 5.072zm0-1.504c-1.072 0-1.84-1.328-1.84-3.568 0-2.256.768-3.6 1.84-3.6 1.104 0 1.888 1.344 1.888 3.6 0 2.24-.784 3.568-1.888 3.568zm21.924-.432v-9.216h-1.776v4.032h-1.168v-3.776h-1.728v8.496h1.728v-3.2h1.168v3.664h1.776zm-6.704-7.216v-1.44h-3.776v1.44h3.776zm1.424 2.064v-1.44h-6.816v1.44h6.816zm-3.296 5.024c1.856 0 3.04-.944 3.04-2.288 0-1.36-1.184-2.288-3.04-2.288s-3.024.928-3.024 2.288c0 1.344 1.168 2.288 3.024 2.288zm0-1.424c-.848 0-1.328-.384-1.328-.864s.48-.864 1.328-.864c.848 0 1.328.384 1.328.864s-.48.864-1.328.864zm3.648 6.624c3.088 0 4.992-.928 4.992-2.512 0-1.568-1.904-2.496-4.992-2.496-3.104 0-5.024.928-5.024 2.496 0 1.584 1.92 2.512 5.024 2.512zm-.016-1.44c-1.904 0-3.056-.384-3.056-1.056s1.152-1.088 3.056-1.088c1.904 0 3.104.416 3.104 1.088 0 .672-1.2 1.056-3.104 1.056z"/>
  </g>
</svg>