<svg xmlns="http://www.w3.org/2000/svg" viewBox="0 0 53 40">
  <g fill="none" fill-rule="evenodd">
    <g fill="#222">
      <path d="M2 15.837h5.974v-1.54H2v1.54Zm2.099 9.894h1.779v-9.425H4.099v9.425Z"/>
      <path d="M25.028 25.731h1.838V14.297h-1.838z"/>
      <path d="M28.474 14.336a5.953 5.953 0 0 0-.695-.04h-.422v1.489h.178c.686 0 1.058.307 1.058 1.06v6.338c0 .687-.296 1.057-1.058 1.059h-.178v1.489h.422c.213 0 .51-.014.695-.04 1.29-.18 1.903-.988 1.903-2.457v-6.44c0-1.469-.614-2.28-1.903-2.458"/>
      <path d="M34.82 15.826h2.462v-1.529H34.82z"/>
      <path d="M34.82 20.677h2.238v-1.54H34.82z"/>
      <path d="M34.82 25.731h2.499v-1.54H34.82z"/>
      <path d="M32.499 25.731h1.831V14.297h-1.831z"/>
      <path d="M48.568 23.656v-2.313h-1.787v2.38c0 1.53.818 2.108 2.225 2.108h.152v-1.525c-.365-.032-.59-.243-.59-.65"/>
      <path d="M50.18 16.374v2.009h1.793v-2.077c0-1.402-.777-2.106-2.185-2.106h-.15v1.447c.382.072.542.129.542.727"/>
      <path d="m50.91 19.866-1.276-.93v2.173l.067.05c.329.228.49.454.49.93v1.567c0 .412-.182.618-.557.65v1.525h.163c1.485 0 2.203-.704 2.203-2.123V21.84c0-.88-.25-1.424-1.09-1.975"/>
      <path d="M46.782 16.322v1.57c0 .991.317 1.42 1.1 1.977l1.276.93v-2.173l-.068-.05c-.328-.228-.488-.456-.488-.93v-1.272c0-.558.16-.709.556-.727V14.2h-.164c-1.423 0-2.212.598-2.212 2.122"/>
      <path d="M14.08 20.341c.674-.239 1.091-.751 1.091-1.764v-.739l-.001.002v-.087h.001v-1.33c0-1.423-.702-2.126-2.215-2.126h-.714v1.556h.436c.44 0 .653.208.653.651v2.417c0 .47-.229.703-.72.703h-.369v1.516h.369c.508 0 .736.23.736.737v.107h-.001v1.013h.001v2.733h1.84v-3.886c0-.96-.387-1.305-1.107-1.503Zm-4.11 5.39h1.784V14.296H9.969V25.73Z"/>
      <path d="m19.327 22.417.488-3.925-.552-4.212h-.329l-1.556 10.36h-.002l-.157 1.09h1.649l.029-.24h-.002l.039-.325.158-1.229h1.474l-.217-1.519z"/>
      <path d="M21.298 14.28h-1.565l1.565 11.451h1.763z"/>
      <path d="M43.612 20.341c.675-.239 1.092-.751 1.092-1.764v-.739.002l-.002-.087h.002v-1.33c0-1.423-.703-2.126-2.216-2.126h-.713v1.556h.435c.441 0 .653.208.653.651v2.417c0 .47-.229.703-.72.703h-.368v1.516h.368c.508 0 .738.23.738.737v.107h-.004v1.013h.004v2.733h1.838v-3.886c0-.96-.387-1.305-1.107-1.503Zm-4.11 5.39h1.785V14.296h-1.785V25.73Z"/>
    </g>
    <path d="M0 0h53v40H0z"/>
  </g>
</svg>