<svg xmlns="http://www.w3.org/2000/svg" viewBox="0 0 107 40">
  <g fill="none" fill-rule="evenodd">
    <g fill="#FFF">
      <path d="M8.529 25.17a3.567 3.567 0 0 0 .697-.54c.5-.505.774-1.13.774-1.807 0-.205-.03-.405-.085-.599a2.628 2.628 0 0 0-.69-1.125 3.82 3.82 0 0 0-.79-.599l-.035-.02-1.844-1.065-.384-.222c-.756-.455-1.441-.943-1.754-1.53a1.444 1.444 0 0 1-.18-.686c0-.503.295-.929.79-1.208.395-.22.916-.35 1.518-.35h.003c.374 0 .76.133 1.106.35.665.418 1.183 1.151 1.183 1.895h.388v-2.245h-.002a4.479 4.479 0 0 0-.721-.35 5.47 5.47 0 0 0-1.955-.352c-.718 0-1.394.127-1.984.351-.26.1-.501.217-.723.35a3.848 3.848 0 0 0-.492.351c-.6.51-.962 1.167-.962 1.895 0 .96.746 1.676 1.758 2.317.533.338 1.138.655 1.748.976.21.112.421.223.63.336.51.298.907.608 1.18.931.293.346.446.707.446 1.082 0 .646-.304 1.184-.902 1.514-.403.222-.938.35-1.61.35a3.169 3.169 0 0 1-1.48-.35c-1.212-.628-1.77-1.94-1.77-2.596H2v2.283c.104.11.218.214.341.313l.046.037c.144.112.299.218.465.314.232.134.485.251.753.35.607.224 1.298.35 2.032.35.813 0 1.535-.126 2.147-.35.27-.099.52-.216.745-.35"/>
      <path d="M12.769 24.11c-.51 0-.923.395-.923.881 0 .487.413.88.923.88s.923-.393.923-.88c0-.486-.413-.88-.923-.88"/>
      <path d="M21.692 24.93c-.527 0-1.002-.136-1.338-.354-.314-.204-.508-.478-.508-.78v-7.59c0-.302.194-.576.508-.78.336-.218.81-.354 1.338-.354v-.355h-5.538v.355c.527 0 1.001.136 1.339.354.313.204.506.478.506.78v7.59c0 .302-.193.576-.506.78-.338.218-.812.354-1.34.354v.355h5.54v-.355Z"/>
      <path d="M25.385 24.991c0-.486-.414-.88-.924-.88-.509 0-.923.394-.923.88 0 .487.414.88.923.88.51 0 .924-.393.924-.88"/>
      <path d="M37.077 15.079v-.362h-4.098v.362h.001c.397 0 .753.14 1.005.362.236.208.382.488.382.797a.98.98 0 0 1-.056.322l-2.833 6.595-2.807-6.525-.05-.145a.99.99 0 0 1-.032-.247c0-.31.146-.589.382-.797a1.52 1.52 0 0 1 1.005-.362h.002v-.362h-5.209v.362h.002c.5 0 .951.14 1.271.362.196.136.34.304.418.49h.002l4.277 9.94h.368l4.277-9.94h.002c.078-.186.223-.354.419-.49.319-.222.77-.362 1.27-.362h.002Z"/>
      <path d="M44.462 24.93c-.528 0-1.003-.136-1.34-.354-.313-.204-.507-.478-.507-.78v-7.59c0-.302.194-.576.508-.78.336-.218.811-.354 1.339-.354v-.355h-5.539v.355c.528 0 1.002.136 1.339.354.313.204.507.478.507.78v7.59c0 .302-.194.576-.507.78-.337.218-.811.354-1.339.354v.355h5.539v-.355Z"/>
      <path d="M68.462 23.168h-.395s-.342.51-1.031.87c-.463.239-.883.39-1.631.495-.273.038-.71.042-1.029.042h-2.215v-8.9c0-.328.307-.604.47-.604v-.354h-4.016v.354c.507 0 .963.137 1.286.355.301.204.487.478.487.78v7.59c0 .302-.186.576-.487.78-.323.217-.779.354-1.286.354v.355h9.06l.787-2.117Z"/>
      <path d="M56.77 23.168h-.395s-.342.51-1.032.87c-.462.239-.882.39-1.63.495-.273.038-.71.042-1.029.042h-2.216v-8.9c0-.328.308-.604.47-.604v-.354h-4.015v.354c.506 0 .962.137 1.285.355.302.204.488.478.488.78v7.59c0 .302-.186.576-.488.78-.323.217-.779.354-1.285.354v.355h9.06l.786-2.117Z"/>
      <path d="m74 20.588 1.846-4.11 1.846 4.11H74Zm7.319 3.995a1.164 1.164 0 0 1-.408-.432L76.376 14.13h-.237c-.441.55-1.219.679-1.364.698l-.027.002.002.001.432.957-3.773 8.338c-.082.173-.227.33-.42.457-.326.215-.785.35-1.295.35h-.002v.352h4.175v-.351h-.001a1.6 1.6 0 0 1-1.024-.35c-.241-.202-.39-.473-.39-.772 0-.114.022-.222.061-.325h-.003l.996-2.199h4.166l.994 2.2h-.002c.04.102.06.21.06.324 0 .3-.148.57-.388.771a1.6 1.6 0 0 1-1.025.35h-.001v.352h5.305v-.351c-.511 0-.97-.136-1.296-.35Z"/>
      <path d="M90.22 20.774c.512 0 .973.135 1.3.35.304.2.492.472.492.77V24.498a3.63 3.63 0 0 1-.562.325c-.37.17-.78.283-1.23.327a4.557 4.557 0 0 1-.44.023h-.005a4.648 4.648 0 0 1-2.456-.701 4.794 4.794 0 0 1-.878-.701 4.896 4.896 0 0 1-1.415-3.347 4.94 4.94 0 0 1 .585-2.47 4.808 4.808 0 0 1 2.395-2.171 4.641 4.641 0 0 1 2.214-.328c.449.044.86.157 1.23.328.198.092.386.2.562.324.627.443 1.102 1.083 1.41 1.848h.381v-2.327a9.838 9.838 0 0 0-.374-.168l-.066-.028a9.21 9.21 0 0 0-1.351-.44 9.456 9.456 0 0 0-1.766-.26l-.026-.002a8.932 8.932 0 0 0-.916.002 7.873 7.873 0 0 0-1.976.35c-.31.098-.607.216-.888.35a6.386 6.386 0 0 0-.637.35c-.28.177-.541.371-.78.583a5.356 5.356 0 0 0-1.235 1.59 5.152 5.152 0 0 0-.557 2.341v.128h.003a5.512 5.512 0 0 0 .063.701 5.167 5.167 0 0 0 1.27 2.646 5.476 5.476 0 0 0 .754.7c.16.125.329.242.505.352a6.584 6.584 0 0 0 1.543.7c.728.226 1.535.35 2.403.35a9.44 9.44 0 0 0 4.312-1.05c.094-.05.187-.102.279-.155v-.196h-.56v-2.297c.001-.419.149-.793.382-1.05.054-.06.115-.115.178-.161a.952.952 0 0 1 .56-.189v-.35H90.22v.35Z"/>
      <path d="M105.606 23.168s-.342.51-1.032.87c-.462.24-.883.39-1.63.495-.273.038-.71.042-1.029.042H99.7v-4.47h1.69c.918 0 1.672.513 1.764 1.084v-.008h.37v-2.858h-.37v-.01c-.092.571-.846 1.083-1.763 1.083H99.7v-3.97h3.101c.128 0 .252.01.371.025.8.11 1.402.631 1.402 1.176v.074h.37v-1.984h-8.79v.354c.38 0 .731.078 1.019.208.096.043.185.093.266.147.15.102.273.222.357.353.084.132.13.276.13.427v7.59c0 .302-.186.576-.487.78-.182.122-.406.219-.656.28a2.583 2.583 0 0 1-.63.074v.355h9.06l.787-2.117h-.394Z"/>
    </g>
    <path d="M0 0h107v40H0z"/>
  </g>
</svg>