<svg xmlns="http://www.w3.org/2000/svg" viewBox="0 0 51 40">
  <g fill="none" fill-rule="evenodd">
    <path fill="#FFF" fill-rule="nonzero" d="M12.416 22.817V13.7h-1.652v9.117h1.652Zm-9.414-1.566c1.157-.41 2.526-1.708 2.907-2.992.55 1.157 1.863 2.328 2.823 2.695l.932-1.312c-1.454-.48-2.908-2.047-2.908-3.98V14.42H5.034v1.326c0 1.892-1.2 3.529-3.034 4.192l1.002 1.313Zm9.682 4.685v-1.298h-7.07v-2.64H3.947v3.938h8.736Zm12.236.34V13.7h-1.566v12.575h1.566Zm-2.512-.58V13.94H20.87v4.093h-1.694v1.34h1.694v6.323h1.538Zm-7.522-2.173c1.171-.706 2.117-2.004 2.47-3.317.324 1.242 1.453 2.498 2.286 3.006l.931-1.17c-1.524-.918-2.441-2.824-2.441-5.265v-1.863H16.55v1.877c0 2.681-1.044 4.573-2.64 5.603l.975 1.129Zm22.242 2.752V13.7h-1.566v12.575h1.566Zm-2.512-.579V13.94h-1.538v3.063h-1.284v1.34h1.284v1.779h-1.595v1.34h1.595v4.234h1.538Zm-7.423-1.877c3.062-2.018 4.488-4.883 4.474-8.637H26.91v1.327h3.162c-.198 2.498-1.525 4.7-3.952 6.167l1.073 1.143ZM50 20.263v-1.327h-4.883v-1.002h3.373v-4.008h-8.341v4.008h3.316v1.002H38.64v1.327H50Zm-3.19-3.627H41.8V15.21h5.01v1.426Zm2.131 9.583v-1.355H41.73v-.692h6.76v-3.175h-8.481v1.298h6.845v.706h-6.76v3.218h8.848Z"/>
    <path d="M0 0h51v40H0z"/>
  </g>
</svg>