<svg xmlns="http://www.w3.org/2000/svg" viewBox="0 0 36 40">
  <g fill="none" fill-rule="evenodd">
    <path fill="#FFF" d="M10.04 20.426c2.08 3.112-.127 6.404-3.775 6.404-3.423 0-4.968-2.44-3.963-4.138.361-.611 1.22-1.097 1.87-1.203.108-.017.174 0 .201.055.022.043 0 .088-.08.145-.258.188-.604.614-.78.98-.703 1.468.017 3.543 2.599 3.543 2.4 0 4.17-2.274 2.5-4.957-1.212-1.944-3.02-4.16-.784-6.283 1.692-1.606 4.953-1.086 4.79.563-.065.655-.869 1.57-.936 1.632-.104.096-.245-.036-.169-.155.545-.858.193-1.626-.197-1.953-.692-.58-1.923-.64-2.707.01-1.818 1.5.4 3.815 1.43 5.357m14.313-.923c0-.019.014-.035.033-.035.625 0 .991-.393.991-.992 0-.018.015-.033.034-.033.018 0 .032.015.032.033 0 .603.366.992.991.992.018 0 .033.016.033.034a.033.033 0 0 1-.033.033c-.625 0-.991.37-.991.993a.032.032 0 0 1-.032.033.033.033 0 0 1-.034-.033c0-.615-.366-.993-.991-.993a.032.032 0 0 1-.033-.032M31.312 25c-.17 0-.342-.4-.342-1.17 0-1.453.494-2.656.92-2.656.164 0 .305.291.37.76v.3c0 .247 0 .58.015.806-.08.947-.414 1.96-.963 1.96m-8.835 3.892c-.177 1.554-.494 2.46-.868 2.433-.189-.015-.305-.174-.32-1.073-.037-2.124.266-4.843.266-4.843.943.603 1.077 2.104.922 3.483m-6.58-5.879a17.42 17.42 0 0 0-.046.538c-.131.696-.438 1.437-.908 1.437-.172 0-.347-.409-.347-1.19 0-1.475.502-2.618.935-2.618.183 0 .389.433.42 1.161-.009.214-.03.437-.053.672m7.35-6.166c.106-.236.285-.27.302.14.075 1.793-.79 4.467-1.73 5.768.487-3.627 1.16-5.304 1.428-5.908m3.826 4.374c.08 0 .091.142.093.176.008.504-.371 1.3-.97 1.731.077-1.094.538-1.907.877-1.907m2.954-4.349c.113-.212.263-.246.263.17 0 1.156-.528 3.457-1.333 5.45.174-3.512.765-5.045 1.07-5.62m4.193.004c.135-.253.24-.232.24.168 0 .783-.355 2.305-1.121 3.543.207-1.624.556-3.096.881-3.71m.41 5.882c-.048.612-.398 2.227-1.007 2.227-.22 0-.456-.573-.456-1.966 0-.486.034-1.076.085-1.607 1.19-1.403 1.654-3.388 1.654-4.398 0-.66-.224-.895-.494-.895-.228 0-.477.144-.716.414-.794.85-1.224 2.793-1.374 4.363a.69.69 0 0 0-.463-.178c-.517.007-1.004.378-1.372 1.044-.32.579-.51 1.4-.51 2.067 0 .2.017.383.048.552-.157.363-.356.637-.583.637-.246 0-.452-.624-.488-1.648.472-.812 1.792-3.554 1.776-6.373-.005-.82-.38-.883-.511-.883-1.24 0-2.12 3.253-2.157 6.174.002.587.04 1.109.113 1.555-.222.649-.606 1.168-1.154 1.168-.769 0-.81-.895-.83-1.386.855-.465 1.482-1.334 1.482-2.176 0-.457-.199-.727-.597-.727-1.033 0-1.945 1.503-1.863 3.058.007.117.02.228.04.335a.442.442 0 0 1-.01.026c-.115.327-.234.76-.593.76-.095 0-.539-.15-.29-1.645.11-.657.23-1.284.512-2.202.022-.075.054-.29-.3-.33-.278-.033-.594.057-.72.45a13.372 13.372 0 0 0-.411 1.708c-.016.097-.03.196-.043.295-.184 1.398-1.46 1.684-1.747 1.34l.116-.976c1.004-1.209 2.25-3.763 2.229-6.524-.006-.782-.372-.892-.503-.893-1.499-.02-2.358 3.834-2.753 7.5a2.456 2.456 0 0 1-.282.626c-.373.558-.616.618-.703.618-.082 0-.234 0-.234-.433 0-.45.137-.872.296-1.464.134-.494.248-1.13.248-1.383 0-.576-.254-.865-.755-.86-.106 0-.266.023-.449.048-.196.028-.42.085-.573.088-.122-.436-.292-.626-.52-.624-.242.003-.431.22-.431.5 0 .362.348.583.644.613.032.205.045.485.045.784 0 .836-.17 1.824-.454 2.328l-.004.013c-.137.256-.327.496-.565.496-.213 0-.29-.357-.29-.662 0-.447.07-1.035.13-1.554.046-.398.08-.742.086-.947.008-.344-.236-.56-.584-.533-.04.002-.076.011-.115.016-.153-.37-.415-.58-.729-.58-.526 0-1.023.376-1.397 1.057a4.417 4.417 0 0 0-.518 2.027c0 .183.015.353.04.51-.141.31-.378.666-.667.666-.094 0-.401-.035-.401-1.55 0-.91.173-2.01.315-2.778.93-.073 1.79-.538 2.291-.984.115-.108.142-.219.115-.289-.04-.112-.204-.141-.38-.033-.776.475-1.652.64-1.884.617.155-.882.393-1.712.471-1.926.025-.065.014-.138-.04-.18l-.017-.014c-.057-.043-.268-.167-.46-.17-.216 0-.392.145-.47.39-.066.199-.233.817-.436 1.837a1.925 1.925 0 0 1-.978-.365c-.2-.156-.296-.288-.412-.11-.122.182-.115.562.18.807.25.209.686.374 1.077.405-.206 1.43-.25 2.054-.25 2.701 0 .675.034 2.219 1.136 2.219.44 0 .762-.277.996-.66.218.423.586.66 1.074.66.401 0 .753-.27 1.03-.784.14.438.46.784.946.784.517 0 .865-.383 1.1-.87.002-.005.008-.009.01-.015.18-.358.29-.793.358-1.211.086-.477.102-.92.102-1.293 0-.266-.017-.542-.05-.809.1-.006.203-.016.31-.026.162-.016.328-.032.489-.033.008 0 .008.03.008.06 0 .292-.108.785-.252 1.309-.17.623-.329 1.557-.329 1.886 0 .836.42 1.011.803 1.011.408 0 .854-.283 1.216-.752-.155 1.878-.188 3.582-.125 4.522.061.896.152 2.43.918 2.536.978.134 1.61-1.756 1.597-3.897-.008-1.331-.448-2.44-1.232-2.887.424.141 1.113-.13 1.577-.723.07.67.342 1.192 1.013 1.192.505 0 .847-.358 1.081-.82.275.52.769.82 1.438.82.655 0 1.13-.414 1.441-1.007.205.643.522 1.007.951 1.007.373 0 .658-.248.913-.648.214.418.576.651 1.056.651.5 0 .933-.443 1.212-1.214.203.797.55 1.214 1.014 1.214.509 0 .907-.366 1.186-1.086.227-.588.301-1.339.331-1.688.022-.28-.344-.335-.368-.022"/>
    <path d="M0 0h36v40H0z"/>
  </g>
</svg>