<svg xmlns="http://www.w3.org/2000/svg" viewBox="0 0 80 40">
  <g fill="none" fill-rule="evenodd">
    <path fill="#383F45" d="M29.843 25.242c.853 0 1.896-.513 1.896-1.818v-1.026s-1.679.458-2.15.594c-.838.243-1.24.65-1.24 1.182 0 .532.46 1.068 1.494 1.068Zm.332-7.37c2.774 0 3.779 1.252 3.779 2.918v2.707c0 1.904-1.282 3.338-3.936 3.338-2.54 0-3.925-1.135-3.925-2.666 0-1.22.871-2.024 2.764-2.52.275-.073 1.197-.335 1.615-.451.955-.266 1.262-.474 1.262-.866 0-.415-.531-.868-1.612-.868-1.291 0-1.697.76-1.703 1.307h-2.015c0-1.694 1.061-2.899 3.77-2.899Zm-4.687 2.423c0-.86-.51-2.418-3.45-2.418-1.507 0-2.112.379-2.328.518-.223-.12-.924-.518-2.327-.518-2.716 0-3.45 1.288-3.45 2.356v6.396h2.218v-6.257c0-.362.214-.91 1.231-.91.791 0 1.22.38 1.22.91v6.257h2.217v-6.257c0-.527.42-.91 1.218-.91.87 0 1.233.424 1.233.91v4.823c0 .945.577 1.478 1.495 1.478h.723v-6.378Zm12.624-.831c.467 0 .95.133 1.007.149V18.07c-.078-.014-.98-.2-1.837-.2-1.453 0-2.478.572-2.478 2.07v6.689h2.2v-6.275c0-.555.369-.89 1.108-.89Zm5.718 7.152c-.13.038-.824.22-1.562.22-1.646 0-2.523-.672-2.523-2.101v-8.593h.923c.963 0 1.276.534 1.276 1.277v.651h1.886v.505c0 .72-.523 1.126-1.3 1.126h-.586v4.665c0 .51.181.874.942.874.451 0 .871-.122.944-.143-.002.175 0 1.519 0 1.519Z"/>
    <path fill="#FFF" d="M71.328 9c.34.01 1.672.304 1.673 4.295.002 7.161-1.966 9.698-2.056 9.875-.092.177-.254.963.25 1.487 0 0 .49.633.972.224 0 0 .647-.42.668.584v.173c-.003.2-.07 1.463-1.46 1.54l-.18.004h-.012c-.17-.01-2.19-.202-2.85-4.545-.386-2.536-.324-6.596.154-9.014.614-3.106 1.24-4.576 2.762-4.62L71.285 9h.043Zm5.67 0c.339.01 1.67.304 1.67 4.295.004 7.161-1.965 9.698-2.056 9.875-.09.177-.253.963.251 1.487 0 0 .492.633.972.224 0 0 .647-.42.668.584v.146l-.001.059c-.01.276-.129 1.434-1.459 1.509l-.18.003h-.011c-.171-.01-2.191-.202-2.852-4.545-.385-2.536-.322-6.596.155-9.014.614-3.106 1.24-4.576 2.764-4.62L76.955 9h.042Zm-13.445 5.88.166.005c1 .084 2.891 1.262 2.918 5.189 0 0-.11 1.179-.277 2.02-.168.842 0 2.076.416 2.357 0 0 .111.197.64.112 0 0 .458 1.894-1.307 2.076-.292.03-.602-.043-1.056-.645 0 0-.361-.59-.444-.618-.08-.026-.976 1.622-2.568 1.66l-.211-.005H61.8c-.312-.01-3.06-.236-2.667-5.133 0 0 .25-4.026 2.64-6.151 0 0 .747-.748 1.615-.855l.164-.012Zm-14.756.89s.528.308.361 1.57l-.527 3.731s0 .28.306-.336c.304-.617 1.902-2.908 2.584-3.114l.015-.008c.113-.055.809-.34 1.318.779 0 0 .136.376.195.965s.111 1.574.056 2.556v.017c0 .006 0 .014.002.022l.007.023c.027.062.141.038.602-.931.64-1.347 1.81-3.661 2.89-3.48 1.08.183 1.029 1.067 1.056 1.712.013.31-.019 1.421-.025 2.54v.513c.004 1.017.04 1.937.163 2.137l.011.032c.05.133.277.626.879.53 0 0 .538 1.767-1.286 1.84-.194.008-1.344-.052-1.382-1.7 0 0 .143-4.16-.222-4.405a.08.08 0 0 0-.016-.018l-.016-.01c-.104-.05-.48.052-1.44 2.693-1.176 3.232-1.362 3.22-2.363 3.142-.77-.06-.778-1.178-.75-1.683.008-.159.012-.642.013-1.238v-1.022a133.98 133.98 0 0 0-.019-2.27c-.005-.1-.14-.78-1.443 2.177-.331.754-.525 1.652-.746 2.886 0 0-.297 1.427-1.557 1.234 0 0-.721-.084-.777-1.066 0 0 .333-3.787.333-5.05v-.364a175.244 175.244 0 0 0-.027-2.31v-.037s-.113-1.244.5-1.75c0 0 .499-.7 1.305-.308ZM6.9 14.944c3.195 0 4.59 1.756 4.59 3.51 0 2.562-2.594 3.19-3.74 3.525-.33.097-1.547.462-1.82.542-1.07.313-1.378.664-1.378 1.06 0 .679.587 1.266 1.96 1.266 1.196 0 2.069-.41 2.215-1.67h2.5c-.258 1.994-1.445 3.566-4.714 3.566-3.14 0-4.512-1.944-4.512-4.4V19.69c0-3.415 2.255-4.746 4.9-4.746Zm55.987 2.072h-.018c-.175.006-1.527.193-2.01 4.372 0 0-.362 3.062 1.014 3.426 0 0 1.02.417 1.816-1.086l.087-.175.024-.045c.061-.113.226-.427.337-.741 0 0 .128-.482.186-.773 0 0-.058-.662.15-.941 0 0 .071-.156.082-.334 0 0 .119-1.353-.397-2.434-.088-.183-.447-1.189-1.27-1.27Zm8.226-5.574-.015.008-.012.022-.032.065c-.178.363-.838 1.841-1.06 4.19-.26 2.763-.104 5.627.166 5.338.31-.33.854-1.578 1.21-3.724.334-2.027-.047-5.658-.24-5.887l-.017-.012Zm5.669 0-.015.008-.012.022-.033.065c-.178.363-.839 1.841-1.06 4.19-.26 2.763-.105 5.627.166 5.338.31-.33.855-1.578 1.21-3.724.334-2.027-.047-5.658-.24-5.887l-.016-.012ZM6.794 16.845c-1.388 0-2.298.938-2.298 2.536v1.678s1.88-.554 2.663-.795c.658-.201 1.834-.622 1.834-1.668 0-.912-.732-1.751-2.199-1.751Z"/>
    <path d="M0 0h80v40H0z"/>
  </g>
</svg>