<svg xmlns="http://www.w3.org/2000/svg" viewBox="0 0 79 40">
  <g fill="none" fill-rule="evenodd">
    <path fill="#FFF" fill-rule="nonzero" d="M12.352 22.762V13.7h-1.641v9.062h1.641Zm-9.356-1.557c1.15-.407 2.51-1.698 2.89-2.974.547 1.15 1.851 2.314 2.805 2.679l.926-1.304c-1.445-.477-2.89-2.034-2.89-3.956v-1.235H5.016v1.319c0 1.88-1.192 3.507-3.016 4.166l.996 1.305Zm9.623 4.657v-1.29H5.59v-2.624H3.936v3.914h8.683Zm12.161.336V13.7h-1.557v12.498h1.557Zm-2.497-.575V13.938h-1.528v4.068H19.07v1.333h1.684v6.284h1.528Zm-7.476-2.16c1.164-.701 2.104-1.992 2.455-3.296.322 1.234 1.445 2.482 2.272 2.987l.926-1.164c-1.515-.912-2.427-2.805-2.427-5.232v-1.852h-1.57v1.866c0 2.665-1.039 4.545-2.624 5.569l.968 1.122Zm22.107 2.735V13.7h-1.557v12.498h1.557Zm-2.497-.575V13.938h-1.529v3.044h-1.276v1.333h1.276v1.767h-1.585v1.333h1.585v4.208h1.53Zm-7.378-1.865c3.044-2.006 4.46-4.854 4.446-8.585h-4.727v1.318H29.9c-.196 2.483-1.515 4.672-3.927 6.13l1.066 1.137Zm15.823.757v-8.262h2.735v-1.36h-7.224v1.36h2.763v8.262h1.726Zm8.5 0 3.395-9.623h-1.613l-2.511 7.435h-.042l-2.525-7.435h-1.81l3.395 9.623h1.711Zm14.21-4.04.827-1.262c-1.907-.323-4.46-1.95-4.46-4.138v-.73h-1.712v.73c0 2.216-2.412 3.787-4.446 4.082.252.449.505.883.771 1.318 1.712-.35 3.872-1.655 4.517-3.338.715 1.669 2.791 2.96 4.503 3.338Zm1.15 4.166v-1.29h-2.82v-2.665h-1.64v2.665h-2.427v-2.665h-1.642v2.665H55.43v1.29h11.292Zm11.18-3.492V13.7H76.26v7.449h1.64Zm-2.96-5.163v-1.304h-6.943v1.304h6.943Zm.477 4.42-.126-1.235c-.561.07-1.094.126-1.655.182.112-.884.196-1.767.294-2.651-.533-.042-1.052-.098-1.585-.154l-.14 2.903c-.52.014-1.024.028-1.543.028-.042-.968-.113-1.95-.14-2.931l-1.628.168c.112.94.197 1.866.295 2.777h-1.613c.084.463.14.912.224 1.36 2.581.015 5.765-.125 7.617-.448Zm-1.81 5.694c2.778 0 4.391-.898 4.391-2.356 0-1.487-1.613-2.385-4.39-2.385-2.764 0-4.363.898-4.363 2.385 0 1.458 1.6 2.356 4.362 2.356Zm0-1.304c-1.683 0-2.693-.38-2.693-1.052 0-.702 1.01-1.08 2.693-1.08 1.712 0 2.708.378 2.708 1.08 0 .673-.996 1.052-2.708 1.052Z"/>
    <path d="M0 0h79v40H0z"/>
  </g>
</svg>