<svg xmlns="http://www.w3.org/2000/svg" viewBox="0 0 61 40">
  <defs>
    <linearGradient id="a" x1="50%" x2="50%" y1="0%" y2="100%">
      <stop offset="0%" stop-color="#E9450C"/>
      <stop offset="50%" stop-color="gold"/>
      <stop offset="100%" stop-color="#DF0082"/>
    </linearGradient>
  </defs>
  <g fill="none" fill-rule="evenodd">
    <path fill="url(#a)" d="M45.142 14c3.788 0 6.754 2.7 6.754 6.148 0 1.66-.7 3.213-1.972 4.373-1.27 1.16-2.969 1.798-4.782 1.798-3.738 0-6.779-2.758-6.779-6.148 0-3.403 3.041-6.171 6.78-6.171Zm-36.465.023c2.154 0 3.858.939 4.733 1.817l.08.079v1.535l-.508-.535-.094-.094c-1.133-1.138-2.667-1.79-4.211-1.79-3.033 0-5.501 2.325-5.501 5.183 0 2.425 2.073 5.043 5.423 5.043 1.597 0 3.207-.703 4.417-1.928l.161-.163.312-.312v1.477l-.057.056c-1.22 1.178-3.037 1.882-4.859 1.882-1.741 0-3.45-.648-4.688-1.776a5.678 5.678 0 0 1-1.884-4.33c.053-3.445 2.985-6.144 6.676-6.144Zm24.27 0c2.155 0 3.858.939 4.733 1.817l.08.079v1.535l-.508-.535-.094-.094c-1.132-1.138-2.667-1.79-4.211-1.79-3.033 0-5.5 2.325-5.5 5.183 0 2.425 2.073 5.043 5.422 5.043 1.597 0 3.207-.703 4.418-1.928l.16-.163.313-.312v1.477l-.058.056c-1.22 1.178-3.036 1.882-4.859 1.882-1.741 0-3.45-.648-4.688-1.776a5.678 5.678 0 0 1-1.884-4.33c.053-3.445 2.985-6.144 6.676-6.144Zm21.72.186c2.555 0 4.272 1.386 4.272 3.45 0 1.719-1.15 2.811-2.505 3.187L60 26.086h-1.389l-3.72-5.516-.33-.523.339.002.2-.004c1.64-.068 2.69-.98 2.69-2.363 0-1.495-1.226-2.461-3.123-2.461h-.304v10.865h-1.201V14.21Zm-38.058 0v5.515h3.27v-5.515h1.202v11.877H19.88v-5.351h-3.271v5.351h-1.176V14.21h1.176Zm7.792 0v11.877h-1.175V14.21H24.4Zm20.716.802c-3.076 0-5.579 2.305-5.579 5.137 0 2.832 2.514 5.137 5.604 5.137 3.076 0 5.579-2.305 5.579-5.137 0-2.832-2.514-5.137-5.604-5.137Z"/>
    <path d="M0 0h61v40H0z"/>
  </g>
</svg>