<svg xmlns="http://www.w3.org/2000/svg" xmlns:xlink="http://www.w3.org/1999/xlink" viewBox="0 0 100 40">
  <defs>
    <path id="a" d="M0 11.294h96.859V0H0z"/>
  </defs>
  <g fill="none" fill-rule="evenodd">
    <g transform="translate(2 14.25)">
      <path fill="#FFF" d="M4.454 5.22c.642.356 1.134.758 1.503 1.227.42.51.633 1.126.633 1.833 0 1.774-1.394 3.014-3.388 3.014a5.38 5.38 0 0 1-3.14-1.018l-.012-.009V8.183l.052.061c.334.394 1.351 1.594 3.1 1.594.857 0 1.768-.496 1.768-1.413 0-.887-.946-1.552-1.51-1.87C1.65 5.524 1.103 5.214.582 4.59A2.483 2.483 0 0 1 0 2.935C0 1.207 1.415 0 3.44 0c.94 0 1.866.268 2.678.775l.014.009v1.864l-.049-.045c-.823-.751-1.73-1.131-2.694-1.131-1.045 0-1.803.52-1.803 1.239 0 .924.723 1.323 2.868 2.509Z"/>
      <path fill="#FFF" d="M18.084 4.88H11.97V.144h-1.644v11.005h1.644V6.383h6.114v4.766h1.657V.144h-1.657z"/>
      <mask id="b" fill="#fff">
        <use xlink:href="#a"/>
      </mask>
      <path fill="#FFF" d="M24.169 11.149h1.643V.144h-1.643z" mask="url(#b)"/>
      <path fill="#FFF" d="M38.996 8.586 31.606.144h-1.319v11.005h1.546V2.772l7.316 8.367.009.01h1.4V.144h-1.562z" mask="url(#b)"/>
      <path fill="#FFF" d="M48.84 5.22c-2.147-1.185-2.87-1.584-2.87-2.51 0-.717.758-1.238 1.804-1.238.965 0 1.872.38 2.695 1.131l.05.045V.784l-.014-.009A5.065 5.065 0 0 0 47.825 0c-2.027 0-3.442 1.207-3.442 2.935 0 .645.187 1.17.585 1.656.52.623 1.066.934 2.876 1.964.565.317 1.513.981 1.513 1.87 0 .917-.913 1.413-1.772 1.413-1.75 0-2.764-1.2-3.099-1.594l-.052-.061v2.084l.013.009a5.38 5.38 0 0 0 3.138 1.018c1.003 0 1.857-.297 2.47-.856.593-.54.919-1.307.919-2.158 0-.708-.213-1.325-.633-1.833-.37-.47-.86-.873-1.501-1.227" mask="url(#b)"/>
      <path fill="#FFF" d="M56.339 6.334h4.507V4.88h-4.507V1.6h4.668V.144h-6.31v11.005h6.456V9.676h-4.814z" mask="url(#b)"/>
      <path fill="#FFF" d="M70.438 7.152h2.117V9.38c-1.004.321-1.57.473-2.377.473-2.59 0-4.398-1.73-4.398-4.206 0-2.624 2.162-4.193 4.251-4.193.719 0 2.182.148 3.898 1.136l.044.026V.941l-.019-.007C72.744.423 71.614 0 70.064 0c-3.89 0-5.99 2.958-5.99 5.742 0 1.368.518 2.722 1.421 3.715 1.094 1.201 2.697 1.837 4.634 1.837 1.77 0 3.094-.482 4.05-.902l.018-.007V5.712h-3.759v1.44Z" mask="url(#b)"/>
      <path fill="#FFF" d="M83.889 6.451h-3.336l1.603-3.86 1.733 3.86ZM81.604.08l-4.743 11.029-.017.04h1.68l1.39-3.225h4.646l1.463 3.209.008.017h1.68L82.758.079h-1.153Z" mask="url(#b)"/>
      <path fill="#FFF" d="M92.046 9.676V6.334h4.508V4.88h-4.508V1.6h4.669V.144h-6.312v11.005h6.456V9.676z" mask="url(#b)"/>
    </g>
    <path d="M0 0h100v40H0z"/>
  </g>
</svg>