<svg xmlns="http://www.w3.org/2000/svg" xmlns:xlink="http://www.w3.org/1999/xlink" viewBox="0 0 51 40">
  <defs>
    <path id="a" d="M8.195 0H.018v12.35h8.177V0z"/>
  </defs>
  <g fill="none" fill-rule="evenodd">
    <path fill="#FFF" d="M4.884 19.937c.737-.69 1.72-1.349 2.785-1.349 1.704 0 2.638.954 2.638 2.664v3.865c0 .51.099.608.885.608v.395H7.424v-.395c.95 0 1.048-.098 1.048-.608v-4.111c0-.839-.639-1.53-1.524-1.53-.704 0-1.294.23-2.064.938v4.703c0 .51.098.608.967.608v.395H2v-.395c.95 0 1.048-.098 1.048-.608v-9.094c.016-.839-.738-.773-1.049-.872v-.394c.983-.116 1.933-.477 2.884-.757v5.937Z"/>
    <path fill="#FFF" d="M15.36 18.983c-1.377 0-1.967 1.118-1.967 3.486 0 2.368.59 3.487 1.966 3.487s1.966-1.119 1.966-3.487c0-2.368-.59-3.486-1.966-3.486m0 7.367c-2.228 0-4.063-1.595-4.063-3.88 0-2.287 1.835-3.882 4.063-3.882 2.229 0 4.064 1.595 4.064 3.881 0 2.286-1.835 3.881-4.064 3.881"/>
    <path fill="#FFF" d="M23.099 19.213c-.689 0-1.114.198-1.114.411 0 .165.13.395.245.69l1.54 3.619 1.279-3.207c.147-.362.278-.641.278-.839 0-.28-.295-.592-1.245-.674v-.395h4.293v.395c-.623.05-1.032.165-1.032.378 0 .083.163.428.229.609l1.524 3.799 1.31-3.618c.132-.33.23-.576.23-.707 0-.313-.442-.379-.934-.46v-.396h2.474v.395c-.77.132-1.048.79-1.31 1.464l-2.262 5.673h-.491l-2.442-5.92-2.392 5.92h-.442l-2.9-6.676c-.164-.362-.492-.445-.803-.46v-.396h3.965v.395Z"/>
    <g transform="translate(31.846 14)">
      <mask id="b" fill="#fff">
        <use xlink:href="#a"/>
      </mask>
      <path fill="#FFF" d="M5.475 6.775c-.262-.986-.803-1.792-1.803-1.792-1.49 0-1.818 1.727-1.818 2.91 0 1.398.655 3.29 2.343 3.29.475 0 .917-.1 1.278-.428v-3.98Zm.065 4.49c-.835.822-1.589 1.085-2.736 1.085C.87 12.35.018 10.41.018 8.486c0-2.056 1.213-3.898 3.376-3.898.737 0 1.507.346 2.08.757V1.809c0-.576-.409-.658-1.097-.757V.658C5.507.543 6.392.263 7.31 0v10.804c0 .724.278.823.885.823v.394l-2.655.33v-1.086Z" mask="url(#b)"/>
    </g>
    <path fill="#FFF" d="M48.738 26.35c-.704 0-1.261-.559-1.261-1.266s.557-1.266 1.261-1.266c.705 0 1.262.559 1.262 1.266s-.557 1.266-1.262 1.266"/>
    <path fill="#FFF" d="M40.046 18.833h4.144v.394c-.41.017-1.147.115-1.147.428 0 .098.066.28.115.394l2.063 4.224 1.785-4.01a.892.892 0 0 0 .098-.428c0-.361-.196-.558-.982-.608v-.394h2.57v.394c-.67.115-.95.444-1.195 1.036l-3.324 7.527c-.311.707-.639 1.595-1.54 1.595-.572 0-1.08-.329-1.08-.954 0-.542.475-.854.868-.854.23 0 .41.065.59.115.18.065.36.115.442.115.409 0 .802-1.101.802-1.414l-3.03-6.36c-.278-.608-.573-.69-1.179-.806v-.394Z"/>
    <path d="M0 0h51v40H0z"/>
  </g>
</svg>