<svg xmlns="http://www.w3.org/2000/svg" xmlns:xlink="http://www.w3.org/1999/xlink" viewBox="0 0 123 40">
  <defs>
    <path id="a" d="M0 .12h7.609v6.759H0z"/>
  </defs>
  <g fill="none" fill-rule="evenodd">
    <g transform="translate(2 14.095)">
      <mask id="b" fill="#fff">
        <use xlink:href="#a"/>
      </mask>
      <path fill="#FFF" d="M6.461 2.249c0-.748-.459-1.11-1.372-1.11h-3.97v2.146h4.044c.85 0 1.298-.365 1.298-1.036M7.61 2.23c0 1.334-.86 2.072-2.465 2.072H1.12V6.88H0V.12h5.36c1.381 0 2.249.83 2.249 2.111" mask="url(#b)"/>
    </g>
    <path fill="#FFF" d="M17.095 16.344c0-.748-.456-1.11-1.4-1.11h-3.94v2.146h4.043c.841 0 1.297-.374 1.297-1.036Zm-.093 4.63-1.83-2.576h-3.417v2.576h-1.12v-6.76h5.331c1.42 0 2.278.822 2.278 2.13 0 1.193-.747 1.83-1.755 1.999l1.81 2.631h-1.297Z"/>
    <path fill="#FFF" d="M19.617 20.974v-6.759h6.812v1.018h-5.693v1.727h3.957v1.017h-3.957v1.979h5.955v1.018z"/>
    <path fill="#FFF" d="M36.147 20.974v-5.527h-.027l-3.51 4.406-3.483-4.406H29.1v5.527h-1.122v-6.759h1.392l3.248 4.088 3.258-4.088h1.391v6.759z"/>
    <path fill="#FFF" d="M42.746 14.215v4.305c0 1.045.935 1.632 2.718 1.632 1.773 0 2.696-.587 2.696-1.632v-4.305h1.121v4.573c0 1.383-1.455 2.393-3.817 2.393-2.372 0-3.837-1.02-3.837-2.393v-4.573h1.12Zm32.83 0v4.305c0 1.045.934 1.632 2.717 1.632 1.773 0 2.7-.587 2.7-1.632v-4.305h1.12v4.573c0 1.383-1.457 2.393-3.82 2.393-2.371 0-3.836-1.02-3.836-2.393v-4.573h1.12ZM68.886 14c1.147 0 2.212.345 2.959.914.906.693 1.371 1.597 1.371 2.67 0 1.103-.455 2.007-1.361 2.688-.747.561-1.792.899-2.97.899-1.174 0-2.25-.346-2.987-.905-.906-.683-1.363-1.579-1.363-2.681 0-1.082.468-1.978 1.382-2.67.756-.57 1.811-.915 2.969-.915Zm48.858.047c1.455 0 2.68.338 3.659.998l-.682.757c-1.01-.514-1.998-.766-3.06-.766-1.403 0-2.139.353-2.139.915 0 .308.195.513.587.655.738.26 1.849.176 3.222.354 1.68.214 2.483.793 2.483 1.924 0 1.419-1.289 2.248-3.69 2.248-1.716 0-3.042-.362-4.022-1.138l.616-.812c1.085.662 2.184.97 3.42.97 1.603 0 2.463-.466 2.463-1.192 0-.965-1.149-.965-3.138-1.095-2.082-.14-3.128-.466-3.128-1.766 0-1.259 1.215-2.052 3.409-2.052Zm-77.713.168v6.76h-1.12v-6.76h1.12Zm12.238 0 3.249 4.088 3.257-4.088h1.392v6.76h-1.121v-5.528h-.027l-3.51 4.406-3.483-4.406h-.028v5.527h-1.12v-6.759h1.391Zm38.385 0v1.018h-3.23v5.741h-1.12v-5.74h-3.23v-1.02h7.58Zm2.129 0v5.74H98v1.02h-6.34v-6.76h1.122Zm12.993 0v1.018h-5.695v1.727h3.96v1.017h-3.96v1.979h5.958v1.018H98.96v-6.759h6.815Zm8.422 0v1.018h-3.231v5.741h-1.12v-5.74h-3.23v-1.02h7.58Zm-45.312.81c-1.887 0-3.185 1.086-3.185 2.56 0 1.522 1.243 2.556 3.185 2.556 1.933 0 3.165-1.045 3.165-2.556 0-.784-.335-1.427-1.008-1.923-.542-.393-1.308-.636-2.157-.636Z"/>
    <path fill="#FFF" d="M58.728 24c.574 0 1.015.196 1.386.62l-.396.2c-.26-.277-.586-.43-1.026-.43-.319 0-.611.092-.817.24-.256.19-.381.431-.381.729 0 .57.473.968 1.198.968.556 0 .94-.234 1.103-.658h-1.19v-.388h1.722v.04c0 .83-.645 1.396-1.635 1.396-.445 0-.85-.13-1.13-.341-.339-.259-.512-.6-.512-1.017 0-.408.173-.749.52-1.01.29-.224.694-.349 1.158-.349Zm23.985 0c.437 0 .84.131 1.123.349.344.261.521.605.521 1.01 0 .417-.174.761-.518 1.02-.283.21-.679.338-1.126.338-.444 0-.85-.13-1.13-.341a1.218 1.218 0 0 1-.516-1.017c0-.407.176-.749.521-1.01.289-.218.687-.349 1.125-.349Zm-10.902.018c.553 0 1.018.129 1.388.38l-.258.285a2.494 2.494 0 0 0-1.162-.29c-.53 0-.809.136-.809.346 0 .12.075.196.224.248.28.101.7.069 1.22.134.637.082.941.301.941.73 0 .539-.489.852-1.398.852-.65 0-1.153-.136-1.524-.43l.233-.308c.411.25.828.366 1.296.366.607 0 .932-.174.932-.451 0-.366-.435-.366-1.189-.415-.788-.053-1.184-.178-1.184-.668 0-.477.461-.78 1.29-.78Zm-20.96 0c.554 0 1.016.129 1.39.38l-.259.285a2.5 2.5 0 0 0-1.162-.29c-.532 0-.81.136-.81.346 0 .12.073.196.222.248.28.101.701.069 1.22.134.637.082.943.301.943.73 0 .539-.489.852-1.398.852-.651 0-1.154-.136-1.525-.43l.233-.308c.41.25.829.366 1.297.366.608 0 .932-.174.932-.451 0-.366-.434-.366-1.188-.415-.788-.053-1.184-.178-1.184-.668 0-.477.458-.78 1.29-.78Zm-14.155 0c.552 0 1.015.129 1.387.38l-.259.285a2.488 2.488 0 0 0-1.16-.29c-.53 0-.81.136-.81.346 0 .12.073.196.222.248.28.101.7.069 1.22.134.638.082.943.301.943.73 0 .539-.49.852-1.398.852-.651 0-1.153-.136-1.524-.43l.232-.308c.411.25.829.366 1.296.366.607 0 .934-.174.934-.451 0-.366-.436-.366-1.19-.415-.788-.053-1.184-.178-1.184-.668 0-.477.46-.78 1.29-.78Zm49.418.064 1.956 2.1v-2.1h.425v2.56h-.524l-1.96-2.099v2.1h-.424v-2.561h.527Zm-9.272 0 1.232 1.55 1.233-1.55h.528v2.56h-.424V24.55h-.01l-1.331 1.67-1.32-1.67h-.01v2.094h-.423v-2.561h.525Zm-32.742 0v2.56h-.424v-2.56h.424Zm30.851 0v2.56h-.423v-2.56h.423Zm-7.069 0v.386h-2.158v.653h1.5v.387h-1.5v.75h2.257v.385h-2.682v-2.561h2.583Zm-28.045 0v1.04h2.052v-1.04h.424v2.56h-.424v-1.134h-2.052v1.135h-.426v-2.561h.426Zm23.117 0 1.356 2.56h-.463l-.297-.573h-1.724l-.298.574h-.461l1.354-2.561h.533Zm-16.963 0 1.959 2.1v-2.1h.423v2.56h-.523l-1.96-2.099v2.1h-.426v-2.561h.527Zm10.16 0v.386h-2.159v.653h1.5v.387h-1.5v.75h2.257v.385h-2.68v-2.561h2.582Zm26.562.308c-.714 0-1.206.41-1.206.97 0 .576.472.967 1.206.967.733 0 1.2-.395 1.2-.968 0-.298-.126-.539-.38-.73a1.419 1.419 0 0 0-.82-.24Zm-20.023.057-.656 1.238h1.308l-.652-1.238Z"/>
    <path d="M0 0h123v40H0z"/>
  </g>
</svg>