<svg xmlns="http://www.w3.org/2000/svg" viewBox="0 0 118 40">
  <g fill="none" fill-rule="evenodd">
    <g fill="#FFF">
      <path d="M75.917 20.486c0 3.366-1.88 5.169-5.391 5.169-3.45 0-5.397-1.852-5.397-5.138v-5.966h3.877v5.777c0 1.602.442 2.308 1.485 2.308 1.045 0 1.55-.64 1.55-2.472v-5.613h3.876v5.935Z"/>
      <path d="M20.316 17.311v8.123h-3.915v-8.123h-3.278v-2.758h10.472v2.758z"/>
      <path d="m32.715 25.434-.654-1.993H28.38l-.695 1.993h-3.906L27.74 14.55h4.96l3.919 10.883h-3.904Zm-2.52-8.401-.968 3.728h1.957l-.99-3.728Z"/>
      <path d="m88.485 24.587-1.175-2.822c-.691.523-1.391.988-2.53.988-1.537 0-2.56-1.264-2.56-2.806 0-1.56.902-2.87 2.497-2.87 1.011 0 1.89.503 2.595 1.06l1.159-2.756c-1.294-.651-2.591-1.051-4.373-1.051-3.29 0-5.794 2.254-5.794 5.585 0 3.515 2.432 5.742 5.904 5.742 1.913 0 3.255-.443 4.277-1.07"/>
      <path d="m97.292 25.434-2.454-3.967v3.967h-3.803V14.551h3.803v3.986l2.298-3.986h4.251l-3.571 5.364 4.027 5.519z"/>
      <path d="M6.578 25.655c2.465 0 5.025-.88 5.025-3.665 0-2.51-2.137-3.193-3.802-3.551-1.254-.27-1.855-.397-1.855-.902 0-.663.845-.718 1.3-.718 1.125 0 2.178.461 3.083 1.013l1.017-2.482c-1.328-.57-2.939-1.018-4.441-1.018-2.56 0-4.565 1.235-4.565 3.723 0 2.04 1.548 2.826 3.255 3.246 1.18.293 1.938.38 1.938.966 0 .584-.58.756-1.142.756-1.244 0-2.427-.541-3.16-1.171L2 24.255c1.328.861 2.945 1.4 4.578 1.4"/>
      <path d="M107.608 25.655c2.469 0 5.027-.88 5.027-3.665 0-2.51-2.135-3.193-3.801-3.551-1.253-.27-1.856-.397-1.856-.902 0-.663.845-.718 1.3-.718 1.126 0 2.18.461 3.083 1.013l1.017-2.482c-1.328-.57-2.939-1.018-4.44-1.018-2.56 0-4.566 1.235-4.566 3.723 0 2.04 1.548 2.826 3.255 3.246 1.18.293 1.937.38 1.937.966 0 .584-.58.756-1.14.756-1.244 0-2.428-.541-3.161-1.171l-1.232 2.403c1.33.861 2.945 1.4 4.577 1.4"/>
      <path d="M45.18 18.3c0 .713-.452 1.129-1.194 1.129h-1.34v-2.274h1.353c.716 0 1.18.366 1.18 1.113v.033Zm1.763 3.067C48.274 20.88 49 19.54 49 18.284c0-2.568-1.756-3.733-4.25-3.733h-5.88v10.882h3.775v-3.228h.953l1.96 3.228h4.071l-2.685-4.066Z"/>
      <path d="M58.587 22.063c0 .638-.465 1.01-1.232 1.01h-1.383v-2.04h1.396c.74 0 1.219.328 1.219 1v.03Zm-2.615-5.154h1.367c.722 0 1.19.313 1.19.949v.03c0 .606-.454.96-1.205.96h-1.352V16.91Zm4.194 2.967c1.417-.304 2.112-1.1 2.112-2.43 0-1.852-1.388-2.893-3.833-2.893H52.24v10.882h5.96c2.878 0 4.31-1.015 4.31-3.07 0-1.416-.895-2.374-2.343-2.49Z"/>
      <path d="M115.48 15.936c.228 0 .386-.107.386-.291v-.01c0-.171-.142-.281-.375-.281h-.481v.582h.47Zm-.713-.804h.734c.207 0 .38.067.485.172a.436.436 0 0 1 .132.318v.011c0 .264-.176.422-.423.479l.506.657h-.3l-.471-.618h-.42v.618h-.243v-1.637Zm2.01.866v-.008c0-.762-.593-1.384-1.378-1.384-.791 0-1.388.63-1.388 1.392v.006c0 .762.593 1.384 1.381 1.384s1.385-.63 1.385-1.39Zm-2.988.006v-.006a1.61 1.61 0 0 1 1.611-1.606c.9 0 1.6.724 1.6 1.598v.008c0 .872-.708 1.605-1.608 1.605a1.594 1.594 0 0 1-1.603-1.599Z"/>
    </g>
    <path d="M0 0h118v40H0z"/>
  </g>
</svg>