<svg xmlns="http://www.w3.org/2000/svg" xmlns:xlink="http://www.w3.org/1999/xlink" width="113" height="51" viewBox="0 0 113 51">
    <defs>
        <path id="83z7c0k82a" d="M0 0H112.064V50.429H0z"/>
    </defs>
    <g fill="none" fill-rule="evenodd">
        <g>
            <g>
                <g transform="translate(-16.000000, -423.000000) translate(0.000000, 403.000000) translate(16.000000, 20.000000)">
                    <mask id="b8he1xh4cb" fill="#fff">
                        <use xlink:href="#83z7c0k82a"/>
                    </mask>
                    <g mask="url(#b8he1xh4cb)">
                        <g>
                            <path fill="#F21100" d="M104.107 35.991L1.685 39.565 0.973 19.186 103.395 15.611z" transform="translate(-0.307600, 0.392800)"/>
                            <path fill="#000" d="M54.203 13.615L59.047 13.615 59.047 26.714 67.511 26.714 67.511 30.915 54.203 30.915zM70.838 32.911L75.496 32.911 75.496 20.269 70.838 20.269zM77.492 15L82.511 14.212 87.798 23.865 89.865 13.058 94.792 12.284 90.786 29.597 86.623 30.25zM97.381 16.942L110.761 20.118 109.837 24.068 101.02 21.975 100.426 24.513 108.411 26.409 107.554 30.071 99.569 28.175 98.948 30.832 107.883 32.954 106.959 36.904 93.461 33.699z" transform="translate(-0.307600, 0.392800)"/>
                            <path fill="#F21100" d="M103.442 9.426L102.009 9.426 102.725 8.156 101.829 7.627 101.073 8.966 100.214 7.694 99.362 8.297 100.126 9.426 98.784 9.426 98.784 10.485 100.216 10.485 99.5 11.755 100.397 12.284 101.152 10.945 102.012 12.217 102.863 11.614 102.1 10.485 103.442 10.485zM23.596 45.356L22.163 45.356 22.88 44.086 21.984 43.557 21.228 44.896 20.368 43.624 19.517 44.227 20.28 45.356 18.938 45.356 18.938 46.416 20.371 46.416 19.655 47.685 20.551 48.215 21.306 46.875 22.166 48.147 23.018 47.545 22.254 46.416 23.596 46.416zM4.965 9.321L4.147 9.321 4.556 8.595 4.044 8.292 3.612 9.058 3.121 8.331 2.635 8.675 3.071 9.321 2.304 9.321 2.304 9.926 3.122 9.926 2.713 10.651 3.225 10.954 3.657 10.188 4.149 10.916 4.635 10.571 4.199 9.926 4.965 9.926z" transform="translate(-0.307600, 0.392800)"/>
                            <g>
                                <path fill="#F21100" d="M28.901 15.309c-.075 0-.152-.022-.22-.065l-4.531-2.896c-.192-.123-.249-.379-.127-.572.123-.193.377-.25.569-.127l4.53 2.897c.193.122.25.378.127.57-.078.125-.211.193-.348.193M31.373 14.481c-.16 0-.312-.095-.379-.252L25.227.575c-.089-.21.01-.454.219-.543.208-.089.45.009.54.22l5.766 13.653c.09.211-.009.454-.218.543-.052.023-.107.033-.16.033M23.341 10.757c0 .343-.276.62-.618.62-.34 0-.618-.277-.618-.62 0-.343.277-.62.618-.62.342 0 .618.277.618.62M94.729 48.173c.162.302.05.679-.25.841-.3.164-.675.051-.837-.25-.163-.302-.05-.679.25-.841.3-.164.674-.052.837.25" transform="translate(-0.307600, 0.392800) translate(5.630640, 0.307600)"/>
                                <path fill="#000" d="M65.312 18.38L70.476 12.145 68.19 11.94 69.425 6.691 64.262 12.926 66.548 13.132z" transform="translate(-0.307600, 0.392800) translate(5.630640, 0.307600)"/>
                                <path fill="#F21100" d="M77.736 46.84c-.156 0-.305-.09-.374-.241l-2.576-5.657c-.095-.208-.004-.453.203-.548.207-.094.451-.004.546.204l2.576 5.656c.095.208.003.454-.203.549-.056.025-.114.037-.172.037M91.986 47.736c-.067 0-.135-.016-.198-.05l-14.631-8.048c-.2-.11-.273-.36-.163-.562.108-.2.358-.274.559-.163l14.63 8.047c.2.11.274.36.164.561-.075.138-.216.215-.361.215" transform="translate(-0.307600, 0.392800) translate(5.630640, 0.307600)"/>
                                <path fill="#FFF" d="M.04 34.382l2.206-2.862c1.522 1.126 3.194 1.687 4.927 1.62 1.113-.042 1.698-.452 1.673-1.097L8.845 32c-.024-.624-.529-.95-2.58-1.344-3.217-.61-5.713-1.419-5.83-4.515l-.002-.043c-.105-2.794 2.023-4.9 5.619-5.037 2.547-.098 4.563.514 6.24 1.763l-1.965 3.025c-1.406-.915-2.925-1.373-4.251-1.323-1.007.038-1.482.487-1.462 1.025l.001.043c.026.688.552.97 2.646 1.363 3.474.622 5.657 1.658 5.764 4.474l.001.043c.117 3.075-2.232 4.995-5.872 5.134-2.653.101-5.211-.641-7.114-2.226M13.78 33.857l2.207-2.862c1.522 1.126 3.194 1.686 4.927 1.62 1.113-.042 1.698-.452 1.674-1.097l-.002-.043c-.024-.624-.529-.949-2.58-1.344-3.217-.61-5.713-1.418-5.83-4.515l-.002-.043c-.105-2.794 2.022-4.9 5.618-5.037 2.548-.098 4.564.514 6.24 1.764l-1.964 3.025c-1.407-.916-2.925-1.375-4.251-1.324-1.007.038-1.482.487-1.462 1.025l.001.043c.026.688.552.97 2.646 1.363 3.474.621 5.657 1.658 5.764 4.474l.001.043c.117 3.075-2.233 4.995-5.872 5.134-2.653.101-5.211-.641-7.114-2.226M28.158 28.054l-.002-.043c-.166-4.386 3.128-7.958 7.773-8.135 2.633-.1 4.526.645 6.162 1.961l-2.329 3.039c-1.104-.862-2.194-1.337-3.67-1.28-2.162.082-3.763 1.973-3.676 4.274l.002.043c.092 2.43 1.849 4.106 4.224 4.016 1.007-.04 1.769-.283 2.374-.716l-.07-1.827-2.953.112-.115-3.053 6.892-.263.256 6.773c-1.534 1.372-3.7 2.467-6.419 2.57-4.666.179-8.277-2.913-8.45-7.471" transform="translate(-0.307600, 0.392800) translate(5.630640, 0.307600)"/>
                            </g>
                        </g>
                    </g>
                </g>
            </g>
        </g>
    </g>
</svg>
